SplineFontDB: 1.0
FontName: DejaVuSerifCondensed
FullName: DejaVu Serif Condensed
FamilyName: DejaVu Serif Condensed
Weight: Book
Copyright: Copyright (c) 2003 by Bitstream, Inc. All Rights Reserved.\nDejaVu changes are in public domain\n
Version: 1.15
ItalicAngle: 0
UnderlinePosition: -213
UnderlineWidth: 133
Ascent: 1556
Descent: 492
Order2: 1
NeedsXUIDChange: 1
FSType: 0
PfmFamily: 17
TTFWeight: 400
TTFWidth: 5
LineGap: 410
VLineGap: 0
Panose: 2 6 6 6 5 6 5 2 2 4
OS2TypoAscent: 1556
OS2TypoAOffset: 0
OS2TypoDescent: -492
OS2TypoDOffset: 0
OS2TypoLinegap: 0
OS2WinAscent: 1901
OS2WinAOffset: 0
OS2WinDescent: 483
OS2WinDOffset: 0
HheadAscent: 1901
HheadAOffset: 0
HheadDescent: -483
HheadDOffset: 0
OS2Vendor: 'PfEd'
ScriptLang: 2
 1 latn 1 dflt 
 1 DFLT 1 dflt 
TtfTable: prep 1374
\,q1Gi5bg!`Y/Hn`$>N*A-9e9"N2Pf_[Q^b_']E'A-9Xq"2J1E^O63s$Nn!K"1l#W"hHGk\J,.U
1'>#b"1J12[Jg97rWBJ*"0o(#"gRn+YX\f!rWB<O"0MP)X:>?5WXK'3'Eb?D"0"$XW+6".*Wr2n
"/DT$"f)&!U1=A"Q4=(l,m0fb$3d(K".r3gSe)!p/d%W"*X/)5".P_j"e-M7RLfRhQjs:f,m0NZ
$3ce,".2=VQ^/*bQP9OgJ-;/J"-u1TPpHNsKJ3RorWA@I'*XRG"-ScU"d0N$P.1NX5R@RUO9u/R
%0Ma&!<>AV"HWrmOMD![Dg_eM]*"(E$O)P&"-,VLNI_H@NB.0#Mn9.OrWA(9>m6.u",h[4MMWV_
MHp=A5Qlq"*X.BH",M^E"c+3%Lq*K#5lUtB&Hd`?0Em/@",&?1K,+Q@Q32[G"+Xom"b?RSIr#Z"
Ii/?;I1?F01';q7"+5G+"agscHOg4)Q32CE"*b.TGBP)4GPVDbFW:R.+9Qa+"*A>j"`tdfF8c8^
rW@.Z%0^bN")n\OE'OPEI04A(4p>h>")U4(ChjF_C_-\bJ-9Wr")C.)C1LiYCAJ$HBY+F^rW?hH
>m4oR")*2fB4`FnB3bUP5Qk[F"(c"R"_IN4A7PdP'a%qE"(D02?sbMi@/^78/d#GZ"'tm.>Y>0'
I03[P"'J"o=T/D(rW?35"',=&;e,u.'E_2f"&Mc("]0UL:CdP&5sRa=9FCqpA-5CI#R*ec"%Y0L
7fs;+7hYto&d(Q($3`j9"%5Ki"[m,.6UD=f6PBPg5mmi_&-G3`#mEU&"$d.p5e-j05Z7eMQ30;R
/Hn=4"$Ja\"[,K\4?ElR4;7l[5Qj.U"$/FT"Zfok3B.TS3>)ER&Has$"#g,\2)H!N2?!\71D9pK
'E^-H$3`4!"#;S;"YpDe1:[A"5lUsA#m2k7(^2T]""u8A"YU\p0>I]C*XW'''a$(=">'pj"YH#B
/1VD</5$'q+p\?&'E]jN"=aH["Y+$b.4?kR.7"%a">'d*0EW[*/HmO$""$&2,n1[p-!^Tu,8(/*
;Ze6g#R)Fc"!^&6+p\8o+;b8*>lu2k&Hs9o"!GA^+!(am*t\SsJ-6o#"!0]1*?tY+%g*ar!u`%2

StartChar: .notdef
Encoding: 0 -1 0
AltUni: 0
Width: 1167
Flags: W
Fore
153.2 -362 m 1,0,-1
 153.2 1444 l 1,1,-1
 1074.8 1444 l 1,2,-1
 1074.8 -362 l 1,3,-1
 153.2 -362 l 1,0,-1
256.7 -248 m 1,4,-1
 972.2 -248 l 1,5,-1
 972.2 1329 l 1,6,-1
 256.7 1329 l 1,7,-1
 256.7 -248 l 1,4,-1
EndSplineSet
EndChar
StartChar: exclam
Encoding: 33 33 33
Width: 781
Flags: W
Fore
292.3 104 m 0,0,1
 292.3 160 292.3 160 326.5 199 c 128,-1,2
 360.7 238 360.7 238 412 238 c 0,3,4
 461.5 238 461.5 238 496.6 199 c 128,-1,5
 531.7 160 531.7 160 531.7 104 c 0,6,7
 531.7 49 531.7 49 496.6 10 c 128,-1,8
 461.5 -29 461.5 -29 412 -29 c 0,9,10
 360.7 -29 360.7 -29 326.5 9.5 c 128,-1,11
 292.3 48 292.3 48 292.3 104 c 0,0,1
295.9 1493 m 1,12,-1
 528.1 1493 l 1,13,-1
 466.9 672 l 1,14,-1
 466.9 420 l 1,15,-1
 356.2 420 l 1,16,-1
 356.2 672 l 1,17,-1
 295.9 1493 l 1,12,-1
EndSplineSet
EndChar
StartChar: quotedbl
Encoding: 34 34 34
Width: 894
Flags: W
Fore
371.1 1493 m 1,0,-1
 371.1 938 l 1,1,-1
 228 938 l 1,2,-1
 228 1493 l 1,3,-1
 371.1 1493 l 1,0,-1
714 1493 m 1,4,-1
 714 938 l 1,5,-1
 570.9 938 l 1,6,-1
 570.9 1493 l 1,7,-1
 714 1493 l 1,4,-1
EndSplineSet
EndChar
StartChar: numbersign
Encoding: 35 35 35
Width: 1630
Flags: W
Fore
1023.65 901 m 1,0,-1
 769.85 901 l 1,1,-1
 694.25 567 l 1,2,-1
 950.75 567 l 1,3,-1
 1023.65 901 l 1,0,-1
896.75 1470 m 1,4,-1
 804.95 1055 l 1,5,-1
 1058.75 1055 l 1,6,-1
 1151.45 1470 l 1,7,-1
 1306.25 1470 l 1,8,-1
 1211.75 1055 l 1,9,-1
 1488.95 1055 l 1,10,-1
 1488.95 901 l 1,11,-1
 1176.65 901 l 1,12,-1
 1102.85 567 l 1,13,-1
 1385.45 567 l 1,14,-1
 1385.45 414 l 1,15,-1
 1068.65 414 l 1,16,-1
 975.95 0 l 1,17,-1
 821.15 0 l 1,18,-1
 915.65 414 l 1,19,-1
 660.95 414 l 1,20,-1
 567.35 0 l 1,21,-1
 414.35 0 l 1,22,-1
 506.15 414 l 1,23,-1
 228.05 414 l 1,24,-1
 228.05 567 l 1,25,-1
 541.25 567 l 1,26,-1
 615.05 901 l 1,27,-1
 330.65 901 l 1,28,-1
 330.65 1055 l 1,29,-1
 650.15 1055 l 1,30,-1
 743.75 1470 l 1,31,-1
 896.75 1470 l 1,4,-1
EndSplineSet
EndChar
StartChar: dollar
Encoding: 36 36 36
Width: 1238
Flags: W
Fore
686.35 68 m 1,0,1
 788.05 78 788.05 78 841.6 133 c 128,-1,2
 895.15 188 895.15 188 895.15 283 c 0,3,4
 895.15 369 895.15 369 842.05 429 c 128,-1,5
 788.95 489 788.95 489 686.35 520 c 1,6,-1
 686.35 68 l 1,0,1
596.35 1187 m 1,7,8
 503.65 1180 503.65 1180 452.35 1127.5 c 128,-1,9
 401.05 1075 401.05 1075 401.05 987 c 0,10,11
 401.05 907 401.05 907 448.3 854 c 128,-1,12
 495.55 801 495.55 801 596.35 768 c 1,13,-1
 596.35 1187 l 1,7,8
223.75 72 m 1,14,-1
 223.75 348 l 1,15,-1
 320.95 348 l 1,16,17
 324.55 211 324.55 211 392.95 141 c 128,-1,18
 461.35 71 461.35 71 596.35 68 c 1,19,-1
 596.35 553 l 1,20,21
 389.35 617 389.35 617 305.65 700.5 c 128,-1,22
 221.95 784 221.95 784 221.95 922 c 0,23,24
 221.95 1082 221.95 1082 320.95 1179 c 128,-1,25
 419.95 1276 419.95 1276 596.35 1288 c 1,26,-1
 596.35 1556 l 1,27,-1
 686.35 1556 l 1,28,-1
 686.35 1288 l 1,29,30
 777.25 1280 777.25 1280 861.4 1255.5 c 128,-1,31
 945.55 1231 945.55 1231 1025.65 1190 c 1,32,-1
 1025.65 928 l 1,33,-1
 927.55 928 l 1,34,35
 916.75 1044 916.75 1044 854.65 1111 c 128,-1,36
 792.55 1178 792.55 1178 686.35 1187 c 1,37,-1
 686.35 735 l 1,38,39
 907.75 668 907.75 668 996.4 581.5 c 128,-1,40
 1085.05 495 1085.05 495 1085.05 350 c 0,41,42
 1085.05 184 1085.05 184 980.65 84 c 128,-1,43
 876.25 -16 876.25 -16 686.35 -31 c 1,44,-1
 686.35 -301 l 1,45,-1
 596.35 -301 l 1,46,-1
 596.35 -31 l 1,47,48
 509.95 -29 509.95 -29 417.25 -3.5 c 128,-1,49
 324.55 22 324.55 22 223.75 72 c 1,14,-1
EndSplineSet
EndChar
StartChar: percent
Encoding: 37 37 37
Width: 1848
Flags: W
Fore
510.4 1427 m 0,0,1
 431.2 1427 431.2 1427 386.65 1344 c 128,-1,2
 342.1 1261 342.1 1261 342.1 1112 c 0,3,4
 342.1 965 342.1 965 387.55 881 c 128,-1,5
 433 797 433 797 510.4 797 c 0,6,7
 586.9 797 586.9 797 631.45 880.5 c 128,-1,8
 676 964 676 964 676 1112 c 0,9,10
 676 1260 676 1260 631.45 1343.5 c 128,-1,11
 586.9 1427 586.9 1427 510.4 1427 c 0,0,1
1437.4 694 m 0,12,13
 1359.1 694 1359.1 694 1314.55 610 c 128,-1,14
 1270 526 1270 526 1270 377 c 0,15,16
 1270 230 1270 230 1315 146.5 c 128,-1,17
 1360 63 1360 63 1437.4 63 c 0,18,19
 1514.8 63 1514.8 63 1558.9 146.5 c 128,-1,20
 1603 230 1603 230 1603 377 c 0,21,22
 1603 525 1603 525 1558.45 609.5 c 128,-1,23
 1513.9 694 1513.9 694 1437.4 694 c 0,12,13
1437.4 784 m 0,24,25
 1579.6 784 1579.6 784 1663.3 674 c 128,-1,26
 1747 564 1747 564 1747 377 c 0,27,28
 1747 190 1747 190 1662.85 80.5 c 128,-1,29
 1578.7 -29 1578.7 -29 1437.4 -29 c 0,30,31
 1293.4 -29 1293.4 -29 1209.7 80.5 c 128,-1,32
 1126 190 1126 190 1126 377 c 0,33,34
 1126 565 1126 565 1210.15 674.5 c 128,-1,35
 1294.3 784 1294.3 784 1437.4 784 c 0,24,25
1324.9 1520 m 1,36,-1
 1461.7 1520 l 1,37,-1
 621.1 -29 l 1,38,-1
 484.3 -29 l 1,39,-1
 1324.9 1520 l 1,36,-1
508.6 1520 m 0,40,41
 650.8 1520 650.8 1520 735.4 1410.5 c 128,-1,42
 820 1301 820 1301 820 1114 c 0,43,44
 820 925 820 925 735.85 816 c 128,-1,45
 651.7 707 651.7 707 508.6 707 c 0,46,47
 365.5 707 365.5 707 282.25 816.5 c 128,-1,48
 199 926 199 926 199 1114 c 0,49,50
 199 1300 199 1300 282.7 1410 c 128,-1,51
 366.4 1520 366.4 1520 508.6 1520 c 0,40,41
EndSplineSet
EndChar
StartChar: ampersand
Encoding: 38 38 38
Width: 1734
Flags: W
Fore
1089.05 231 m 1,0,-1
 565.25 844 l 1,1,2
 486.95 766 486.95 766 447.8 675.5 c 128,-1,3
 408.65 585 408.65 585 408.65 483 c 0,4,5
 408.65 317 408.65 317 512.15 204.5 c 128,-1,6
 615.65 92 615.65 92 770.45 92 c 0,7,8
 862.25 92 862.25 92 943.7 127.5 c 128,-1,9
 1025.15 163 1025.15 163 1089.05 231 c 1,0,-1
1647.05 0 m 1,10,-1
 1286.15 0 l 1,11,-1
 1162.85 145 l 1,12,13
 1068.35 57 1068.35 57 961.25 14 c 128,-1,14
 854.15 -29 854.15 -29 729.95 -29 c 0,15,16
 497.75 -29 497.75 -29 361.85 103 c 128,-1,17
 225.95 235 225.95 235 225.95 461 c 0,18,19
 225.95 594 225.95 594 294.8 709.5 c 128,-1,20
 363.65 825 363.65 825 503.15 926 c 1,21,22
 457.25 987 457.25 987 435.65 1047.5 c 128,-1,23
 414.05 1108 414.05 1108 414.05 1174 c 0,24,25
 414.05 1333 414.05 1333 517.1 1426.5 c 128,-1,26
 620.15 1520 620.15 1520 797.45 1520 c 0,27,28
 857.75 1520 857.75 1520 938.3 1503 c 128,-1,29
 1018.85 1486 1018.85 1486 1122.35 1452 c 1,30,-1
 1122.35 1194 l 1,31,-1
 1020.65 1194 l 1,32,33
 1008.05 1301 1008.05 1301 950.45 1357 c 128,-1,34
 892.85 1413 892.85 1413 793.85 1413 c 0,35,36
 701.15 1413 701.15 1413 643.55 1356.5 c 128,-1,37
 585.95 1300 585.95 1300 585.95 1210 c 0,38,39
 585.95 1149 585.95 1149 616.55 1088.5 c 128,-1,40
 647.15 1028 647.15 1028 744.35 915 c 2,41,-1
 1208.75 371 l 1,42,43
 1270.85 451 1270.85 451 1306.4 543.5 c 128,-1,44
 1341.95 636 1341.95 636 1350.95 741 c 1,45,-1
 1188.95 741 l 1,46,-1
 1188.95 848 l 1,47,-1
 1614.65 848 l 1,48,-1
 1614.65 741 l 1,49,-1
 1459.85 741 l 1,50,51
 1444.55 611 1444.55 611 1400 498 c 128,-1,52
 1355.45 385 1355.45 385 1280.75 289 c 1,53,-1
 1435.55 106 l 1,54,-1
 1647.05 106 l 1,55,-1
 1647.05 0 l 1,10,-1
EndSplineSet
EndChar
StartChar: quotesingle
Encoding: 39 39 39
Width: 534
Flags: W
Fore
352.05 1493 m 1,0,-1
 352.05 938 l 1,1,-1
 208.95 938 l 1,2,-1
 208.95 1493 l 1,3,-1
 352.05 1493 l 1,0,-1
EndSplineSet
EndChar
StartChar: parenleft
Encoding: 40 40 40
Width: 759
Flags: W
Fore
628.45 -319 m 1,0,1
 409.75 -210 409.75 -210 298.15 26.5 c 128,-1,2
 186.55 263 186.55 263 186.55 618 c 0,3,4
 186.55 974 186.55 974 298.15 1210.5 c 128,-1,5
 409.75 1447 409.75 1447 628.45 1556 c 1,6,-1
 628.45 1458 l 1,7,8
 489.85 1352 489.85 1352 429.55 1159.5 c 128,-1,9
 369.25 967 369.25 967 369.25 618 c 0,10,11
 369.25 270 369.25 270 429.55 77.5 c 128,-1,12
 489.85 -115 489.85 -115 628.45 -221 c 1,13,-1
 628.45 -319 l 1,0,1
EndSplineSet
EndChar
StartChar: parenright
Encoding: 41 41 41
Width: 758
Flags: W
Fore
169.6 -319 m 1,0,-1
 169.6 -221 l 1,1,2
 308.2 -115 308.2 -115 368.95 77.5 c 128,-1,3
 429.7 270 429.7 270 429.7 618 c 0,4,5
 429.7 967 429.7 967 368.95 1159.5 c 128,-1,6
 308.2 1352 308.2 1352 169.6 1458 c 1,7,-1
 169.6 1556 l 1,8,9
 389.2 1447 389.2 1447 500.8 1210.5 c 128,-1,10
 612.4 974 612.4 974 612.4 618 c 0,11,12
 612.4 263 612.4 263 500.8 26.5 c 128,-1,13
 389.2 -210 389.2 -210 169.6 -319 c 1,0,-1
EndSplineSet
EndChar
StartChar: asterisk
Encoding: 42 42 42
Width: 972
Flags: W
Fore
943.1 1237 m 1,0,-1
 591.2 1055 l 1,1,-1
 943.1 870 l 1,2,-1
 874.7 752 l 1,3,-1
 561.5 969 l 1,4,-1
 573.2 588 l 1,5,-1
 450.8 588 l 1,6,-1
 462.5 969 l 1,7,-1
 149.3 752 l 1,8,-1
 80.9004 870 l 1,9,-1
 432.8 1053 l 1,10,-1
 80.9004 1237 l 1,11,-1
 149.3 1356 l 1,12,-1
 462.5 1139 l 1,13,-1
 450.8 1520 l 1,14,-1
 573.2 1520 l 1,15,-1
 561.5 1139 l 1,16,-1
 874.7 1356 l 1,17,-1
 943.1 1237 l 1,0,-1
EndSplineSet
EndChar
StartChar: plus
Encoding: 43 43 43
Width: 1630
Flags: W
Fore
930 1284 m 1,0,-1
 930 723 l 1,1,-1
 1434.9 723 l 1,2,-1
 1434.9 561 l 1,3,-1
 930 561 l 1,4,-1
 930 0 l 1,5,-1
 786 0 l 1,6,-1
 786 561 l 1,7,-1
 281.1 561 l 1,8,-1
 281.1 723 l 1,9,-1
 786 723 l 1,10,-1
 786 1284 l 1,11,-1
 930 1284 l 1,0,-1
EndSplineSet
EndChar
StartChar: comma
Encoding: 44 44 44
Width: 612
Flags: W
Fore
92.9502 -199 m 1,0,1
 177.55 -130 177.55 -130 217.15 -36.5 c 128,-1,2
 256.75 57 256.75 57 256.75 190 c 2,3,-1
 256.75 227 l 1,4,-1
 434.05 227 l 1,5,6
 426.85 56 426.85 56 361.6 -66.5 c 128,-1,7
 296.35 -189 296.35 -189 164.95 -279 c 1,8,-1
 92.9502 -199 l 1,0,1
EndSplineSet
EndChar
StartChar: hyphen
Encoding: 45 45 45
Width: 657
Flags: W
Fore
115.6 627 m 1,0,-1
 576.4 627 l 1,1,-1
 576.4 471 l 1,2,-1
 115.6 471 l 1,3,-1
 115.6 627 l 1,0,-1
EndSplineSet
KernsSLIFO: 356 -73 0 0 221 -225 0 0 376 -225 0 0 89 -225 0 0 88 -73 0 0 87 -112 0 0 86 -149 0 0 84 -73 0 0
EndChar
StartChar: period
Encoding: 46 46 46
Width: 618
Flags: W
Fore
206.3 104 m 0,0,1
 206.3 160 206.3 160 240.5 199 c 128,-1,2
 274.7 238 274.7 238 326 238 c 0,3,4
 375.5 238 375.5 238 410.6 199 c 128,-1,5
 445.7 160 445.7 160 445.7 104 c 0,6,7
 445.7 49 445.7 49 410.6 10 c 128,-1,8
 375.5 -29 375.5 -29 326 -29 c 0,9,10
 274.7 -29 274.7 -29 240.5 9.5 c 128,-1,11
 206.3 48 206.3 48 206.3 104 c 0,0,1
EndSplineSet
EndChar
StartChar: slash
Encoding: 47 47 47
Width: 655
Flags: W
Fore
511.5 1493 m 1,0,-1
 655.5 1493 l 1,1,-1
 178.5 -190 l 1,2,-1
 34.5 -190 l 1,3,-1
 511.5 1493 l 1,0,-1
EndSplineSet
EndChar
StartChar: zero
Encoding: 48 48 48
Width: 1237
Flags: W
Fore
651 70 m 0,0,1
 788.7 70 788.7 70 857.1 238 c 128,-1,2
 925.5 406 925.5 406 925.5 745 c 0,3,4
 925.5 1085 925.5 1085 857.1 1253 c 128,-1,5
 788.7 1421 788.7 1421 651 1421 c 0,6,7
 513.3 1421 513.3 1421 444.9 1253 c 128,-1,8
 376.5 1085 376.5 1085 376.5 745 c 0,9,10
 376.5 406 376.5 406 444.9 238 c 128,-1,11
 513.3 70 513.3 70 651 70 c 0,0,1
651 -29 m 0,12,13
 432.3 -29 432.3 -29 309.45 175 c 128,-1,14
 186.6 379 186.6 379 186.6 745 c 0,15,16
 186.6 1112 186.6 1112 309.45 1316 c 128,-1,17
 432.3 1520 432.3 1520 651 1520 c 0,18,19
 870.6 1520 870.6 1520 993 1316 c 128,-1,20
 1115.4 1112 1115.4 1112 1115.4 745 c 0,21,22
 1115.4 379 1115.4 379 993 175 c 128,-1,23
 870.6 -29 870.6 -29 651 -29 c 0,12,13
EndSplineSet
EndChar
StartChar: one
Encoding: 49 49 49
Width: 1235
Flags: W
Fore
325 0 m 1,0,-1
 325 106 l 1,1,-1
 559 106 l 1,2,-1
 559 1348 l 1,3,-1
 288.1 1153 l 1,4,-1
 288.1 1284 l 1,5,-1
 615.7 1520 l 1,6,-1
 739.9 1520 l 1,7,-1
 739.9 106 l 1,8,-1
 973.9 106 l 1,9,-1
 973.9 0 l 1,10,-1
 325 0 l 1,0,-1
EndSplineSet
EndChar
StartChar: two
Encoding: 50 50 50
Width: 1234
Flags: W
Fore
297.85 1137 m 1,0,-1
 197.05 1137 l 1,1,-1
 197.05 1403 l 1,2,3
 293.35 1460 293.35 1460 391 1490 c 128,-1,4
 488.65 1520 488.65 1520 582.25 1520 c 0,5,6
 791.95 1520 791.95 1520 913.45 1407 c 128,-1,7
 1034.95 1294 1034.95 1294 1034.95 1100 c 0,8,9
 1034.95 881 1034.95 881 759.55 576 c 0,10,11
 737.95 553 737.95 553 727.15 541 c 2,12,-1
 387.85 164 l 1,13,-1
 948.55 164 l 1,14,-1
 948.55 348 l 1,15,-1
 1053.85 348 l 1,16,-1
 1053.85 0 l 1,17,-1
 187.15 0 l 1,18,-1
 187.15 109 l 1,19,-1
 594.85 561 l 2,20,21
 729.85 711 729.85 711 787.45 836.5 c 128,-1,22
 845.05 962 845.05 962 845.05 1100 c 0,23,24
 845.05 1251 845.05 1251 774.4 1336 c 128,-1,25
 703.75 1421 703.75 1421 579.55 1421 c 0,26,27
 450.85 1421 450.85 1421 380.65 1350 c 128,-1,28
 310.45 1279 310.45 1279 297.85 1137 c 1,0,-1
EndSplineSet
EndChar
StartChar: three
Encoding: 51 51 51
Width: 1238
Flags: W
Fore
244.45 1430 m 1,0,1
 349.75 1474 349.75 1474 446.5 1497 c 128,-1,2
 543.25 1520 543.25 1520 627.85 1520 c 0,3,4
 824.95 1520 824.95 1520 935.65 1425.5 c 128,-1,5
 1046.35 1331 1046.35 1331 1046.35 1163 c 0,6,7
 1046.35 1028 1046.35 1028 969.85 937.5 c 128,-1,8
 893.35 847 893.35 847 752.95 815 c 1,9,10
 918.55 789 918.55 789 1009.9 681.5 c 128,-1,11
 1101.25 574 1101.25 574 1101.25 403 c 0,12,13
 1101.25 194 1101.25 194 974.8 82.5 c 128,-1,14
 848.35 -29 848.35 -29 610.75 -29 c 0,15,16
 505.45 -29 505.45 -29 405.1 -4 c 128,-1,17
 304.75 21 304.75 21 205.75 72 c 1,18,-1
 205.75 362 l 1,19,-1
 306.55 362 l 1,20,21
 315.55 218 315.55 218 393.85 144 c 128,-1,22
 472.15 70 472.15 70 614.35 70 c 0,23,24
 752.05 70 752.05 70 831.7 158.5 c 128,-1,25
 911.35 247 911.35 247 911.35 401 c 0,26,27
 911.35 577 911.35 577 829.45 667.5 c 128,-1,28
 747.55 758 747.55 758 589.15 758 c 2,29,-1
 503.65 758 l 1,30,-1
 503.65 860 l 1,31,-1
 548.65 860 l 2,32,33
 706.15 860 706.15 860 784.9 932.5 c 128,-1,34
 863.65 1005 863.65 1005 863.65 1151 c 0,35,36
 863.65 1282 863.65 1282 798.85 1351.5 c 128,-1,37
 734.05 1421 734.05 1421 612.55 1421 c 0,38,39
 491.05 1421 491.05 1421 424 1357 c 128,-1,40
 356.95 1293 356.95 1293 345.25 1167 c 1,41,-1
 244.45 1167 l 1,42,-1
 244.45 1430 l 1,0,1
EndSplineSet
EndChar
StartChar: four
Encoding: 52 52 52
Width: 1235
Flags: W
Fore
706.65 506 m 1,0,-1
 706.65 1300 l 1,1,-1
 247.65 506 l 1,2,-1
 706.65 506 l 1,0,-1
1102.65 0 m 1,3,-1
 490.65 0 l 1,4,-1
 490.65 106 l 1,5,-1
 706.65 106 l 1,6,-1
 706.65 399 l 1,7,-1
 119.85 399 l 1,8,-1
 119.85 508 l 1,9,-1
 708.45 1520 l 1,10,-1
 886.65 1520 l 1,11,-1
 886.65 506 l 1,12,-1
 1143.15 506 l 1,13,-1
 1143.15 399 l 1,14,-1
 886.65 399 l 1,15,-1
 886.65 106 l 1,16,-1
 1102.65 106 l 1,17,-1
 1102.65 0 l 1,3,-1
EndSplineSet
EndChar
StartChar: five
Encoding: 53 53 53
Width: 1238
Flags: W
Fore
992.95 1493 m 1,0,-1
 992.95 1329 l 1,1,-1
 377.35 1329 l 1,2,-1
 377.35 901 l 1,3,4
 424.15 937 424.15 937 486.7 955 c 128,-1,5
 549.25 973 549.25 973 626.65 973 c 0,6,7
 844.45 973 844.45 973 970.45 839 c 128,-1,8
 1096.45 705 1096.45 705 1096.45 473 c 0,9,10
 1096.45 236 1096.45 236 969.1 103.5 c 128,-1,11
 841.75 -29 841.75 -29 611.35 -29 c 0,12,13
 518.65 -29 518.65 -29 421.45 -4 c 128,-1,14
 324.25 21 324.25 21 222.55 72 c 1,15,-1
 222.55 362 l 1,16,-1
 324.25 362 l 1,17,18
 332.35 220 332.35 220 405.7 145 c 128,-1,19
 479.05 70 479.05 70 611.35 70 c 0,20,21
 753.55 70 753.55 70 830.05 174 c 128,-1,22
 906.55 278 906.55 278 906.55 473 c 0,23,24
 906.55 667 906.55 667 830.5 770.5 c 128,-1,25
 754.45 874 754.45 874 611.35 874 c 0,26,27
 530.35 874 530.35 874 468.7 842 c 128,-1,28
 407.05 810 407.05 810 359.35 743 c 1,29,-1
 281.95 743 l 1,30,-1
 281.95 1493 l 1,31,-1
 992.95 1493 l 1,0,-1
EndSplineSet
EndChar
StartChar: six
Encoding: 54 54 54
Width: 1238
Flags: W
Fore
668.55 70 m 0,0,1
 795.45 70 795.45 70 863.85 173.5 c 128,-1,2
 932.25 277 932.25 277 932.25 471 c 0,3,4
 932.25 665 932.25 665 863.85 768.5 c 128,-1,5
 795.45 872 795.45 872 668.55 872 c 0,6,7
 539.85 872 539.85 872 472.35 772 c 128,-1,8
 404.85 672 404.85 672 404.85 483 c 0,9,10
 404.85 284 404.85 284 473.25 177 c 128,-1,11
 541.65 70 541.65 70 668.55 70 c 0,0,1
375.15 822 m 1,12,13
 436.35 897 436.35 897 513.75 934 c 128,-1,14
 591.15 971 591.15 971 688.35 971 c 0,15,16
 889.05 971 889.05 971 1005.6 837 c 128,-1,17
 1122.15 703 1122.15 703 1122.15 471 c 0,18,19
 1122.15 244 1122.15 244 996.6 107.5 c 128,-1,20
 871.05 -29 871.05 -29 661.35 -29 c 0,21,22
 433.65 -29 433.65 -29 311.25 159.5 c 128,-1,23
 188.85 348 188.85 348 188.85 698 c 0,24,25
 188.85 1090 188.85 1090 333.75 1305 c 128,-1,26
 478.65 1520 478.65 1520 742.35 1520 c 0,27,28
 813.45 1520 813.45 1520 891.75 1505 c 128,-1,29
 970.05 1490 970.05 1490 1051.95 1460 c 1,30,-1
 1051.95 1214 l 1,31,-1
 950.25 1214 l 1,32,33
 939.45 1315 939.45 1315 880.95 1368 c 128,-1,34
 822.45 1421 822.45 1421 723.45 1421 c 0,35,36
 548.85 1421 548.85 1421 463.35 1274 c 128,-1,37
 377.85 1127 377.85 1127 375.15 822 c 1,12,13
EndSplineSet
EndChar
StartChar: seven
Encoding: 55 55 55
Width: 1239
Flags: W
Fore
1105.85 1391 m 1,0,-1
 580.25 0 l 1,1,-1
 446.15 0 l 1,2,-1
 947.45 1329 l 1,3,-1
 326.45 1329 l 1,4,-1
 326.45 1145 l 1,5,-1
 221.15 1145 l 1,6,-1
 221.15 1493 l 1,7,-1
 1105.85 1493 l 1,8,-1
 1105.85 1391 l 1,0,-1
EndSplineSet
EndChar
StartChar: eight
Encoding: 56 56 56
Width: 1237
Flags: W
Fore
923.7 408 m 0,0,1
 923.7 568 923.7 568 852.15 656.5 c 128,-1,2
 780.6 745 780.6 745 651 745 c 0,3,4
 521.4 745 521.4 745 449.85 656.5 c 128,-1,5
 378.3 568 378.3 568 378.3 408 c 0,6,7
 378.3 247 378.3 247 449.85 158.5 c 128,-1,8
 521.4 70 521.4 70 651 70 c 0,9,10
 780.6 70 780.6 70 852.15 158.5 c 128,-1,11
 923.7 247 923.7 247 923.7 408 c 0,0,1
886.8 1133 m 0,12,13
 886.8 1269 886.8 1269 824.7 1345 c 128,-1,14
 762.6 1421 762.6 1421 651 1421 c 0,15,16
 540.3 1421 540.3 1421 477.75 1345 c 128,-1,17
 415.2 1269 415.2 1269 415.2 1133 c 0,18,19
 415.2 996 415.2 996 477.75 920 c 128,-1,20
 540.3 844 540.3 844 651 844 c 0,21,22
 762.6 844 762.6 844 824.7 920 c 128,-1,23
 886.8 996 886.8 996 886.8 1133 c 0,12,13
789.6 795 m 1,24,25
 942.6 772 942.6 772 1028.1 669.5 c 128,-1,26
 1113.6 567 1113.6 567 1113.6 408 c 0,27,28
 1113.6 198 1113.6 198 993.9 84.5 c 128,-1,29
 874.2 -29 874.2 -29 651 -29 c 0,30,31
 428.7 -29 428.7 -29 308.55 84.5 c 128,-1,32
 188.4 198 188.4 198 188.4 408 c 0,33,34
 188.4 567 188.4 567 273.9 669.5 c 128,-1,35
 359.4 772 359.4 772 513.3 795 c 1,36,37
 377.4 822 377.4 822 304.95 909.5 c 128,-1,38
 232.5 997 232.5 997 232.5 1133 c 0,39,40
 232.5 1313 232.5 1313 344.1 1416.5 c 128,-1,41
 455.7 1520 455.7 1520 651 1520 c 0,42,43
 846.3 1520 846.3 1520 957.9 1416.5 c 128,-1,44
 1069.5 1313 1069.5 1313 1069.5 1133 c 0,45,46
 1069.5 997 1069.5 997 997.05 909.5 c 128,-1,47
 924.6 822 924.6 822 789.6 795 c 1,24,25
EndSplineSet
EndChar
StartChar: nine
Encoding: 57 57 57
Width: 1237
Flags: W
Fore
926.9 669 m 1,0,1
 866.6 594 866.6 594 788.3 557 c 128,-1,2
 710 520 710 520 611.9 520 c 0,3,4
 412.1 520 412.1 520 296.45 654 c 128,-1,5
 180.8 788 180.8 788 180.8 1020 c 0,6,7
 180.8 1247 180.8 1247 306.35 1383.5 c 128,-1,8
 431.9 1520 431.9 1520 641.6 1520 c 0,9,10
 869.3 1520 869.3 1520 991.25 1331.5 c 128,-1,11
 1113.2 1143 1113.2 1143 1113.2 793 c 0,12,13
 1113.2 401 1113.2 401 968.3 186 c 128,-1,14
 823.4 -29 823.4 -29 560.6 -29 c 0,15,16
 489.5 -29 489.5 -29 411.2 -14 c 128,-1,17
 332.9 1 332.9 1 251 31 c 1,18,-1
 251 279 l 1,19,-1
 351.8 279 l 1,20,21
 363.5 178 363.5 178 422 124 c 128,-1,22
 480.5 70 480.5 70 578.6 70 c 0,23,24
 753.2 70 753.2 70 838.7 216.5 c 128,-1,25
 924.2 363 924.2 363 926.9 669 c 1,0,1
634.4 1421 m 0,26,27
 506.6 1421 506.6 1421 438.65 1317.5 c 128,-1,28
 370.7 1214 370.7 1214 370.7 1020 c 0,29,30
 370.7 826 370.7 826 438.65 722 c 128,-1,31
 506.6 618 506.6 618 634.4 618 c 0,32,33
 762.2 618 762.2 618 830.15 718.5 c 128,-1,34
 898.1 819 898.1 819 898.1 1008 c 0,35,36
 898.1 1207 898.1 1207 829.7 1314 c 128,-1,37
 761.3 1421 761.3 1421 634.4 1421 c 0,26,27
EndSplineSet
EndChar
StartChar: colon
Encoding: 58 58 58
Width: 655
Flags: W
Fore
226.3 104 m 0,0,1
 226.3 160 226.3 160 260.95 199 c 128,-1,2
 295.6 238 295.6 238 346 238 c 0,3,4
 396.4 238 396.4 238 431.05 199 c 128,-1,5
 465.7 160 465.7 160 465.7 104 c 0,6,7
 465.7 48 465.7 48 431.5 9.5 c 128,-1,8
 397.3 -29 397.3 -29 346 -29 c 0,9,10
 294.7 -29 294.7 -29 260.5 9.5 c 128,-1,11
 226.3 48 226.3 48 226.3 104 c 0,0,1
226.3 756 m 0,12,13
 226.3 812 226.3 812 260.95 850.5 c 128,-1,14
 295.6 889 295.6 889 346 889 c 0,15,16
 397.3 889 397.3 889 431.5 851 c 128,-1,17
 465.7 813 465.7 813 465.7 756 c 0,18,19
 465.7 699 465.7 699 431.5 661 c 128,-1,20
 397.3 623 397.3 623 346 623 c 0,21,22
 295.6 623 295.6 623 260.95 661.5 c 128,-1,23
 226.3 700 226.3 700 226.3 756 c 0,12,13
EndSplineSet
EndChar
StartChar: semicolon
Encoding: 59 59 59
Width: 648
Flags: W
Fore
94.4502 -199 m 1,0,1
 179.05 -130 179.05 -130 218.65 -36.5 c 128,-1,2
 258.25 57 258.25 57 258.25 190 c 2,3,-1
 258.25 227 l 1,4,-1
 435.55 227 l 1,5,6
 428.35 56 428.35 56 363.1 -66.5 c 128,-1,7
 297.85 -189 297.85 -189 166.45 -279 c 1,8,-1
 94.4502 -199 l 1,0,1
223.15 756 m 0,9,10
 223.15 812 223.15 812 257.8 850.5 c 128,-1,11
 292.45 889 292.45 889 342.85 889 c 0,12,13
 393.25 889 393.25 889 427.9 850 c 128,-1,14
 462.55 811 462.55 811 462.55 756 c 0,15,16
 462.55 700 462.55 700 427.9 661.5 c 128,-1,17
 393.25 623 393.25 623 342.85 623 c 0,18,19
 292.45 623 292.45 623 257.8 661.5 c 128,-1,20
 223.15 700 223.15 700 223.15 756 c 0,9,10
EndSplineSet
EndChar
StartChar: less
Encoding: 60 60 60
Width: 1630
Flags: W
Fore
1434.9 1020 m 1,0,-1
 500.7 641 l 1,1,-1
 1434.9 264 l 1,2,-1
 1434.9 94 l 1,3,-1
 281.1 559 l 1,4,-1
 281.1 725 l 1,5,-1
 1434.9 1190 l 1,6,-1
 1434.9 1020 l 1,0,-1
EndSplineSet
EndChar
StartChar: equal
Encoding: 61 61 61
Width: 1630
Flags: W
Fore
281.1 926 m 1,0,-1
 1434.9 926 l 1,1,-1
 1434.9 766 l 1,2,-1
 281.1 766 l 1,3,-1
 281.1 926 l 1,0,-1
281.1 518 m 1,4,-1
 1434.9 518 l 1,5,-1
 1434.9 358 l 1,6,-1
 281.1 358 l 1,7,-1
 281.1 518 l 1,4,-1
EndSplineSet
EndChar
StartChar: greater
Encoding: 62 62 62
Width: 1630
Flags: W
Fore
281.1 1020 m 1,0,-1
 281.1 1190 l 1,1,-1
 1434.9 725 l 1,2,-1
 1434.9 559 l 1,3,-1
 281.1 94 l 1,4,-1
 281.1 264 l 1,5,-1
 1215.3 641 l 1,6,-1
 281.1 1020 l 1,0,-1
EndSplineSet
EndChar
StartChar: question
Encoding: 63 63 63
Width: 1045
Flags: W
Fore
380.9 104 m 0,0,1
 380.9 160 380.9 160 415.55 199 c 128,-1,2
 450.2 238 450.2 238 501.5 238 c 0,3,4
 551 238 551 238 586.1 199 c 128,-1,5
 621.2 160 621.2 160 621.2 104 c 0,6,7
 621.2 49 621.2 49 586.1 10 c 128,-1,8
 551 -29 551 -29 501.5 -29 c 0,9,10
 450.2 -29 450.2 -29 415.55 9.5 c 128,-1,11
 380.9 48 380.9 48 380.9 104 c 0,0,1
182 1427 m 1,12,13
 277.4 1474 277.4 1474 363.35 1497 c 128,-1,14
 449.3 1520 449.3 1520 524.9 1520 c 0,15,16
 724.7 1520 724.7 1520 840.35 1413 c 128,-1,17
 956 1306 956 1306 956 1124 c 0,18,19
 956 938 956 938 856.55 820 c 128,-1,20
 757.1 702 757.1 702 556.4 651 c 1,21,-1
 556.4 397 l 1,22,-1
 445.7 397 l 1,23,-1
 445.7 725 l 1,24,25
 605 768 605 768 685.55 869 c 128,-1,26
 766.1 970 766.1 970 766.1 1126 c 0,27,28
 766.1 1263 766.1 1263 700.4 1342 c 128,-1,29
 634.7 1421 634.7 1421 521.3 1421 c 0,30,31
 418.7 1421 418.7 1421 353.45 1355.5 c 128,-1,32
 288.2 1290 288.2 1290 269.3 1167 c 1,33,-1
 182 1167 l 1,34,-1
 182 1427 l 1,12,13
EndSplineSet
EndChar
StartChar: at
Encoding: 64 64 64
Width: 1945
Flags: W
Fore
1266.5 248 m 1,0,1
 1213.4 166 1213.4 166 1147.25 126 c 128,-1,2
 1081.1 86 1081.1 86 997.4 86 c 0,3,4
 839.9 86 839.9 86 741.8 211 c 128,-1,5
 643.7 336 643.7 336 643.7 537 c 0,6,7
 643.7 738 643.7 738 741.8 862.5 c 128,-1,8
 839.9 987 839.9 987 997.4 987 c 0,9,10
 1081.1 987 1081.1 987 1147.25 947 c 128,-1,11
 1213.4 907 1213.4 907 1266.5 825 c 1,12,-1
 1266.5 967 l 1,13,-1
 1406.9 967 l 1,14,-1
 1406.9 195 l 1,15,16
 1559.9 232 1559.9 232 1644.5 357 c 128,-1,17
 1729.1 482 1729.1 482 1729.1 670 c 0,18,19
 1729.1 781 1729.1 781 1698.5 880 c 128,-1,20
 1667.9 979 1667.9 979 1607.6 1063 c 0,21,22
 1512.2 1196 1512.2 1196 1374.95 1266.5 c 128,-1,23
 1237.7 1337 1237.7 1337 1076.6 1337 c 0,24,25
 995.6 1337 995.6 1337 916.4 1318 c 128,-1,26
 837.2 1299 837.2 1299 759.8 1260 c 0,27,28
 578 1167 578 1167 477.2 978.5 c 128,-1,29
 376.4 790 376.4 790 376.4 543 c 0,30,31
 376.4 376 376.4 376 421.4 235.5 c 128,-1,32
 466.4 95 466.4 95 551.9 -8 c 0,33,34
 650 -127 650 -127 784.55 -189.5 c 128,-1,35
 919.1 -252 919.1 -252 1074.8 -252 c 0,36,37
 1190.9 -252 1190.9 -252 1291.7 -214 c 128,-1,38
 1392.5 -176 1392.5 -176 1478.9 -100 c 1,39,-1
 1526.6 -170 l 1,40,41
 1429.4 -263 1429.4 -263 1306.1 -309.5 c 128,-1,42
 1182.8 -356 1182.8 -356 1036.1 -356 c 0,43,44
 871.4 -356 871.4 -356 721.55 -289.5 c 128,-1,45
 571.7 -223 571.7 -223 459.2 -100 c 0,46,47
 343.1 27 343.1 27 283.25 190.5 c 128,-1,48
 223.4 354 223.4 354 223.4 543 c 0,49,50
 223.4 727 223.4 727 283.7 890 c 128,-1,51
 344 1053 344 1053 459.2 1180 c 0,52,53
 573.5 1306 573.5 1306 728.75 1374 c 128,-1,54
 884 1442 884 1442 1058.6 1442 c 0,55,56
 1251.2 1442 1251.2 1442 1410.05 1359 c 128,-1,57
 1568.9 1276 1568.9 1276 1676 1120 c 0,58,59
 1744.4 1022 1744.4 1022 1779.5 907 c 128,-1,60
 1814.6 792 1814.6 792 1814.6 668 c 0,61,62
 1814.6 400 1814.6 400 1667.9 244.5 c 128,-1,63
 1521.2 89 1521.2 89 1267.4 86 c 1,64,-1
 1266.5 248 l 1,0,1
1266.5 485 m 2,65,-1
 1266.5 590 l 2,66,67
 1266.5 715 1266.5 715 1202.15 792.5 c 128,-1,68
 1137.8 870 1137.8 870 1034.3 870 c 0,69,70
 925.4 870 925.4 870 864.65 782.5 c 128,-1,71
 803.9 695 803.9 695 803.9 537 c 0,72,73
 803.9 378 803.9 378 865.1 290.5 c 128,-1,74
 926.3 203 926.3 203 1036.1 203 c 0,75,76
 1138.7 203 1138.7 203 1202.6 281.5 c 128,-1,77
 1266.5 360 1266.5 360 1266.5 485 c 2,65,-1
EndSplineSet
EndChar
StartChar: A
Encoding: 65 65 65
Width: 1405
Flags: W
Fore
443.35 541 m 1,0,-1
 936.55 541 l 1,1,-1
 689.95 1251 l 1,2,-1
 443.35 541 l 1,0,-1
63.5498 0 m 1,3,-1
 63.5498 106 l 1,4,-1
 181.45 106 l 1,5,-1
 660.25 1493 l 1,6,-1
 811.45 1493 l 1,7,-1
 1291.15 106 l 1,8,-1
 1423.45 106 l 1,9,-1
 1423.45 0 l 1,10,-1
 934.75 0 l 1,11,-1
 934.75 106 l 1,12,-1
 1084.15 106 l 1,13,-1
 971.65 434 l 1,14,-1
 406.45 434 l 1,15,-1
 293.95 106 l 1,16,-1
 441.55 106 l 1,17,-1
 441.55 0 l 1,18,-1
 63.5498 0 l 1,3,-1
EndSplineSet
KernsSLIFO: 7923 -83 0 0 375 -83 0 0 7813 -92 0 0 7811 -92 0 0 7809 -92 0 0 373 -92 0 0 539 -36 0 0 355 -36 0 0 7922 -83 0 0 374 -83 0 0 562 -83 0 0 7812 -83 0 0 7810 -83 0 0 7808 -83 0 0 372 -83 0 0 538 -112 0 0 354 -112 0 0 357 -36 0 0 356 -112 0 0 253 -83 0 0 221 -83 0 0 64258 -36 0 0 64257 -36 0 0 376 -83 0 0 255 -83 0 0 8217 -301 0 0 8221 -301 0 0 121 -83 0 0 119 -92 0 0 118 -83 0 0 116 -36 0 0 102 -36 0 0 89 -83 0 0 87 -83 0 0 86 -102 0 0 84 -112 0 0
EndChar
StartChar: B
Encoding: 66 66 66
Width: 1429
Flags: W
Fore
530.05 106 m 1,0,-1
 799.15 106 l 2,1,2
 961.15 106 961.15 106 1035.85 184 c 128,-1,3
 1110.55 262 1110.55 262 1110.55 432 c 0,4,5
 1110.55 601 1110.55 601 1036.3 678.5 c 128,-1,6
 962.05 756 962.05 756 799.15 756 c 2,7,-1
 530.05 756 l 1,8,-1
 530.05 106 l 1,0,-1
530.05 862 m 1,9,-1
 758.65 862 l 2,10,11
 906.25 862 906.25 862 974.2 925 c 128,-1,12
 1042.15 988 1042.15 988 1042.15 1124 c 0,13,14
 1042.15 1261 1042.15 1261 974.2 1323.5 c 128,-1,15
 906.25 1386 906.25 1386 758.65 1386 c 2,16,-1
 530.05 1386 l 1,17,-1
 530.05 862 l 1,9,-1
176.35 0 m 1,18,-1
 176.35 106 l 1,19,-1
 347.35 106 l 1,20,-1
 347.35 1386 l 1,21,-1
 176.35 1386 l 1,22,-1
 176.35 1493 l 1,23,-1
 839.65 1493 l 2,24,25
 1043.05 1493 1043.05 1493 1146.1 1400.5 c 128,-1,26
 1249.15 1308 1249.15 1308 1249.15 1124 c 0,27,28
 1249.15 991 1249.15 991 1177.6 912 c 128,-1,29
 1106.05 833 1106.05 833 968.35 815 c 1,30,31
 1139.35 791 1139.35 791 1228 693.5 c 128,-1,32
 1316.65 596 1316.65 596 1316.65 432 c 0,33,34
 1316.65 210 1316.65 210 1190.65 105 c 128,-1,35
 1064.65 0 1064.65 0 797.35 0 c 2,36,-1
 176.35 0 l 1,18,-1
EndSplineSet
KernsSLIFO: 562 -36 0 0 374 -36 0 0 558 38 0 0 492 38 0 0 490 38 0 0 336 38 0 0 334 38 0 0 332 38 0 0 290 38 0 0 288 38 0 0 284 38 0 0 266 38 0 0 264 38 0 0 268 38 0 0 262 38 0 0 286 38 0 0 221 -36 0 0 210 38 0 0 212 38 0 0 211 38 0 0 376 -36 0 0 338 38 0 0 213 38 0 0 216 38 0 0 214 38 0 0 199 38 0 0 89 -36 0 0 79 38 0 0 71 38 0 0 67 38 0 0 45 38 0 0
EndChar
StartChar: C
Encoding: 67 67 67
Width: 1488
Flags: W
Fore
1377.55 395 m 1,0,1
 1318.15 186 1318.15 186 1178.2 78.5 c 128,-1,2
 1038.25 -29 1038.25 -29 824.05 -29 c 0,3,4
 692.65 -29 692.65 -29 580.15 21 c 128,-1,5
 467.65 71 467.65 71 380.35 168 c 0,6,7
 279.55 280 279.55 280 230.5 422.5 c 128,-1,8
 181.45 565 181.45 565 181.45 745 c 0,9,10
 181.45 1093 181.45 1093 362.35 1306.5 c 128,-1,11
 543.25 1520 543.25 1520 839.35 1520 c 0,12,13
 949.15 1520 949.15 1520 1073.35 1488 c 128,-1,14
 1197.55 1456 1197.55 1456 1340.65 1391 c 1,15,-1
 1340.65 1047 l 1,16,-1
 1238.95 1047 l 1,17,18
 1205.65 1235 1205.65 1235 1105.3 1324 c 128,-1,19
 1004.95 1413 1004.95 1413 824.05 1413 c 0,20,21
 608.95 1413 608.95 1413 498.25 1243.5 c 128,-1,22
 387.55 1074 387.55 1074 387.55 745 c 0,23,24
 387.55 417 387.55 417 498.25 247.5 c 128,-1,25
 608.95 78 608.95 78 824.05 78 c 0,26,27
 974.35 78 974.35 78 1071.55 157.5 c 128,-1,28
 1168.75 237 1168.75 237 1211.95 395 c 1,29,-1
 1377.55 395 l 1,0,1
EndSplineSet
KernsSLIFO: 46 -73 0 0 44 -73 0 0
EndChar
StartChar: D
Encoding: 68 68 68
Width: 1559
Flags: W
Fore
537.25 106 m 1,0,-1
 704.65 106 l 2,1,2
 966.55 106 966.55 106 1106.5 272 c 128,-1,3
 1246.45 438 1246.45 438 1246.45 748 c 0,4,5
 1246.45 1058 1246.45 1058 1106.95 1222 c 128,-1,6
 967.45 1386 967.45 1386 704.65 1386 c 2,7,-1
 537.25 1386 l 1,8,-1
 537.25 106 l 1,0,-1
183.55 0 m 1,9,-1
 183.55 106 l 1,10,-1
 354.55 106 l 1,11,-1
 354.55 1386 l 1,12,-1
 183.55 1386 l 1,13,-1
 183.55 1493 l 1,14,-1
 718.15 1493 l 2,15,16
 1065.55 1493 1065.55 1493 1259.5 1296 c 128,-1,17
 1453.45 1099 1453.45 1099 1453.45 748 c 0,18,19
 1453.45 396 1453.45 396 1259.05 198 c 128,-1,20
 1064.65 0 1064.65 0 718.15 0 c 2,21,-1
 183.55 0 l 1,9,-1
EndSplineSet
KernsSLIFO: 86 -36 0 0 46 -73 0 0 45 38 0 0 44 -73 0 0
EndChar
StartChar: E
Encoding: 69 69 69
Width: 1417
Flags: W
Fore
173.9 0 m 1,0,-1
 173.9 106 l 1,1,-1
 344.9 106 l 1,2,-1
 344.9 1386 l 1,3,-1
 173.9 1386 l 1,4,-1
 173.9 1493 l 1,5,-1
 1255.7 1493 l 1,6,-1
 1255.7 1161 l 1,7,-1
 1145 1161 l 1,8,-1
 1145 1370 l 1,9,-1
 527.6 1370 l 1,10,-1
 527.6 870 l 1,11,-1
 967.7 870 l 1,12,-1
 967.7 1057 l 1,13,-1
 1078.4 1057 l 1,14,-1
 1078.4 561 l 1,15,-1
 967.7 561 l 1,16,-1
 967.7 748 l 1,17,-1
 527.6 748 l 1,18,-1
 527.6 123 l 1,19,-1
 1159.4 123 l 1,20,-1
 1159.4 332 l 1,21,-1
 1270.1 332 l 1,22,-1
 1270.1 0 l 1,23,-1
 173.9 0 l 1,0,-1
EndSplineSet
KernsSLIFO: 45 38 0 0
EndChar
StartChar: F
Encoding: 70 70 70
Width: 1351
Flags: W
Fore
174.1 0 m 1,0,-1
 174.1 106 l 1,1,-1
 345.1 106 l 1,2,-1
 345.1 1386 l 1,3,-1
 174.1 1386 l 1,4,-1
 174.1 1493 l 1,5,-1
 1273.9 1493 l 1,6,-1
 1273.9 1161 l 1,7,-1
 1163.2 1161 l 1,8,-1
 1163.2 1370 l 1,9,-1
 527.8 1370 l 1,10,-1
 527.8 870 l 1,11,-1
 986.8 870 l 1,12,-1
 986.8 1057 l 1,13,-1
 1097.5 1057 l 1,14,-1
 1097.5 561 l 1,15,-1
 986.8 561 l 1,16,-1
 986.8 748 l 1,17,-1
 527.8 748 l 1,18,-1
 527.8 106 l 1,19,-1
 742.9 106 l 1,20,-1
 742.9 0 l 1,21,-1
 174.1 0 l 1,0,-1
EndSplineSet
KernsSLIFO: 283 -112 0 0 193 -178 0 0 194 -178 0 0 339 -112 0 0 195 -178 0 0 192 -178 0 0 248 -112 0 0 230 -139 0 0 245 -112 0 0 246 -112 0 0 244 -112 0 0 242 -112 0 0 243 -112 0 0 235 -112 0 0 234 -112 0 0 232 -112 0 0 233 -112 0 0 229 -139 0 0 227 -139 0 0 228 -139 0 0 226 -139 0 0 224 -139 0 0 225 -139 0 0 196 -178 0 0 111 -112 0 0 101 -112 0 0 97 -139 0 0 65 -178 0 0 59 -73 0 0 58 -73 0 0 46 -319 0 0 45 -92 0 0 44 -319 0 0
EndChar
StartChar: G
Encoding: 71 71 71
Width: 1551
Flags: W
Fore
1259.4 1047 m 1,0,1
 1227.9 1234 1227.9 1234 1128 1323.5 c 128,-1,2
 1028.1 1413 1028.1 1413 849.9 1413 c 0,3,4
 617.7 1413 617.7 1413 503.4 1247 c 128,-1,5
 389.1 1081 389.1 1081 389.1 745 c 0,6,7
 389.1 416 389.1 416 507 247 c 128,-1,8
 624.9 78 624.9 78 853.5 78 c 0,9,10
 955.2 78 955.2 78 1047.9 106 c 128,-1,11
 1140.6 134 1140.6 134 1224.3 190 c 1,12,-1
 1224.3 575 l 1,13,-1
 971.4 575 l 1,14,-1
 971.4 682 l 1,15,-1
 1407 682 l 1,16,-1
 1407 125 l 1,17,18
 1287.3 48 1287.3 48 1149.15 9.5 c 128,-1,19
 1011 -29 1011 -29 853.5 -29 c 0,20,21
 549.3 -29 549.3 -29 366.15 182.5 c 128,-1,22
 183 394 183 394 183 745 c 0,23,24
 183 1099 183 1099 366.6 1309.5 c 128,-1,25
 550.2 1520 550.2 1520 860.7 1520 c 0,26,27
 975.9 1520 975.9 1520 1098.75 1490.5 c 128,-1,28
 1221.6 1461 1221.6 1461 1360.2 1401 c 1,29,-1
 1360.2 1047 l 1,30,-1
 1259.4 1047 l 1,0,1
EndSplineSet
KernsSLIFO: 221 -36 0 0 376 -36 0 0 89 -36 0 0 46 -73 0 0 45 38 0 0 44 -73 0 0
EndChar
StartChar: H
Encoding: 72 72 72
Width: 1696
Flags: W
Fore
191 0 m 1,0,-1
 191 106 l 1,1,-1
 362 106 l 1,2,-1
 362 1386 l 1,3,-1
 191 1386 l 1,4,-1
 191 1493 l 1,5,-1
 715.7 1493 l 1,6,-1
 715.7 1386 l 1,7,-1
 544.7 1386 l 1,8,-1
 544.7 870 l 1,9,-1
 1241.3 870 l 1,10,-1
 1241.3 1386 l 1,11,-1
 1070.3 1386 l 1,12,-1
 1070.3 1493 l 1,13,-1
 1595 1493 l 1,14,-1
 1595 1386 l 1,15,-1
 1424 1386 l 1,16,-1
 1424 106 l 1,17,-1
 1595 106 l 1,18,-1
 1595 0 l 1,19,-1
 1070.3 0 l 1,20,-1
 1070.3 106 l 1,21,-1
 1241.3 106 l 1,22,-1
 1241.3 748 l 1,23,-1
 544.7 748 l 1,24,-1
 544.7 106 l 1,25,-1
 715.7 106 l 1,26,-1
 715.7 0 l 1,27,-1
 191 0 l 1,0,-1
EndSplineSet
EndChar
StartChar: I
Encoding: 73 73 73
Width: 768
Flags: W
Fore
495.85 106 m 1,0,-1
 666.85 106 l 1,1,-1
 666.85 0 l 1,2,-1
 142.15 0 l 1,3,-1
 142.15 106 l 1,4,-1
 313.15 106 l 1,5,-1
 313.15 1386 l 1,6,-1
 142.15 1386 l 1,7,-1
 142.15 1493 l 1,8,-1
 666.85 1493 l 1,9,-1
 666.85 1386 l 1,10,-1
 495.85 1386 l 1,11,-1
 495.85 106 l 1,0,-1
EndSplineSet
EndChar
StartChar: J
Encoding: 74 74 74
Width: 766
Flags: W
Fore
-127.05 -358 m 1,0,-1
 -127.05 -123 l 1,1,-1
 -24.4502 -123 l 1,2,3
 -21.75 -222 -21.75 -222 17.8496 -270.5 c 128,-1,4
 57.4502 -319 57.4502 -319 136.65 -319 c 0,5,6
 243.75 -319 243.75 -319 286.05 -244 c 128,-1,7
 328.35 -169 328.35 -169 328.35 49 c 2,8,-1
 328.35 1386 l 1,9,-1
 119.55 1386 l 1,10,-1
 119.55 1493 l 1,11,-1
 682.05 1493 l 1,12,-1
 682.05 1386 l 1,13,-1
 511.05 1386 l 1,14,-1
 511.05 41 l 2,15,16
 511.05 -206 511.05 -206 421.95 -316 c 128,-1,17
 332.85 -426 332.85 -426 134.85 -426 c 0,18,19
 70.9502 -426 70.9502 -426 4.7998 -409 c 128,-1,20
 -61.3496 -392 -61.3496 -392 -127.05 -358 c 1,0,-1
EndSplineSet
KernsSLIFO: 59 -83 0 0 58 -83 0 0 46 -159 0 0 44 -120 0 0
EndChar
StartChar: K
Encoding: 75 75 75
Width: 1460
Flags: W
Fore
185.4 0 m 1,0,-1
 185.4 106 l 1,1,-1
 356.4 106 l 1,2,-1
 356.4 1386 l 1,3,-1
 185.4 1386 l 1,4,-1
 185.4 1493 l 1,5,-1
 710.1 1493 l 1,6,-1
 710.1 1386 l 1,7,-1
 539.1 1386 l 1,8,-1
 539.1 821 l 1,9,-1
 1117.8 1386 l 1,10,-1
 972 1386 l 1,11,-1
 972 1493 l 1,12,-1
 1418.4 1493 l 1,13,-1
 1418.4 1386 l 1,14,-1
 1267.2 1386 l 1,15,-1
 690.3 823 l 1,16,-1
 1335.6 106 l 1,17,-1
 1488.6 106 l 1,18,-1
 1488.6 0 l 1,19,-1
 1176.3 0 l 1,20,-1
 539.1 709 l 1,21,-1
 539.1 106 l 1,22,-1
 710.1 106 l 1,23,-1
 710.1 0 l 1,24,-1
 185.4 0 l 1,0,-1
EndSplineSet
KernsSLIFO: 367 -45 0 0 366 -73 0 0 283 -55 0 0 268 -55 0 0 262 -55 0 0 253 -131 0 0 221 -55 0 0 217 -73 0 0 219 -73 0 0 218 -73 0 0 210 -55 0 0 212 -55 0 0 211 -55 0 0 193 -83 0 0 194 -83 0 0 376 -55 0 0 255 -131 0 0 339 -55 0 0 338 -55 0 0 213 -55 0 0 195 -83 0 0 192 -83 0 0 248 -36 0 0 216 -55 0 0 252 -45 0 0 251 -45 0 0 249 -45 0 0 250 -45 0 0 245 -55 0 0 246 -55 0 0 244 -55 0 0 242 -55 0 0 243 -55 0 0 235 -55 0 0 234 -55 0 0 232 -55 0 0 233 -55 0 0 220 -73 0 0 214 -55 0 0 199 -55 0 0 196 -83 0 0 121 -131 0 0 117 -45 0 0 111 -55 0 0 101 -55 0 0 89 -55 0 0 87 -73 0 0 85 -73 0 0 79 -55 0 0 67 -55 0 0 65 -83 0 0 45 -149 0 0
EndChar
StartChar: L
Encoding: 76 76 76
Width: 1295
Flags: W
Fore
172.9 0 m 1,0,-1
 172.9 106 l 1,1,-1
 343.9 106 l 1,2,-1
 343.9 1386 l 1,3,-1
 172.9 1386 l 1,4,-1
 172.9 1493 l 1,5,-1
 697.6 1493 l 1,6,-1
 697.6 1386 l 1,7,-1
 526.6 1386 l 1,8,-1
 526.6 123 l 1,9,-1
 1140.4 123 l 1,10,-1
 1140.4 373 l 1,11,-1
 1251.1 373 l 1,12,-1
 1251.1 0 l 1,13,-1
 172.9 0 l 1,0,-1
EndSplineSet
KernsSLIFO: 366 -112 0 0 356 -167 0 0 253 -36 0 0 221 -131 0 0 217 -112 0 0 219 -112 0 0 218 -112 0 0 376 -131 0 0 255 -36 0 0 8217 -491 0 0 8221 -491 0 0 220 -112 0 0 121 -36 0 0 89 -131 0 0 87 -178 0 0 86 -243 0 0 85 -112 0 0 84 -167 0 0
EndChar
StartChar: M
Encoding: 77 77 77
Width: 1992
Flags: W
Fore
206.45 0 m 1,0,-1
 206.45 106 l 1,1,-1
 377.45 106 l 1,2,-1
 377.45 1386 l 1,3,-1
 196.55 1386 l 1,4,-1
 196.55 1493 l 1,5,-1
 588.05 1493 l 1,6,-1
 1059.65 430 l 1,7,-1
 1531.25 1493 l 1,8,-1
 1898.45 1493 l 1,9,-1
 1898.45 1386 l 1,10,-1
 1719.35 1386 l 1,11,-1
 1719.35 106 l 1,12,-1
 1891.25 106 l 1,13,-1
 1891.25 0 l 1,14,-1
 1365.65 0 l 1,15,-1
 1365.65 106 l 1,16,-1
 1536.65 106 l 1,17,-1
 1536.65 1260 l 1,18,-1
 1075.85 219 l 1,19,-1
 948.95 219 l 1,20,-1
 488.15 1260 l 1,21,-1
 488.15 106 l 1,22,-1
 659.15 106 l 1,23,-1
 659.15 0 l 1,24,-1
 206.45 0 l 1,0,-1
EndSplineSet
EndChar
StartChar: N
Encoding: 78 78 78
Width: 1702
Flags: W
Fore
180.1 0 m 1,0,-1
 180.1 106 l 1,1,-1
 361 106 l 1,2,-1
 361 1386 l 1,3,-1
 180.1 1386 l 1,4,-1
 180.1 1493 l 1,5,-1
 524.8 1493 l 1,6,-1
 1330.3 315 l 1,7,-1
 1330.3 1386 l 1,8,-1
 1150.3 1386 l 1,9,-1
 1150.3 1493 l 1,10,-1
 1621.9 1493 l 1,11,-1
 1621.9 1386 l 1,12,-1
 1441 1386 l 1,13,-1
 1441 -29 l 1,14,-1
 1332.1 -29 l 1,15,-1
 471.7 1229 l 1,16,-1
 471.7 106 l 1,17,-1
 652.6 106 l 1,18,-1
 652.6 0 l 1,19,-1
 180.1 0 l 1,0,-1
EndSplineSet
KernsSLIFO: 59 -73 0 0 58 -73 0 0 46 -131 0 0 44 -131 0 0
EndChar
StartChar: O
Encoding: 79 79 79
Width: 1595
Flags: W
Fore
840 78 m 0,0,1
 1060.5 78 1060.5 78 1173 246.5 c 128,-1,2
 1285.5 415 1285.5 415 1285.5 745 c 0,3,4
 1285.5 1076 1285.5 1076 1173 1244.5 c 128,-1,5
 1060.5 1413 1060.5 1413 840 1413 c 0,6,7
 618.6 1413 618.6 1413 506.1 1244.5 c 128,-1,8
 393.6 1076 393.6 1076 393.6 745 c 0,9,10
 393.6 415 393.6 415 506.1 246.5 c 128,-1,11
 618.6 78 618.6 78 840 78 c 0,0,1
840 -29 m 0,12,13
 703.2 -29 703.2 -29 588.45 21 c 128,-1,14
 473.7 71 473.7 71 386.4 168 c 0,15,16
 285.6 280 285.6 280 236.55 422 c 128,-1,17
 187.5 564 187.5 564 187.5 745 c 0,18,19
 187.5 926 187.5 926 236.55 1068.5 c 128,-1,20
 285.6 1211 285.6 1211 386.4 1323 c 0,21,22
 474.6 1421 474.6 1421 588 1470.5 c 128,-1,23
 701.4 1520 701.4 1520 840 1520 c 0,24,25
 1132.5 1520 1132.5 1520 1312.5 1307 c 128,-1,26
 1492.5 1094 1492.5 1094 1492.5 745 c 0,27,28
 1492.5 566 1492.5 566 1443 422.5 c 128,-1,29
 1393.5 279 1393.5 279 1292.7 168 c 0,30,31
 1204.5 70 1204.5 70 1091.1 20.5 c 128,-1,32
 977.7 -29 977.7 -29 840 -29 c 0,12,13
EndSplineSet
KernsSLIFO: 88 -36 0 0 86 -36 0 0 46 -120 0 0 45 75 0 0 44 -120 0 0
EndChar
StartChar: P
Encoding: 80 80 80
Width: 1311
Flags: W
Fore
526.3 760 m 1,0,-1
 763.9 760 l 2,1,2
 898 760 898 760 968.2 840.5 c 128,-1,3
 1038.4 921 1038.4 921 1038.4 1073 c 0,4,5
 1038.4 1226 1038.4 1226 968.2 1306 c 128,-1,6
 898 1386 898 1386 763.9 1386 c 2,7,-1
 526.3 1386 l 1,8,-1
 526.3 760 l 1,0,-1
172.6 0 m 1,9,-1
 172.6 106 l 1,10,-1
 343.6 106 l 1,11,-1
 343.6 1386 l 1,12,-1
 172.6 1386 l 1,13,-1
 172.6 1493 l 1,14,-1
 808 1493 l 2,15,16
 1009.6 1493 1009.6 1493 1127.5 1379.5 c 128,-1,17
 1245.4 1266 1245.4 1266 1245.4 1073 c 0,18,19
 1245.4 881 1245.4 881 1127.5 767 c 128,-1,20
 1009.6 653 1009.6 653 808 653 c 2,21,-1
 526.3 653 l 1,22,-1
 526.3 106 l 1,23,-1
 734.2 106 l 1,24,-1
 734.2 0 l 1,25,-1
 172.6 0 l 1,9,-1
EndSplineSet
KernsSLIFO: 366 -36 0 0 283 -92 0 0 351 -55 0 0 353 -55 0 0 217 -36 0 0 219 -36 0 0 218 -36 0 0 193 -188 0 0 194 -188 0 0 339 -83 0 0 195 -188 0 0 192 -188 0 0 248 -83 0 0 230 -92 0 0 245 -83 0 0 246 -83 0 0 244 -83 0 0 242 -83 0 0 243 -83 0 0 235 -92 0 0 234 -92 0 0 232 -92 0 0 233 -92 0 0 229 -92 0 0 227 -92 0 0 228 -92 0 0 226 -92 0 0 224 -92 0 0 225 -92 0 0 220 -36 0 0 196 -188 0 0 115 -55 0 0 111 -83 0 0 101 -92 0 0 97 -92 0 0 85 -36 0 0 65 -188 0 0 59 -73 0 0 58 -73 0 0 46 -415 0 0 45 -112 0 0 44 -415 0 0
EndChar
StartChar: Q
Encoding: 81 81 81
Width: 1595
Flags: W
Fore
861.6 -29 m 1,0,1
 552.9 -29 552.9 -29 370.2 181.5 c 128,-1,2
 187.5 392 187.5 392 187.5 745 c 0,3,4
 187.5 926 187.5 926 236.55 1068.5 c 128,-1,5
 285.6 1211 285.6 1211 386.4 1323 c 0,6,7
 474.6 1421 474.6 1421 588 1470.5 c 128,-1,8
 701.4 1520 701.4 1520 840 1520 c 0,9,10
 1132.5 1520 1132.5 1520 1312.5 1307 c 128,-1,11
 1492.5 1094 1492.5 1094 1492.5 745 c 0,12,13
 1492.5 449 1492.5 449 1357.5 247.5 c 128,-1,14
 1222.5 46 1222.5 46 984.9 -12 c 1,15,16
 1033.5 -79 1033.5 -79 1103.25 -111 c 128,-1,17
 1173 -143 1173 -143 1271.1 -143 c 2,18,-1
 1299 -143 l 1,19,-1
 1299 -328 l 1,20,21
 1146.9 -320 1146.9 -320 1038.45 -245.5 c 128,-1,22
 930 -171 930 -171 861.6 -29 c 1,0,1
840 78 m 0,23,24
 1060.5 78 1060.5 78 1173 246.5 c 128,-1,25
 1285.5 415 1285.5 415 1285.5 745 c 0,26,27
 1285.5 1076 1285.5 1076 1173 1244.5 c 128,-1,28
 1060.5 1413 1060.5 1413 840 1413 c 0,29,30
 618.6 1413 618.6 1413 506.1 1244.5 c 128,-1,31
 393.6 1076 393.6 1076 393.6 745 c 0,32,33
 393.6 415 393.6 415 506.1 246.5 c 128,-1,34
 618.6 78 618.6 78 840 78 c 0,23,24
EndSplineSet
KernsSLIFO: 8217 38 0 0 8221 38 0 0 46 -102 0 0 45 75 0 0 44 -102 0 0
EndChar
StartChar: R
Encoding: 82 82 82
Width: 1473
Flags: W
Fore
968.1 741 m 1,0,1
 1031.1 722 1031.1 722 1076.55 676.5 c 128,-1,2
 1122 631 1122 631 1158 549 c 2,3,-1
 1353.3 106 l 1,4,-1
 1517.1 106 l 1,5,-1
 1517.1 0 l 1,6,-1
 1200.3 0 l 1,7,-1
 990.6 475 l 1,8,9
 930.3 613 930.3 613 879.9 653.5 c 128,-1,10
 829.5 694 829.5 694 741.3 694 c 2,11,-1
 540.6 694 l 1,12,-1
 540.6 106 l 1,13,-1
 730.5 106 l 1,14,-1
 730.5 0 l 1,15,-1
 186.9 0 l 1,16,-1
 186.9 106 l 1,17,-1
 357.9 106 l 1,18,-1
 357.9 1386 l 1,19,-1
 186.9 1386 l 1,20,-1
 186.9 1493 l 1,21,-1
 868.2 1493 l 2,22,23
 1064.4 1493 1064.4 1493 1171.05 1389 c 128,-1,24
 1277.7 1285 1277.7 1285 1277.7 1094 c 0,25,26
 1277.7 940 1277.7 940 1199.85 851.5 c 128,-1,27
 1122 763 1122 763 968.1 741 c 1,0,1
540.6 801 m 1,28,-1
 806.1 801 l 2,29,30
 942 801 942 801 1006.8 872.5 c 128,-1,31
 1071.6 944 1071.6 944 1071.6 1094 c 0,32,33
 1071.6 1244 1071.6 1244 1006.8 1315 c 128,-1,34
 942 1386 942 1386 806.1 1386 c 2,35,-1
 540.6 1386 l 1,36,-1
 540.6 801 l 1,28,-1
EndSplineSet
KernsSLIFO: 356 -36 0 0 253 -36 0 0 221 -63 0 0 376 -63 0 0 255 -36 0 0 8217 -112 0 0 8221 -112 0 0 248 38 0 0 230 47 0 0 229 47 0 0 227 47 0 0 228 47 0 0 226 47 0 0 224 47 0 0 225 47 0 0 121 -36 0 0 97 47 0 0 89 -63 0 0 87 -45 0 0 86 -73 0 0 84 -36 0 0
EndChar
StartChar: S
Encoding: 83 83 83
Width: 1333
Flags: W
Fore
242.25 72 m 1,0,-1
 242.25 412 l 1,1,-1
 345.75 411 l 1,2,3
 350.25 241 350.25 241 434.4 159.5 c 128,-1,4
 518.55 78 518.55 78 690.45 78 c 0,5,6
 850.65 78 850.65 78 934.8 148.5 c 128,-1,7
 1018.95 219 1018.95 219 1018.95 354 c 0,8,9
 1018.95 462 1018.95 462 968.1 520 c 128,-1,10
 917.25 578 917.25 578 753.45 633 c 2,11,-1
 576.15 692 l 2,12,13
 383.55 757 383.55 757 304.8 854 c 128,-1,14
 226.05 951 226.05 951 226.05 1120 c 0,15,16
 226.05 1310 226.05 1310 347.55 1415 c 128,-1,17
 469.05 1520 469.05 1520 688.65 1520 c 0,18,19
 782.25 1520 782.25 1520 893.85 1497.5 c 128,-1,20
 1005.45 1475 1005.45 1475 1131.45 1432 c 1,21,-1
 1131.45 1114 l 1,22,-1
 1029.75 1114 l 1,23,24
 1014.45 1272 1014.45 1272 934.8 1342.5 c 128,-1,25
 855.15 1413 855.15 1413 692.25 1413 c 0,26,27
 550.05 1413 550.05 1413 475.8 1348.5 c 128,-1,28
 401.55 1284 401.55 1284 401.55 1161 c 0,29,30
 401.55 1054 401.55 1054 457.35 993 c 128,-1,31
 513.15 932 513.15 932 694.05 872 c 2,32,-1
 860.55 817 l 2,33,34
 1043.25 756 1043.25 756 1121.1 661.5 c 128,-1,35
 1198.95 567 1198.95 567 1198.95 408 c 0,36,37
 1198.95 191 1198.95 191 1073.85 81 c 128,-1,38
 948.75 -29 948.75 -29 701.25 -29 c 0,39,40
 590.55 -29 590.55 -29 475.8 -4 c 128,-1,41
 361.05 21 361.05 21 242.25 72 c 1,0,-1
EndSplineSet
KernsSLIFO: 350 -36 0 0 352 -36 0 0 83 -36 0 0 46 -73 0 0 45 75 0 0 44 -73 0 0
EndChar
StartChar: T
Encoding: 84 84 84
Width: 1297
Flags: W
Fore
420.2 0 m 1,0,-1
 420.2 106 l 1,1,-1
 592.1 106 l 1,2,-1
 592.1 1374 l 1,3,-1
 197 1374 l 1,4,-1
 197 1141 l 1,5,-1
 86.2998 1141 l 1,6,-1
 86.2998 1493 l 1,7,-1
 1279.7 1493 l 1,8,-1
 1279.7 1141 l 1,9,-1
 1169 1141 l 1,10,-1
 1169 1374 l 1,11,-1
 773.9 1374 l 1,12,-1
 773.9 106 l 1,13,-1
 945.8 106 l 1,14,-1
 945.8 0 l 1,15,-1
 420.2 0 l 1,0,-1
EndSplineSet
KernsSLIFO: 356 38 0 0 283 -159 0 0 269 -159 0 0 263 -159 0 0 351 -149 0 0 353 -149 0 0 193 -112 0 0 194 -112 0 0 339 -159 0 0 195 -112 0 0 192 -112 0 0 248 -159 0 0 230 -159 0 0 245 -159 0 0 246 -159 0 0 244 -159 0 0 242 -159 0 0 243 -159 0 0 235 -159 0 0 234 -159 0 0 232 -159 0 0 233 -159 0 0 231 -159 0 0 229 -159 0 0 227 -159 0 0 228 -159 0 0 226 -159 0 0 224 -159 0 0 225 -159 0 0 196 -112 0 0 119 -73 0 0 115 -149 0 0 111 -159 0 0 101 -159 0 0 99 -159 0 0 97 -159 0 0 84 38 0 0 65 -112 0 0 59 -73 0 0 58 -73 0 0 46 -301 0 0 45 -264 0 0 44 -301 0 0
EndChar
StartChar: U
Encoding: 85 85 85
Width: 1639
Flags: W
Fore
344.8 1386 m 1,0,-1
 172.9 1386 l 1,1,-1
 172.9 1493 l 1,2,-1
 698.5 1493 l 1,3,-1
 698.5 1386 l 1,4,-1
 526.6 1386 l 1,5,-1
 526.6 614 l 2,6,7
 526.6 328 526.6 328 610.75 215 c 128,-1,8
 694.9 102 694.9 102 901 102 c 0,9,10
 1107.1 102 1107.1 102 1191.25 215 c 128,-1,11
 1275.4 328 1275.4 328 1275.4 614 c 2,12,-1
 1275.4 1386 l 1,13,-1
 1103.5 1386 l 1,14,-1
 1103.5 1493 l 1,15,-1
 1557.1 1493 l 1,16,-1
 1557.1 1386 l 1,17,-1
 1386.1 1386 l 1,18,-1
 1386.1 594 l 2,19,20
 1386.1 253 1386.1 253 1268.2 112 c 128,-1,21
 1150.3 -29 1150.3 -29 867.7 -29 c 0,22,23
 585.1 -29 585.1 -29 464.95 113 c 128,-1,24
 344.8 255 344.8 255 344.8 594 c 2,25,-1
 344.8 1386 l 1,0,-1
EndSplineSet
KernsSLIFO: 193 -63 0 0 194 -63 0 0 195 -63 0 0 192 -63 0 0 196 -63 0 0 74 -55 0 0 65 -63 0 0 59 -73 0 0 58 -73 0 0 46 -188 0 0 45 -36 0 0 44 -188 0 0
EndChar
StartChar: V
Encoding: 86 86 86
Width: 1405
Flags: W
Fore
396.65 1386 m 1,0,-1
 793.55 240 l 1,1,-1
 1189.55 1386 l 1,2,-1
 1038.35 1386 l 1,3,-1
 1038.35 1493 l 1,4,-1
 1432.55 1493 l 1,5,-1
 1432.55 1386 l 1,6,-1
 1302.05 1386 l 1,7,-1
 822.35 0 l 1,8,-1
 667.55 0 l 1,9,-1
 190.55 1386 l 1,10,-1
 56.4502 1386 l 1,11,-1
 56.4502 1493 l 1,12,-1
 546.05 1493 l 1,13,-1
 546.05 1386 l 1,14,-1
 396.65 1386 l 1,0,-1
EndSplineSet
KernsSLIFO: 367 -131 0 0 283 -188 0 0 253 -83 0 0 210 -36 0 0 212 -36 0 0 211 -36 0 0 193 -139 0 0 194 -139 0 0 255 -83 0 0 8217 75 0 0 8221 75 0 0 339 -188 0 0 338 -36 0 0 213 -36 0 0 195 -139 0 0 192 -139 0 0 248 -188 0 0 230 -188 0 0 216 -36 0 0 252 -131 0 0 251 -131 0 0 249 -131 0 0 250 -131 0 0 245 -188 0 0 246 -188 0 0 244 -188 0 0 242 -188 0 0 243 -188 0 0 235 -188 0 0 234 -188 0 0 232 -188 0 0 233 -188 0 0 229 -188 0 0 227 -188 0 0 228 -188 0 0 226 -188 0 0 224 -188 0 0 225 -188 0 0 214 -36 0 0 196 -139 0 0 121 -83 0 0 117 -131 0 0 111 -188 0 0 105 -36 0 0 101 -188 0 0 97 -188 0 0 79 -36 0 0 65 -139 0 0 59 -206 0 0 58 -206 0 0 46 -358 0 0 45 -188 0 0 44 -358 0 0
EndChar
StartChar: W
Encoding: 87 87 87
Width: 1999
Flags: W
Fore
1510.35 0 m 1,0,-1
 1362.75 0 l 1,1,-1
 1054.95 1214 l 1,2,-1
 747.15 0 l 1,3,-1
 599.55 0 l 1,4,-1
 247.65 1386 l 1,5,-1
 114.45 1386 l 1,6,-1
 114.45 1493 l 1,7,-1
 604.95 1493 l 1,8,-1
 604.95 1386 l 1,9,-1
 437.55 1386 l 1,10,-1
 717.45 283 l 1,11,-1
 1023.45 1493 l 1,12,-1
 1169.25 1493 l 1,13,-1
 1480.65 270 l 1,14,-1
 1762.35 1386 l 1,15,-1
 1607.55 1386 l 1,16,-1
 1607.55 1493 l 1,17,-1
 1994.55 1493 l 1,18,-1
 1994.55 1386 l 1,19,-1
 1862.25 1386 l 1,20,-1
 1510.35 0 l 1,0,-1
EndSplineSet
KernsSLIFO: 252 -83 0 0 229 -178 0 0 230 -139 0 0 59 -178 0 0 242 -139 0 0 45 -149 0 0 46 -358 0 0 367 -83 0 0 245 -139 0 0 235 -167 0 0 249 -83 0 0 44 -358 0 0 224 -178 0 0 195 -102 0 0 234 -167 0 0 341 -92 0 0 8221 38 0 0 232 -167 0 0 196 -102 0 0 193 -102 0 0 8217 38 0 0 251 -83 0 0 253 -45 0 0 227 -178 0 0 194 -102 0 0 248 -139 0 0 244 -139 0 0 65 -102 0 0 97 -178 0 0 228 -178 0 0 246 -139 0 0 250 -83 0 0 225 -178 0 0 345 -92 0 0 226 -178 0 0 233 -167 0 0 283 -167 0 0 101 -167 0 0 105 -36 0 0 339 -139 0 0 255 -45 0 0 111 -139 0 0 114 -92 0 0 117 -83 0 0 192 -102 0 0 121 -45 0 0 58 -178 0 0 243 -139 0 0
EndChar
StartChar: X
Encoding: 88 88 88
Width: 1385
Flags: W
Fore
683.2 639 m 1,0,-1
 354.7 106 l 1,1,-1
 528.4 106 l 1,2,-1
 528.4 0 l 1,3,-1
 83.7998 0 l 1,4,-1
 83.7998 106 l 1,5,-1
 238.6 106 l 1,6,-1
 625.6 733 l 1,7,-1
 233.2 1386 l 1,8,-1
 89.2002 1386 l 1,9,-1
 89.2002 1493 l 1,10,-1
 622 1493 l 1,11,-1
 622 1386 l 1,12,-1
 463.6 1386 l 1,13,-1
 751.6 905 l 1,14,-1
 1047.7 1386 l 1,15,-1
 874.9 1386 l 1,16,-1
 874.9 1493 l 1,17,-1
 1315 1493 l 1,18,-1
 1315 1386 l 1,19,-1
 1163.8 1386 l 1,20,-1
 808.3 811 l 1,21,-1
 1232.2 106 l 1,22,-1
 1376.2 106 l 1,23,-1
 1376.2 0 l 1,24,-1
 843.4 0 l 1,25,-1
 843.4 106 l 1,26,-1
 1003.6 106 l 1,27,-1
 683.2 639 l 1,0,-1
EndSplineSet
KernsSLIFO: 268 -36 0 0 262 -36 0 0 210 -36 0 0 212 -36 0 0 211 -36 0 0 193 -73 0 0 194 -73 0 0 338 -36 0 0 213 -36 0 0 195 -73 0 0 192 -73 0 0 216 -36 0 0 214 -36 0 0 199 -36 0 0 196 -73 0 0 79 -36 0 0 67 -36 0 0 65 -73 0 0 45 -73 0 0
EndChar
StartChar: Y
Encoding: 89 89 89
Width: 1284
Flags: W
Fore
415.65 0 m 1,0,-1
 415.65 106 l 1,1,-1
 587.55 106 l 1,2,-1
 587.55 643 l 1,3,-1
 172.65 1386 l 1,4,-1
 46.6504 1386 l 1,5,-1
 46.6504 1493 l 1,6,-1
 546.15 1493 l 1,7,-1
 546.15 1386 l 1,8,-1
 389.55 1386 l 1,9,-1
 725.25 782 l 1,10,-1
 1060.95 1386 l 1,11,-1
 909.75 1386 l 1,12,-1
 909.75 1493 l 1,13,-1
 1300.35 1493 l 1,14,-1
 1300.35 1386 l 1,15,-1
 1173.45 1386 l 1,16,-1
 769.35 662 l 1,17,-1
 769.35 106 l 1,18,-1
 941.25 106 l 1,19,-1
 941.25 0 l 1,20,-1
 415.65 0 l 1,0,-1
EndSplineSet
KernsSLIFO: 367 -178 0 0 283 -178 0 0 268 -36 0 0 262 -36 0 0 193 -159 0 0 194 -159 0 0 339 -215 0 0 195 -159 0 0 192 -159 0 0 248 -178 0 0 230 -196 0 0 252 -178 0 0 251 -178 0 0 249 -178 0 0 250 -178 0 0 245 -178 0 0 246 -178 0 0 244 -178 0 0 242 -178 0 0 243 -178 0 0 235 -178 0 0 234 -178 0 0 232 -178 0 0 233 -178 0 0 229 -159 0 0 227 -159 0 0 228 -159 0 0 226 -159 0 0 224 -159 0 0 225 -159 0 0 199 -36 0 0 196 -159 0 0 117 -178 0 0 111 -178 0 0 105 -36 0 0 101 -178 0 0 97 -159 0 0 67 -36 0 0 65 -159 0 0 59 -253 0 0 58 -253 0 0 46 -264 0 0 45 -225 0 0 44 -264 0 0
EndChar
StartChar: Z
Encoding: 90 90 90
Width: 1352
Flags: W
Fore
154.55 0 m 1,0,-1
 154.55 72 l 1,1,-1
 991.55 1370 l 1,2,-1
 296.75 1370 l 1,3,-1
 296.75 1147 l 1,4,-1
 186.05 1147 l 1,5,-1
 186.05 1493 l 1,6,-1
 1248.05 1493 l 1,7,-1
 1248.05 1421 l 1,8,-1
 411.05 123 l 1,9,-1
 1170.65 123 l 1,10,-1
 1170.65 332 l 1,11,-1
 1280.45 332 l 1,12,-1
 1280.45 0 l 1,13,-1
 154.55 0 l 1,0,-1
EndSplineSet
KernsSLIFO: 46 -36 0 0 44 -36 0 0
EndChar
StartChar: bracketleft
Encoding: 91 91 91
Width: 759
Flags: W
Fore
199.25 1556 m 1,0,-1
 617.75 1556 l 1,1,-1
 617.75 1450 l 1,2,-1
 371.15 1450 l 1,3,-1
 371.15 -164 l 1,4,-1
 617.75 -164 l 1,5,-1
 617.75 -270 l 1,6,-1
 199.25 -270 l 1,7,-1
 199.25 1556 l 1,0,-1
EndSplineSet
EndChar
StartChar: backslash
Encoding: 92 92 92
Width: 655
Flags: W
Fore
178.5 1493 m 1,0,-1
 655.5 -190 l 1,1,-1
 511.5 -190 l 1,2,-1
 34.5 1493 l 1,3,-1
 178.5 1493 l 1,0,-1
EndSplineSet
EndChar
StartChar: bracketright
Encoding: 93 93 93
Width: 758
Flags: W
Fore
599.75 1556 m 1,0,-1
 599.75 -270 l 1,1,-1
 181.25 -270 l 1,2,-1
 181.25 -164 l 1,3,-1
 427.85 -164 l 1,4,-1
 427.85 1450 l 1,5,-1
 181.25 1450 l 1,6,-1
 181.25 1556 l 1,7,-1
 599.75 1556 l 1,0,-1
EndSplineSet
EndChar
StartChar: asciicircum
Encoding: 94 94 94
Width: 1630
Flags: W
Fore
946.2 1493 m 1,0,-1
 1434.9 936 l 1,1,-1
 1297.2 936 l 1,2,-1
 858 1317 l 1,3,-1
 419.7 936 l 1,4,-1
 281.1 936 l 1,5,-1
 769.8 1493 l 1,6,-1
 946.2 1493 l 1,0,-1
EndSplineSet
EndChar
StartChar: underscore
Encoding: 95 95 95
Width: 972
Flags: W
Fore
972.8 -403 m 1,0,-1
 972.8 -483 l 1,1,-1
 51.2002 -483 l 1,2,-1
 51.2002 -403 l 1,3,-1
 972.8 -403 l 1,0,-1
EndSplineSet
EndChar
StartChar: grave
Encoding: 96 96 96
Width: 961
Flags: W
Fore
370.15 1636 m 1,0,-1
 604.15 1260 l 1,1,-1
 498.85 1260 l 1,2,-1
 192.85 1636 l 1,3,-1
 370.15 1636 l 1,0,-1
EndSplineSet
EndChar
StartChar: a
Encoding: 97 97 97
Width: 1162
Flags: W
Fore
796.75 334 m 2,0,-1
 796.75 559 l 1,1,-1
 583.45 559 l 2,2,3
 460.15 559 460.15 559 399.85 500 c 128,-1,4
 339.55 441 339.55 441 339.55 319 c 0,5,6
 339.55 208 339.55 208 400.75 143 c 128,-1,7
 461.95 78 461.95 78 566.35 78 c 0,8,9
 669.85 78 669.85 78 733.3 149 c 128,-1,10
 796.75 220 796.75 220 796.75 334 c 2,0,-1
962.35 664 m 2,11,-1
 962.35 106 l 1,12,-1
 1109.95 106 l 1,13,-1
 1109.95 0 l 1,14,-1
 796.75 0 l 1,15,-1
 796.75 115 l 1,16,17
 741.85 41 741.85 41 669.85 6 c 128,-1,18
 597.85 -29 597.85 -29 501.55 -29 c 0,19,20
 342.25 -29 342.25 -29 248.65 65 c 128,-1,21
 155.05 159 155.05 159 155.05 319 c 0,22,23
 155.05 484 155.05 484 262.15 575 c 128,-1,24
 369.25 666 369.25 666 564.55 666 c 2,25,-1
 796.75 666 l 1,26,-1
 796.75 739 l 2,27,28
 796.75 860 796.75 860 730.6 926.5 c 128,-1,29
 664.45 993 664.45 993 544.75 993 c 0,30,31
 445.75 993 445.75 993 387.25 943 c 128,-1,32
 328.75 893 328.75 893 314.35 795 c 1,33,-1
 228.85 795 l 1,34,-1
 228.85 1010 l 1,35,36
 315.25 1051 315.25 1051 396.7 1071.5 c 128,-1,37
 478.15 1092 478.15 1092 555.55 1092 c 0,38,39
 754.45 1092 754.45 1092 858.4 982.5 c 128,-1,40
 962.35 873 962.35 873 962.35 664 c 2,11,-1
EndSplineSet
EndChar
StartChar: b
Encoding: 98 98 98
Width: 1243
Flags: W
Fore
275.75 106 m 1,0,-1
 275.75 1450 l 1,1,-1
 116.45 1450 l 1,2,-1
 116.45 1556 l 1,3,-1
 441.35 1556 l 1,4,-1
 441.35 897 l 1,5,6
 489.95 997 489.95 997 565.1 1044.5 c 128,-1,7
 640.25 1092 640.25 1092 750.95 1092 c 0,8,9
 927.35 1092 927.35 1092 1038.95 937 c 128,-1,10
 1150.55 782 1150.55 782 1150.55 532 c 0,11,12
 1150.55 282 1150.55 282 1038.95 126.5 c 128,-1,13
 927.35 -29 927.35 -29 750.95 -29 c 0,14,15
 640.25 -29 640.25 -29 565.1 18.5 c 128,-1,16
 489.95 66 489.95 66 441.35 166 c 1,17,-1
 441.35 0 l 1,18,-1
 116.45 0 l 1,19,-1
 116.45 106 l 1,20,-1
 275.75 106 l 1,0,-1
441.35 479 m 2,21,22
 441.35 287 441.35 287 507.5 186.5 c 128,-1,23
 573.65 86 573.65 86 699.65 86 c 0,24,25
 826.55 86 826.55 86 891.8 199 c 128,-1,26
 957.05 312 957.05 312 957.05 532 c 0,27,28
 957.05 753 957.05 753 891.8 865 c 128,-1,29
 826.55 977 826.55 977 699.65 977 c 0,30,31
 573.65 977 573.65 977 507.5 876 c 128,-1,32
 441.35 775 441.35 775 441.35 584 c 2,33,-1
 441.35 479 l 2,21,22
EndSplineSet
EndChar
StartChar: c
Encoding: 99 99 99
Width: 1090
Flags: W
Fore
1005.45 319 m 1,0,1
 970.35 149 970.35 149 870.45 60 c 128,-1,2
 770.55 -29 770.55 -29 612.15 -29 c 0,3,4
 403.35 -29 403.35 -29 276.45 124.5 c 128,-1,5
 149.55 278 149.55 278 149.55 532 c 0,6,7
 149.55 787 149.55 787 276.45 939.5 c 128,-1,8
 403.35 1092 403.35 1092 612.15 1092 c 0,9,10
 703.05 1092 703.05 1092 793.05 1068.5 c 128,-1,11
 883.05 1045 883.05 1045 973.95 997 c 1,12,-1
 973.95 725 l 1,13,-1
 877.65 725 l 1,14,15
 858.75 865 858.75 865 795.3 929 c 128,-1,16
 731.85 993 731.85 993 613.95 993 c 0,17,18
 479.85 993 479.85 993 411.45 877.5 c 128,-1,19
 343.05 762 343.05 762 343.05 532 c 0,20,21
 343.05 302 343.05 302 411 186 c 128,-1,22
 478.95 70 478.95 70 613.95 70 c 0,23,24
 721.05 70 721.05 70 784.95 132 c 128,-1,25
 848.85 194 848.85 194 872.25 319 c 1,26,-1
 1005.45 319 l 1,0,1
EndSplineSet
EndChar
StartChar: d
Encoding: 100 100 100
Width: 1247
Flags: W
Fore
1035.15 106 m 1,0,-1
 1193.55 106 l 1,1,-1
 1193.55 0 l 1,2,-1
 869.55 0 l 1,3,-1
 869.55 166 l 1,4,5
 820.95 66 820.95 66 745.8 18.5 c 128,-1,6
 670.65 -29 670.65 -29 559.95 -29 c 0,7,8
 383.55 -29 383.55 -29 271.5 126.5 c 128,-1,9
 159.45 282 159.45 282 159.45 532 c 0,10,11
 159.45 782 159.45 782 271.05 937 c 128,-1,12
 382.65 1092 382.65 1092 559.95 1092 c 0,13,14
 670.65 1092 670.65 1092 745.8 1044.5 c 128,-1,15
 820.95 997 820.95 997 869.55 897 c 1,16,-1
 869.55 1450 l 1,17,-1
 712.95 1450 l 1,18,-1
 712.95 1556 l 1,19,-1
 1035.15 1556 l 1,20,-1
 1035.15 106 l 1,0,-1
869.55 479 m 2,21,-1
 869.55 584 l 2,22,23
 869.55 775 869.55 775 803.4 876 c 128,-1,24
 737.25 977 737.25 977 611.25 977 c 0,25,26
 483.45 977 483.45 977 418.2 865 c 128,-1,27
 352.95 753 352.95 753 352.95 532 c 0,28,29
 352.95 312 352.95 312 418.2 199 c 128,-1,30
 483.45 86 483.45 86 611.25 86 c 0,31,32
 737.25 86 737.25 86 803.4 186.5 c 128,-1,33
 869.55 287 869.55 287 869.55 479 c 2,21,-1
EndSplineSet
EndChar
StartChar: e
Encoding: 101 101 101
Width: 1151
Flags: W
Fore
1059.6 512 m 1,0,-1
 345.9 512 l 1,1,-1
 345.9 504 l 2,2,3
 345.9 289 345.9 289 418.8 179.5 c 128,-1,4
 491.7 70 491.7 70 633.9 70 c 0,5,6
 742.8 70 742.8 70 812.55 133.5 c 128,-1,7
 882.3 197 882.3 197 910.2 322 c 1,8,-1
 1043.4 322 l 1,9,10
 1003.8 147 1003.8 147 897.15 59 c 128,-1,11
 790.5 -29 790.5 -29 616.8 -29 c 0,12,13
 407.1 -29 407.1 -29 279.75 124.5 c 128,-1,14
 152.4 278 152.4 278 152.4 532 c 0,15,16
 152.4 784 152.4 784 277.5 938 c 128,-1,17
 402.6 1092 402.6 1092 606 1092 c 0,18,19
 822.9 1092 822.9 1092 939 943.5 c 128,-1,20
 1055.1 795 1055.1 795 1059.6 512 c 1,0,-1
864.3 618 m 1,21,22
 858.9 804 858.9 804 793.65 898.5 c 128,-1,23
 728.4 993 728.4 993 606 993 c 0,24,25
 491.7 993 491.7 993 426 898 c 128,-1,26
 360.3 803 360.3 803 345.9 618 c 1,27,-1
 864.3 618 l 1,21,22
EndSplineSet
EndChar
StartChar: f
Encoding: 102 102 102
Width: 729
Flags: W
Fore
840.65 1305 m 1,0,-1
 753.35 1305 l 1,1,2
 752.45 1380 752.45 1380 715.1 1419 c 128,-1,3
 677.75 1458 677.75 1458 606.65 1458 c 0,4,5
 513.95 1458 513.95 1458 476.15 1401.5 c 128,-1,6
 438.35 1345 438.35 1345 438.35 1200 c 2,7,-1
 438.35 1063 l 1,8,-1
 705.65 1063 l 1,9,-1
 705.65 956 l 1,10,-1
 438.35 956 l 1,11,-1
 438.35 106 l 1,12,-1
 650.75 106 l 1,13,-1
 650.75 0 l 1,14,-1
 114.35 0 l 1,15,-1
 114.35 106 l 1,16,-1
 272.75 106 l 1,17,-1
 272.75 956 l 1,18,-1
 114.35 956 l 1,19,-1
 114.35 1063 l 1,20,-1
 272.75 1063 l 1,21,-1
 272.75 1196 l 2,22,23
 272.75 1374 272.75 1374 356 1465 c 128,-1,24
 439.25 1556 439.25 1556 600.35 1556 c 0,25,26
 660.65 1556 660.65 1556 720.95 1544 c 128,-1,27
 781.25 1532 781.25 1532 840.65 1507 c 1,28,-1
 840.65 1305 l 1,0,-1
EndSplineSet
KernsSLIFO: 8217 151 0 0 8221 151 0 0 8220 38 0 0 46 -73 0 0 45 -73 0 0 44 -73 0 0
EndChar
StartChar: g
Encoding: 103 103 103
Width: 1247
Flags: W
Fore
1035.15 956 m 1,0,-1
 1035.15 23 l 2,1,2
 1035.15 -206 1035.15 -206 921.75 -330.5 c 128,-1,3
 808.35 -455 808.35 -455 598.65 -455 c 0,4,5
 504.15 -455 504.15 -455 417.75 -436 c 128,-1,6
 331.35 -417 331.35 -417 252.15 -379 c 1,7,-1
 252.15 -156 l 1,8,-1
 338.55 -156 l 1,9,10
 354.75 -260 354.75 -260 415.05 -308 c 128,-1,11
 475.35 -356 475.35 -356 587.85 -356 c 0,12,13
 733.65 -356 733.65 -356 801.6 -264.5 c 128,-1,14
 869.55 -173 869.55 -173 869.55 23 c 2,15,-1
 869.55 166 l 1,16,17
 820.95 66 820.95 66 745.8 18.5 c 128,-1,18
 670.65 -29 670.65 -29 559.95 -29 c 0,19,20
 383.55 -29 383.55 -29 271.5 126.5 c 128,-1,21
 159.45 282 159.45 282 159.45 532 c 0,22,23
 159.45 782 159.45 782 271.05 937 c 128,-1,24
 382.65 1092 382.65 1092 559.95 1092 c 0,25,26
 670.65 1092 670.65 1092 745.8 1044.5 c 128,-1,27
 820.95 997 820.95 997 869.55 897 c 1,28,-1
 869.55 1063 l 1,29,-1
 1193.55 1063 l 1,30,-1
 1193.55 956 l 1,31,-1
 1035.15 956 l 1,0,-1
869.55 584 m 2,32,33
 869.55 775 869.55 775 803.4 876 c 128,-1,34
 737.25 977 737.25 977 611.25 977 c 0,35,36
 483.45 977 483.45 977 418.2 865 c 128,-1,37
 352.95 753 352.95 753 352.95 532 c 0,38,39
 352.95 312 352.95 312 418.2 199 c 128,-1,40
 483.45 86 483.45 86 611.25 86 c 0,41,42
 737.25 86 737.25 86 803.4 186.5 c 128,-1,43
 869.55 287 869.55 287 869.55 479 c 2,44,-1
 869.55 584 l 2,32,33
EndSplineSet
EndChar
StartChar: h
Encoding: 104 104 104
Width: 1253
Flags: W
Fore
142.4 0 m 1,0,-1
 142.4 106 l 1,1,-1
 291.8 106 l 1,2,-1
 291.8 1450 l 1,3,-1
 133.4 1450 l 1,4,-1
 133.4 1556 l 1,5,-1
 457.4 1556 l 1,6,-1
 457.4 874 l 1,7,8
 503.3 982 503.3 982 576.65 1037 c 128,-1,9
 650 1092 650 1092 747.2 1092 c 0,10,11
 905.6 1092 905.6 1092 980.3 991 c 128,-1,12
 1055 890 1055 890 1055 676 c 2,13,-1
 1055 106 l 1,14,-1
 1202.6 106 l 1,15,-1
 1202.6 0 l 1,16,-1
 745.4 0 l 1,17,-1
 745.4 106 l 1,18,-1
 888.5 106 l 1,19,-1
 888.5 618 l 2,20,21
 888.5 813 888.5 813 845.75 884.5 c 128,-1,22
 803 956 803 956 693.2 956 c 0,23,24
 578 956 578 956 517.7 863 c 128,-1,25
 457.4 770 457.4 770 457.4 592 c 2,26,-1
 457.4 106 l 1,27,-1
 601.4 106 l 1,28,-1
 601.4 0 l 1,29,-1
 142.4 0 l 1,0,-1
EndSplineSet
EndChar
StartChar: i
Encoding: 105 105 105
Width: 623
Flags: W
Fore
213.2 1393 m 0,0,1
 213.2 1439 213.2 1439 243.35 1473 c 128,-1,2
 273.5 1507 273.5 1507 315.8 1507 c 0,3,4
 357.2 1507 357.2 1507 387.35 1473 c 128,-1,5
 417.5 1439 417.5 1439 417.5 1393 c 0,6,7
 417.5 1346 417.5 1346 387.8 1313 c 128,-1,8
 358.1 1280 358.1 1280 315.8 1280 c 0,9,10
 273.5 1280 273.5 1280 243.35 1313 c 128,-1,11
 213.2 1346 213.2 1346 213.2 1393 c 0,0,1
424.7 106 m 1,12,-1
 581.3 106 l 1,13,-1
 581.3 0 l 1,14,-1
 100.7 0 l 1,15,-1
 100.7 106 l 1,16,-1
 259.1 106 l 1,17,-1
 259.1 956 l 1,18,-1
 100.7 956 l 1,19,-1
 100.7 1063 l 1,20,-1
 424.7 1063 l 1,21,-1
 424.7 106 l 1,12,-1
EndSplineSet
EndChar
StartChar: j
Encoding: 106 106 106
Width: 583
Flags: W
Fore
196.35 1393 m 0,0,1
 196.35 1439 196.35 1439 226.5 1473 c 128,-1,2
 256.65 1507 256.65 1507 298.95 1507 c 0,3,4
 340.35 1507 340.35 1507 370.5 1473 c 128,-1,5
 400.65 1439 400.65 1439 400.65 1393 c 0,6,7
 400.65 1346 400.65 1346 371.4 1313 c 128,-1,8
 342.15 1280 342.15 1280 298.95 1280 c 0,9,10
 256.65 1280 256.65 1280 226.5 1313 c 128,-1,11
 196.35 1346 196.35 1346 196.35 1393 c 0,0,1
236.85 956 m 1,12,-1
 80.25 956 l 1,13,-1
 80.25 1063 l 1,14,-1
 402.45 1063 l 1,15,-1
 402.45 -104 l 2,16,17
 402.45 -268 402.45 -268 314.7 -361.5 c 128,-1,18
 226.95 -455 226.95 -455 73.0498 -455 c 0,19,20
 8.25 -455 8.25 -455 -50.7002 -438.5 c 128,-1,21
 -109.65 -422 -109.65 -422 -165.45 -389 c 1,22,-1
 -165.45 -170 l 1,23,-1
 -79.9502 -170 l 1,24,25
 -73.6504 -266 -73.6504 -266 -35.4004 -311 c 128,-1,26
 2.84961 -356 2.84961 -356 76.6504 -356 c 0,27,28
 158.55 -356 158.55 -356 197.7 -294.5 c 128,-1,29
 236.85 -233 236.85 -233 236.85 -104 c 2,30,-1
 236.85 956 l 1,12,-1
EndSplineSet
EndChar
StartChar: k
Encoding: 107 107 107
Width: 1182
Flags: W
Fore
593.1 0 m 1,0,-1
 128.7 0 l 1,1,-1
 128.7 106 l 1,2,-1
 278.1 106 l 1,3,-1
 278.1 1450 l 1,4,-1
 118.8 1450 l 1,5,-1
 118.8 1556 l 1,6,-1
 443.7 1556 l 1,7,-1
 443.7 543 l 1,8,-1
 846.9 956 l 1,9,-1
 709.2 956 l 1,10,-1
 709.2 1063 l 1,11,-1
 1142.1 1063 l 1,12,-1
 1142.1 956 l 1,13,-1
 978.3 956 l 1,14,-1
 693.9 664 l 1,15,-1
 1057.5 106 l 1,16,-1
 1195.2 106 l 1,17,-1
 1195.2 0 l 1,18,-1
 723.6 0 l 1,19,-1
 723.6 106 l 1,20,-1
 860.4 106 l 1,21,-1
 574.2 543 l 1,22,-1
 443.7 408 l 1,23,-1
 443.7 106 l 1,24,-1
 593.1 106 l 1,25,-1
 593.1 0 l 1,0,-1
EndSplineSet
KernsSLIFO: 45 -36 0 0
EndChar
StartChar: l
Encoding: 108 108 108
Width: 622
Flags: W
Fore
410.65 106 m 1,0,-1
 567.25 106 l 1,1,-1
 567.25 0 l 1,2,-1
 85.75 0 l 1,3,-1
 85.75 106 l 1,4,-1
 245.05 106 l 1,5,-1
 245.05 1450 l 1,6,-1
 85.75 1450 l 1,7,-1
 85.75 1556 l 1,8,-1
 410.65 1556 l 1,9,-1
 410.65 106 l 1,0,-1
EndSplineSet
EndChar
StartChar: m
Encoding: 109 109 109
Width: 1845
Flags: W
Fore
1052.9 856 m 1,0,1
 1100.6 973 1100.6 973 1174.85 1032.5 c 128,-1,2
 1249.1 1092 1249.1 1092 1348.1 1092 c 0,3,4
 1498.4 1092 1498.4 1092 1572.2 988.5 c 128,-1,5
 1646 885 1646 885 1646 676 c 2,6,-1
 1646 106 l 1,7,-1
 1795.4 106 l 1,8,-1
 1795.4 0 l 1,9,-1
 1336.4 0 l 1,10,-1
 1336.4 106 l 1,11,-1
 1480.4 106 l 1,12,-1
 1480.4 655 l 2,13,14
 1480.4 818 1480.4 818 1437.2 887 c 128,-1,15
 1394 956 1394 956 1294.1 956 c 0,16,17
 1183.4 956 1183.4 956 1125.35 863 c 128,-1,18
 1067.3 770 1067.3 770 1067.3 592 c 2,19,-1
 1067.3 106 l 1,20,-1
 1211.3 106 l 1,21,-1
 1211.3 0 l 1,22,-1
 757.7 0 l 1,23,-1
 757.7 106 l 1,24,-1
 901.7 106 l 1,25,-1
 901.7 662 l 2,26,27
 901.7 821 901.7 821 858.5 888.5 c 128,-1,28
 815.3 956 815.3 956 715.4 956 c 0,29,30
 604.7 956 604.7 956 546.65 863 c 128,-1,31
 488.6 770 488.6 770 488.6 592 c 2,32,-1
 488.6 106 l 1,33,-1
 632.6 106 l 1,34,-1
 632.6 0 l 1,35,-1
 173.6 0 l 1,36,-1
 173.6 106 l 1,37,-1
 323 106 l 1,38,-1
 323 958 l 1,39,-1
 164.6 958 l 1,40,-1
 164.6 1063 l 1,41,-1
 488.6 1063 l 1,42,-1
 488.6 874 l 1,43,44
 534.5 980 534.5 980 605.6 1036 c 128,-1,45
 676.7 1092 676.7 1092 766.7 1092 c 0,46,47
 878.3 1092 878.3 1092 953 1030.5 c 128,-1,48
 1027.7 969 1027.7 969 1052.9 856 c 1,0,1
EndSplineSet
EndChar
StartChar: n
Encoding: 110 110 110
Width: 1253
Flags: W
Fore
142.4 0 m 1,0,-1
 142.4 106 l 1,1,-1
 291.8 106 l 1,2,-1
 291.8 956 l 1,3,-1
 133.4 956 l 1,4,-1
 133.4 1063 l 1,5,-1
 457.4 1063 l 1,6,-1
 457.4 874 l 1,7,8
 503.3 982 503.3 982 576.65 1037 c 128,-1,9
 650 1092 650 1092 747.2 1092 c 0,10,11
 905.6 1092 905.6 1092 980.3 991 c 128,-1,12
 1055 890 1055 890 1055 676 c 2,13,-1
 1055 106 l 1,14,-1
 1202.6 106 l 1,15,-1
 1202.6 0 l 1,16,-1
 745.4 0 l 1,17,-1
 745.4 106 l 1,18,-1
 888.5 106 l 1,19,-1
 888.5 618 l 2,20,21
 888.5 813 888.5 813 845.3 885.5 c 128,-1,22
 802.1 958 802.1 958 693.2 958 c 0,23,24
 578 958 578 958 517.7 864.5 c 128,-1,25
 457.4 771 457.4 771 457.4 592 c 2,26,-1
 457.4 106 l 1,27,-1
 601.4 106 l 1,28,-1
 601.4 0 l 1,29,-1
 142.4 0 l 1,0,-1
EndSplineSet
EndChar
StartChar: o
Encoding: 111 111 111
Width: 1171
Flags: W
Fore
616 70 m 0,0,1
 749.2 70 749.2 70 817.15 187 c 128,-1,2
 885.1 304 885.1 304 885.1 532 c 0,3,4
 885.1 760 885.1 760 817.15 876.5 c 128,-1,5
 749.2 993 749.2 993 616 993 c 0,6,7
 482.8 993 482.8 993 414.85 876.5 c 128,-1,8
 346.9 760 346.9 760 346.9 532 c 0,9,10
 346.9 304 346.9 304 415.3 187 c 128,-1,11
 483.7 70 483.7 70 616 70 c 0,0,1
616 -29 m 0,12,13
 407.2 -29 407.2 -29 280.3 124.5 c 128,-1,14
 153.4 278 153.4 278 153.4 532 c 0,15,16
 153.4 786 153.4 786 279.85 939 c 128,-1,17
 406.3 1092 406.3 1092 616 1092 c 0,18,19
 825.7 1092 825.7 1092 952.15 939 c 128,-1,20
 1078.6 786 1078.6 786 1078.6 532 c 0,21,22
 1078.6 278 1078.6 278 952.15 124.5 c 128,-1,23
 825.7 -29 825.7 -29 616 -29 c 0,12,13
EndSplineSet
KernsSLIFO: 46 -36 0 0
EndChar
StartChar: p
Encoding: 112 112 112
Width: 1243
Flags: W
Fore
441.35 584 m 2,0,-1
 441.35 479 l 2,1,2
 441.35 287 441.35 287 507.5 186.5 c 128,-1,3
 573.65 86 573.65 86 699.65 86 c 0,4,5
 826.55 86 826.55 86 891.8 199 c 128,-1,6
 957.05 312 957.05 312 957.05 532 c 0,7,8
 957.05 753 957.05 753 891.8 865 c 128,-1,9
 826.55 977 826.55 977 699.65 977 c 0,10,11
 573.65 977 573.65 977 507.5 876 c 128,-1,12
 441.35 775 441.35 775 441.35 584 c 2,0,-1
275.75 956 m 1,13,-1
 116.45 956 l 1,14,-1
 116.45 1063 l 1,15,-1
 441.35 1063 l 1,16,-1
 441.35 897 l 1,17,18
 489.95 997 489.95 997 565.1 1044.5 c 128,-1,19
 640.25 1092 640.25 1092 750.95 1092 c 0,20,21
 927.35 1092 927.35 1092 1038.95 937 c 128,-1,22
 1150.55 782 1150.55 782 1150.55 532 c 0,23,24
 1150.55 282 1150.55 282 1038.95 126.5 c 128,-1,25
 927.35 -29 927.35 -29 750.95 -29 c 0,26,27
 640.25 -29 640.25 -29 565.1 18.5 c 128,-1,28
 489.95 66 489.95 66 441.35 166 c 1,29,-1
 441.35 -319 l 1,30,-1
 597.95 -319 l 1,31,-1
 597.95 -426 l 1,32,-1
 116.45 -426 l 1,33,-1
 116.45 -319 l 1,34,-1
 275.75 -319 l 1,35,-1
 275.75 956 l 1,13,-1
EndSplineSet
EndChar
StartChar: q
Encoding: 113 113 113
Width: 1247
Flags: W
Fore
1035.15 956 m 1,0,-1
 1035.15 -319 l 1,1,-1
 1193.55 -319 l 1,2,-1
 1193.55 -426 l 1,3,-1
 712.95 -426 l 1,4,-1
 712.95 -319 l 1,5,-1
 869.55 -319 l 1,6,-1
 869.55 166 l 1,7,8
 820.95 66 820.95 66 745.8 18.5 c 128,-1,9
 670.65 -29 670.65 -29 559.95 -29 c 0,10,11
 383.55 -29 383.55 -29 271.5 126.5 c 128,-1,12
 159.45 282 159.45 282 159.45 532 c 0,13,14
 159.45 782 159.45 782 271.05 937 c 128,-1,15
 382.65 1092 382.65 1092 559.95 1092 c 0,16,17
 670.65 1092 670.65 1092 745.8 1044.5 c 128,-1,18
 820.95 997 820.95 997 869.55 897 c 1,19,-1
 869.55 1063 l 1,20,-1
 1193.55 1063 l 1,21,-1
 1193.55 956 l 1,22,-1
 1035.15 956 l 1,0,-1
869.55 584 m 2,23,24
 869.55 775 869.55 775 803.4 876 c 128,-1,25
 737.25 977 737.25 977 611.25 977 c 0,26,27
 483.45 977 483.45 977 418.2 865 c 128,-1,28
 352.95 753 352.95 753 352.95 532 c 0,29,30
 352.95 312 352.95 312 418.2 199 c 128,-1,31
 483.45 86 483.45 86 611.25 86 c 0,32,33
 737.25 86 737.25 86 803.4 186.5 c 128,-1,34
 869.55 287 869.55 287 869.55 479 c 2,35,-1
 869.55 584 l 2,23,24
EndSplineSet
EndChar
StartChar: r
Encoding: 114 114 114
Width: 933
Flags: W
Fore
933.75 1065 m 1,0,-1
 933.75 799 l 1,1,-1
 838.35 799 l 1,2,3
 833.85 878 833.85 878 798.75 917 c 128,-1,4
 763.65 956 763.65 956 696.15 956 c 0,5,6
 573.75 956 573.75 956 508.5 862 c 128,-1,7
 443.25 768 443.25 768 443.25 592 c 2,8,-1
 443.25 106 l 1,9,-1
 634.95 106 l 1,10,-1
 634.95 0 l 1,11,-1
 128.25 0 l 1,12,-1
 128.25 106 l 1,13,-1
 277.65 106 l 1,14,-1
 277.65 958 l 1,15,-1
 119.25 958 l 1,16,-1
 119.25 1063 l 1,17,-1
 443.25 1063 l 1,18,-1
 443.25 874 l 1,19,20
 491.85 985 491.85 985 568.35 1038.5 c 128,-1,21
 644.85 1092 644.85 1092 754.65 1092 c 0,22,23
 795.15 1092 795.15 1092 839.7 1085 c 128,-1,24
 884.25 1078 884.25 1078 933.75 1065 c 1,0,-1
EndSplineSet
KernsSLIFO: 46 -225 0 0 44 -225 0 0
EndChar
StartChar: s
Encoding: 115 115 115
Width: 998
Flags: W
Fore
156.55 59 m 1,0,-1
 156.55 307 l 1,1,-1
 251.95 307 l 1,2,3
 255.55 188 255.55 188 319 129 c 128,-1,4
 382.45 70 382.45 70 506.65 70 c 0,5,6
 618.25 70 618.25 70 676.75 116.5 c 128,-1,7
 735.25 163 735.25 163 735.25 252 c 0,8,9
 735.25 322 735.25 322 692.5 365 c 128,-1,10
 649.75 408 649.75 408 512.05 457 c 1,11,-1
 392.35 502 l 1,12,13
 269.05 546 269.05 546 213.7 612 c 128,-1,14
 158.35 678 158.35 678 158.35 780 c 0,15,16
 158.35 926 158.35 926 254.65 1009 c 128,-1,17
 350.95 1092 350.95 1092 521.05 1092 c 0,18,19
 596.65 1092 596.65 1092 680.35 1070 c 128,-1,20
 764.05 1048 764.05 1048 853.15 1006 c 1,21,-1
 853.15 774 l 1,22,-1
 757.75 774 l 1,23,24
 754.15 877 754.15 877 692.95 935 c 128,-1,25
 631.75 993 631.75 993 526.45 993 c 0,26,27
 422.05 993 422.05 993 368.5 952 c 128,-1,28
 314.95 911 314.95 911 314.95 829 c 0,29,30
 314.95 762 314.95 762 355.45 721.5 c 128,-1,31
 395.95 681 395.95 681 517.45 639 c 2,32,-1
 648.85 594 l 2,33,34
 784.75 547 784.75 547 844.6 476.5 c 128,-1,35
 904.45 406 904.45 406 904.45 295 c 0,36,37
 904.45 144 904.45 144 800.5 57.5 c 128,-1,38
 696.55 -29 696.55 -29 513.85 -29 c 0,39,40
 421.15 -29 421.15 -29 332.95 -7 c 128,-1,41
 244.75 15 244.75 15 156.55 59 c 1,0,-1
EndSplineSet
EndChar
StartChar: t
Encoding: 116 116 116
Width: 784
Flags: W
Fore
242.2 956 m 1,0,-1
 96.4004 956 l 1,1,-1
 96.4004 1063 l 1,2,-1
 242.2 1063 l 1,3,-1
 242.2 1393 l 1,4,-1
 408.7 1393 l 1,5,-1
 408.7 1063 l 1,6,-1
 720.1 1063 l 1,7,-1
 720.1 956 l 1,8,-1
 408.7 956 l 1,9,-1
 408.7 281 l 2,10,11
 408.7 146 408.7 146 432.1 108 c 128,-1,12
 455.5 70 455.5 70 518.5 70 c 0,13,14
 583.3 70 583.3 70 613 112.5 c 128,-1,15
 642.7 155 642.7 155 644.5 250 c 1,16,-1
 769.6 250 l 1,17,18
 762.4 105 762.4 105 698.5 38 c 128,-1,19
 634.6 -29 634.6 -29 504.1 -29 c 0,20,21
 361 -29 361 -29 301.6 41.5 c 128,-1,22
 242.2 112 242.2 112 242.2 281 c 2,23,-1
 242.2 956 l 1,0,-1
EndSplineSet
EndChar
StartChar: u
Encoding: 117 117 117
Width: 1252
Flags: W
Fore
717.4 1063 m 1,0,-1
 1027 1063 l 1,1,-1
 1027 106 l 1,2,-1
 1183.6 106 l 1,3,-1
 1183.6 0 l 1,4,-1
 861.4 0 l 1,5,-1
 861.4 188 l 1,6,7
 815.5 82 815.5 82 742.6 26.5 c 128,-1,8
 669.7 -29 669.7 -29 573.4 -29 c 0,9,10
 414.1 -29 414.1 -29 338.95 71.5 c 128,-1,11
 263.8 172 263.8 172 263.8 387 c 2,12,-1
 263.8 956 l 1,13,-1
 114.4 956 l 1,14,-1
 114.4 1063 l 1,15,-1
 430.3 1063 l 1,16,-1
 430.3 444 l 2,17,18
 430.3 250 430.3 250 473.05 178 c 128,-1,19
 515.8 106 515.8 106 625.6 106 c 0,20,21
 740.8 106 740.8 106 801.1 200 c 128,-1,22
 861.4 294 861.4 294 861.4 473 c 2,23,-1
 861.4 956 l 1,24,-1
 717.4 956 l 1,25,-1
 717.4 1063 l 1,0,-1
EndSplineSet
EndChar
StartChar: v
Encoding: 118 118 118
Width: 1098
Flags: W
Fore
512.65 0 m 1,0,-1
 160.75 956 l 1,1,-1
 51.8496 956 l 1,2,-1
 51.8496 1063 l 1,3,-1
 491.95 1063 l 1,4,-1
 491.95 956 l 1,5,-1
 338.95 956 l 1,6,-1
 608.05 225 l 1,7,-1
 877.15 956 l 1,8,-1
 734.05 956 l 1,9,-1
 734.05 1063 l 1,10,-1
 1093.15 1063 l 1,11,-1
 1093.15 956 l 1,12,-1
 986.05 956 l 1,13,-1
 634.15 0 l 1,14,-1
 512.65 0 l 1,0,-1
EndSplineSet
KernsSLIFO: 46 -243 0 0 44 -243 0 0
EndChar
StartChar: w
Encoding: 119 119 119
Width: 1665
Flags: W
Fore
972.65 1063 m 1,0,-1
 1217.45 233 l 1,1,-1
 1433.45 956 l 1,2,-1
 1294.85 956 l 1,3,-1
 1294.85 1063 l 1,4,-1
 1641.35 1063 l 1,5,-1
 1641.35 956 l 1,6,-1
 1535.15 956 l 1,7,-1
 1250.75 0 l 1,8,-1
 1113.05 0 l 1,9,-1
 877.25 795 l 1,10,-1
 640.55 0 l 1,11,-1
 508.25 0 l 1,12,-1
 224.75 956 l 1,13,-1
 117.65 956 l 1,14,-1
 117.65 1063 l 1,15,-1
 550.55 1063 l 1,16,-1
 550.55 956 l 1,17,-1
 395.75 956 l 1,18,-1
 609.95 233 l 1,19,-1
 856.55 1063 l 1,20,-1
 972.65 1063 l 1,0,-1
EndSplineSet
KernsSLIFO: 46 -243 0 0 44 -243 0 0
EndChar
StartChar: x
Encoding: 120 120 120
Width: 1097
Flags: W
Fore
594.15 649 m 1,0,-1
 794.85 956 l 1,1,-1
 666.15 956 l 1,2,-1
 666.15 1063 l 1,3,-1
 1034.25 1063 l 1,4,-1
 1034.25 956 l 1,5,-1
 907.35 956 l 1,6,-1
 650.85 563 l 1,7,-1
 949.65 106 l 1,8,-1
 1074.75 106 l 1,9,-1
 1074.75 0 l 1,10,-1
 632.85 0 l 1,11,-1
 632.85 106 l 1,12,-1
 754.35 106 l 1,13,-1
 546.45 424 l 1,14,-1
 337.65 106 l 1,15,-1
 461.85 106 l 1,16,-1
 461.85 0 l 1,17,-1
 98.25 0 l 1,18,-1
 98.25 106 l 1,19,-1
 225.15 106 l 1,20,-1
 488.85 510 l 1,21,-1
 198.15 956 l 1,22,-1
 80.25 956 l 1,23,-1
 80.25 1063 l 1,24,-1
 507.75 1063 l 1,25,-1
 507.75 956 l 1,26,-1
 393.45 956 l 1,27,-1
 594.15 649 l 1,0,-1
EndSplineSet
KernsSLIFO: 45 -36 0 0
EndChar
StartChar: y
Encoding: 121 121 121
Width: 1098
Flags: W
Fore
455.05 -195 m 1,0,-1
 518.05 -18 l 1,1,-1
 160.75 956 l 1,2,-1
 51.8496 956 l 1,3,-1
 51.8496 1063 l 1,4,-1
 491.95 1063 l 1,5,-1
 491.95 956 l 1,6,-1
 338.95 956 l 1,7,-1
 608.05 225 l 1,8,-1
 877.15 956 l 1,9,-1
 734.05 956 l 1,10,-1
 734.05 1063 l 1,11,-1
 1093.15 1063 l 1,12,-1
 1093.15 956 l 1,13,-1
 986.05 956 l 1,14,-1
 547.75 -240 l 1,15,16
 502.75 -364 502.75 -364 447.85 -409.5 c 128,-1,17
 392.95 -455 392.95 -455 293.05 -455 c 0,18,19
 250.75 -455 250.75 -455 206.2 -447 c 128,-1,20
 161.65 -439 161.65 -439 116.65 -424 c 1,21,-1
 116.65 -221 l 1,22,-1
 201.25 -221 l 1,23,24
 206.65 -289 206.65 -289 232.3 -318.5 c 128,-1,25
 257.95 -348 257.95 -348 311.95 -348 c 0,26,27
 361.45 -348 361.45 -348 391.6 -317.5 c 128,-1,28
 421.75 -287 421.75 -287 455.05 -195 c 1,0,-1
EndSplineSet
KernsSLIFO: 46 -272 0 0 44 -272 0 0
EndChar
StartChar: z
Encoding: 122 122 122
Width: 1025
Flags: W
Fore
128.1 0 m 1,0,-1
 128.1 86 l 1,1,-1
 727.5 956 l 1,2,-1
 253.2 956 l 1,3,-1
 253.2 772 l 1,4,-1
 157.8 772 l 1,5,-1
 157.8 1063 l 1,6,-1
 940.8 1063 l 1,7,-1
 940.8 977 l 1,8,-1
 341.4 106 l 1,9,-1
 861.6 106 l 1,10,-1
 861.6 299 l 1,11,-1
 957.9 299 l 1,12,-1
 957.9 0 l 1,13,-1
 128.1 0 l 1,0,-1
EndSplineSet
EndChar
StartChar: braceleft
Encoding: 123 123 123
Width: 1237
Flags: W
Fore
1007.45 -229 m 1,0,-1
 1007.45 -334 l 1,1,-1
 951.65 -334 l 2,2,3
 727.55 -334 727.55 -334 651.5 -260 c 128,-1,4
 575.45 -186 575.45 -186 575.45 35 c 2,5,-1
 575.45 293 l 2,6,7
 575.45 443 575.45 443 526.85 501 c 128,-1,8
 478.25 559 478.25 559 350.45 559 c 2,9,-1
 295.55 559 l 1,10,-1
 295.55 664 l 1,11,-1
 350.45 664 l 2,12,13
 478.25 664 478.25 664 526.85 722 c 128,-1,14
 575.45 780 575.45 780 575.45 930 c 2,15,-1
 575.45 1188 l 2,16,17
 575.45 1409 575.45 1409 651.5 1482.5 c 128,-1,18
 727.55 1556 727.55 1556 951.65 1556 c 2,19,-1
 1007.45 1556 l 1,20,-1
 1007.45 1452 l 1,21,-1
 946.25 1452 l 2,22,23
 819.35 1452 819.35 1452 780.65 1408 c 128,-1,24
 741.95 1364 741.95 1364 741.95 1223 c 2,25,-1
 741.95 936 l 2,26,27
 741.95 778 741.95 778 696.95 710 c 128,-1,28
 651.95 642 651.95 642 534.95 612 c 1,29,30
 653.75 578 653.75 578 697.85 511 c 128,-1,31
 741.95 444 741.95 444 741.95 287 c 2,32,-1
 741.95 0 l 2,33,34
 741.95 -141 741.95 -141 780.65 -185 c 128,-1,35
 819.35 -229 819.35 -229 946.25 -229 c 2,36,-1
 1007.45 -229 l 1,0,-1
EndSplineSet
EndChar
StartChar: bar
Encoding: 124 124 124
Width: 655
Flags: W
Fore
417.9 1565 m 1,0,-1
 417.9 -483 l 1,1,-1
 272.1 -483 l 1,2,-1
 272.1 1565 l 1,3,-1
 417.9 1565 l 1,0,-1
EndSplineSet
EndChar
StartChar: braceright
Encoding: 125 125 125
Width: 1237
Flags: W
Fore
295.55 -229 m 1,0,-1
 358.55 -229 l 2,1,2
 484.55 -229 484.55 -229 522.8 -185.5 c 128,-1,3
 561.05 -142 561.05 -142 561.05 0 c 2,4,-1
 561.05 287 l 2,5,6
 561.05 444 561.05 444 605.15 511 c 128,-1,7
 649.25 578 649.25 578 767.15 612 c 1,8,9
 650.15 642 650.15 642 605.6 710 c 128,-1,10
 561.05 778 561.05 778 561.05 936 c 2,11,-1
 561.05 1223 l 2,12,13
 561.05 1365 561.05 1365 522.8 1408.5 c 128,-1,14
 484.55 1452 484.55 1452 358.55 1452 c 2,15,-1
 295.55 1452 l 1,16,-1
 295.55 1556 l 1,17,-1
 352.25 1556 l 2,18,19
 576.35 1556 576.35 1556 651.5 1482.5 c 128,-1,20
 726.65 1409 726.65 1409 726.65 1188 c 2,21,-1
 726.65 930 l 2,22,23
 726.65 780 726.65 780 775.25 722 c 128,-1,24
 823.85 664 823.85 664 951.65 664 c 2,25,-1
 1007.45 664 l 1,26,-1
 1007.45 559 l 1,27,-1
 951.65 559 l 2,28,29
 823.85 559 823.85 559 775.25 501 c 128,-1,30
 726.65 443 726.65 443 726.65 293 c 2,31,-1
 726.65 35 l 2,32,33
 726.65 -186 726.65 -186 651.5 -260 c 128,-1,34
 576.35 -334 576.35 -334 352.25 -334 c 2,35,-1
 295.55 -334 l 1,36,-1
 295.55 -229 l 1,0,-1
EndSplineSet
EndChar
StartChar: asciitilde
Encoding: 126 126 126
Width: 1630
Flags: W
Fore
1434.9 807 m 1,0,-1
 1434.9 659 l 1,1,2
 1344.9 571 1344.9 571 1263.9 529 c 128,-1,3
 1182.9 487 1182.9 487 1099.2 487 c 0,4,5
 1012.8 487 1012.8 487 856.2 553 c 2,6,-1
 847.2 557 l 2,7,8
 837.3 561 837.3 561 817.5 570 c 0,9,10
 685.2 627 685.2 627 599.7 627 c 0,11,12
 516.9 627 516.9 627 439.05 590.5 c 128,-1,13
 361.2 554 361.2 554 281.1 477 c 1,14,-1
 281.1 629 l 1,15,16
 371.1 716 371.1 716 451.65 756.5 c 128,-1,17
 532.2 797 532.2 797 616.8 797 c 0,18,19
 703.2 797 703.2 797 859.8 731 c 2,20,-1
 868.8 727 l 2,21,22
 878.7 723 878.7 723 896.7 715 c 0,23,24
 1027.2 657 1027.2 657 1114.5 657 c 0,25,26
 1197.3 657 1197.3 657 1276.5 694 c 128,-1,27
 1355.7 731 1355.7 731 1434.9 807 c 1,0,-1
EndSplineSet
EndChar
StartChar: exclamdown
Encoding: 161 161 161
Width: 781
Flags: W
Fore
292.3 1389 m 0,0,1
 292.3 1445 292.3 1445 326.5 1483.5 c 128,-1,2
 360.7 1522 360.7 1522 412 1522 c 0,3,4
 461.5 1522 461.5 1522 496.6 1483 c 128,-1,5
 531.7 1444 531.7 1444 531.7 1389 c 0,6,7
 531.7 1333 531.7 1333 496.6 1294 c 128,-1,8
 461.5 1255 461.5 1255 412 1255 c 0,9,10
 360.7 1255 360.7 1255 326.5 1294 c 128,-1,11
 292.3 1333 292.3 1333 292.3 1389 c 0,0,1
295.9 0 m 1,12,-1
 356.2 821 l 1,13,-1
 356.2 1073 l 1,14,-1
 466.9 1073 l 1,15,-1
 466.9 821 l 1,16,-1
 528.1 0 l 1,17,-1
 295.9 0 l 1,12,-1
EndSplineSet
EndChar
StartChar: cent
Encoding: 162 162 162
Width: 1235
Flags: W
Fore
629 991 m 1,0,1
 512.9 976 512.9 976 454.85 861 c 128,-1,2
 396.8 746 396.8 746 396.8 532 c 0,3,4
 396.8 317 396.8 317 454.85 202 c 128,-1,5
 512.9 87 512.9 87 629 72 c 1,6,-1
 629 991 l 1,0,1
1056.5 319 m 1,7,8
 1025 165 1025 165 940.4 78.5 c 128,-1,9
 855.8 -8 855.8 -8 719 -27 c 1,10,-1
 719 -297 l 1,11,-1
 629 -297 l 1,12,-1
 629 -27 l 1,13,14
 431 -8 431 -8 316.25 142 c 128,-1,15
 201.5 292 201.5 292 201.5 532 c 0,16,17
 201.5 774 201.5 774 316.25 923.5 c 128,-1,18
 431 1073 431 1073 629 1090 c 1,19,-1
 629 1356 l 1,20,-1
 719 1356 l 1,21,-1
 719 1090 l 1,22,23
 801.8 1082 801.8 1082 877.4 1059 c 128,-1,24
 953 1036 953 1036 1025 997 c 1,25,-1
 1025 725 l 1,26,-1
 929.6 725 l 1,27,28
 912.5 848 912.5 848 860.75 913.5 c 128,-1,29
 809 979 809 979 719 991 c 1,30,-1
 719 72 l 1,31,32
 800 84 800 84 852.2 147.5 c 128,-1,33
 904.4 211 904.4 211 923.3 319 c 1,34,-1
 1056.5 319 l 1,7,8
EndSplineSet
EndChar
StartChar: sterling
Encoding: 163 163 163
Width: 1235
Flags: W
Fore
1054.85 1225 m 1,0,-1
 960.35 1225 l 1,1,2
 951.35 1320 951.35 1320 900.5 1370.5 c 128,-1,3
 849.65 1421 849.65 1421 763.25 1421 c 0,4,5
 648.95 1421 648.95 1421 594.5 1343.5 c 128,-1,6
 540.05 1266 540.05 1266 540.05 1102 c 2,7,-1
 540.05 807 l 1,8,-1
 910.85 807 l 1,9,-1
 910.85 700 l 1,10,-1
 540.05 700 l 1,11,-1
 540.05 121 l 1,12,-1
 970.25 121 l 1,13,-1
 970.25 348 l 1,14,-1
 1074.65 348 l 1,15,-1
 1074.65 0 l 1,16,-1
 186.35 0 l 1,17,-1
 186.35 106 l 1,18,-1
 360.05 106 l 1,19,-1
 360.05 700 l 1,20,-1
 186.35 700 l 1,21,-1
 186.35 807 l 1,22,-1
 360.05 807 l 1,23,-1
 360.05 1102 l 2,24,25
 360.05 1307 360.05 1307 463.1 1413.5 c 128,-1,26
 566.15 1520 566.15 1520 765.05 1520 c 0,27,28
 841.55 1520 841.55 1520 914.45 1507.5 c 128,-1,29
 987.35 1495 987.35 1495 1054.85 1470 c 1,30,-1
 1054.85 1225 l 1,0,-1
EndSplineSet
EndChar
StartChar: currency
Encoding: 164 164 164
Width: 1238
Flags: W
Fore
876.3 985 m 1,0,-1
 1064.4 1192 l 1,1,-1
 1149 1098 l 1,2,-1
 960.9 889 l 1,3,4
 999.6 829 999.6 829 1018.05 768 c 128,-1,5
 1036.5 707 1036.5 707 1036.5 641 c 0,6,7
 1036.5 572 1036.5 572 1018.05 513 c 128,-1,8
 999.6 454 999.6 454 959.1 397 c 1,9,-1
 1145.4 190 l 1,10,-1
 1059 96 l 1,11,-1
 872.7 301 l 1,12,13
 822.3 257 822.3 257 768.75 236 c 128,-1,14
 715.2 215 715.2 215 653.1 215 c 0,15,16
 595.5 215 595.5 215 539.25 235.5 c 128,-1,17
 483 256 483 256 428.1 297 c 1,18,-1
 244.5 92 l 1,19,-1
 159 186 l 1,20,-1
 343.5 393 l 1,21,22
 306.6 455 306.6 455 288.15 516 c 128,-1,23
 269.7 577 269.7 577 269.7 641 c 0,24,25
 269.7 711 269.7 711 288.6 770.5 c 128,-1,26
 307.5 830 307.5 830 347.1 887 c 1,27,-1
 160.8 1094 l 1,28,-1
 246.3 1188 l 1,29,-1
 432.6 981 l 1,30,31
 483 1025 483 1025 537 1046 c 128,-1,32
 591 1067 591 1067 653.1 1067 c 0,33,34
 712.5 1067 712.5 1067 767.4 1047 c 128,-1,35
 822.3 1027 822.3 1027 876.3 985 c 1,0,-1
895.2 643 m 0,36,37
 895.2 755 895.2 755 825.45 832 c 128,-1,38
 755.7 909 755.7 909 653.1 909 c 0,39,40
 552.3 909 552.3 909 482.1 832 c 128,-1,41
 411.9 755 411.9 755 411.9 643 c 0,42,43
 411.9 529 411.9 529 481.65 451 c 128,-1,44
 551.4 373 551.4 373 653.1 373 c 0,45,46
 754.8 373 754.8 373 825 451.5 c 128,-1,47
 895.2 530 895.2 530 895.2 643 c 0,36,37
EndSplineSet
EndChar
StartChar: yen
Encoding: 165 165 165
Width: 1237
Flags: W
Fore
388.65 0 m 1,0,-1
 388.65 106 l 1,1,-1
 560.55 106 l 1,2,-1
 560.55 473 l 1,3,-1
 196.95 473 l 1,4,-1
 196.95 578 l 1,5,-1
 560.55 578 l 1,6,-1
 560.55 643 l 1,7,-1
 486.75 784 l 1,8,-1
 196.95 784 l 1,9,-1
 196.95 889 l 1,10,-1
 433.65 889 l 1,11,-1
 175.35 1386 l 1,12,-1
 50.25 1386 l 1,13,-1
 50.25 1493 l 1,14,-1
 547.95 1493 l 1,15,-1
 547.95 1386 l 1,16,-1
 390.45 1386 l 1,17,-1
 699.15 782 l 1,18,-1
 1004.25 1386 l 1,19,-1
 853.95 1386 l 1,20,-1
 853.95 1493 l 1,21,-1
 1242.75 1493 l 1,22,-1
 1242.75 1386 l 1,23,-1
 1114.95 1386 l 1,24,-1
 859.35 889 l 1,25,-1
 1104.15 889 l 1,26,-1
 1104.15 784 l 1,27,-1
 805.35 784 l 1,28,-1
 741.45 662 l 1,29,-1
 741.45 578 l 1,30,-1
 1104.15 578 l 1,31,-1
 1104.15 473 l 1,32,-1
 741.45 473 l 1,33,-1
 741.45 106 l 1,34,-1
 912.45 106 l 1,35,-1
 912.45 0 l 1,36,-1
 388.65 0 l 1,0,-1
EndSplineSet
EndChar
StartChar: brokenbar
Encoding: 166 166 166
Width: 655
Flags: W
Fore
417.9 408 m 1,0,-1
 417.9 -350 l 1,1,-1
 272.1 -350 l 1,2,-1
 272.1 408 l 1,3,-1
 417.9 408 l 1,0,-1
417.9 1432 m 1,4,-1
 417.9 674 l 1,5,-1
 272.1 674 l 1,6,-1
 272.1 1432 l 1,7,-1
 417.9 1432 l 1,4,-1
EndSplineSet
EndChar
StartChar: section
Encoding: 167 167 167
Width: 972
Flags: W
Fore
392.3 936 m 1,0,1
 331.1 890 331.1 890 306.35 848.5 c 128,-1,2
 281.6 807 281.6 807 281.6 754 c 0,3,4
 281.6 622 281.6 622 608.3 419 c 2,5,-1
 637.1 401 l 1,6,7
 689.3 439 689.3 439 715.85 487 c 128,-1,8
 742.4 535 742.4 535 742.4 592 c 0,9,10
 742.4 667 742.4 667 679.85 734 c 128,-1,11
 617.3 801 617.3 801 392.3 936 c 1,0,1
797.3 1464 m 1,12,-1
 797.3 1262 l 1,13,-1
 714.5 1262 l 1,14,15
 712.7 1334 712.7 1334 665.9 1375.5 c 128,-1,16
 619.1 1417 619.1 1417 539.9 1417 c 0,17,18
 449.9 1417 449.9 1417 398.15 1368.5 c 128,-1,19
 346.4 1320 346.4 1320 346.4 1237 c 0,20,21
 346.4 1140 346.4 1140 567.8 1003 c 0,22,23
 591.2 988 591.2 988 602 981 c 0,24,25
 777.5 872 777.5 872 833.75 797 c 128,-1,26
 890 722 890 722 890 623 c 0,27,28
 890 528 890 528 842.75 465 c 128,-1,29
 795.5 402 795.5 402 692.9 358 c 1,30,31
 763.1 311 763.1 311 795.95 248 c 128,-1,32
 828.8 185 828.8 185 828.8 94 c 0,33,34
 828.8 -37 828.8 -37 737 -116 c 128,-1,35
 645.2 -195 645.2 -195 489.5 -195 c 0,36,37
 408.5 -195 408.5 -195 336.5 -181.5 c 128,-1,38
 264.5 -168 264.5 -168 195.2 -139 c 1,39,-1
 195.2 70 l 1,40,-1
 278 69 l 1,41,42
 279.8 -11 279.8 -11 328.4 -51.5 c 128,-1,43
 377 -92 377 -92 473.3 -92 c 0,44,45
 566.9 -92 566.9 -92 621.35 -43 c 128,-1,46
 675.8 6 675.8 6 675.8 90 c 0,47,48
 675.8 203 675.8 203 470.6 330 c 0,49,50
 451.7 342 451.7 342 441.8 348 c 0,51,52
 247.4 470 247.4 470 190.7 545 c 128,-1,53
 134 620 134 620 134 719 c 0,54,55
 134 813 134 813 187.1 879.5 c 128,-1,56
 240.2 946 240.2 946 338.3 977 c 1,57,58
 264.5 1026 264.5 1026 228.95 1089 c 128,-1,59
 193.4 1152 193.4 1152 193.4 1231 c 0,60,61
 193.4 1361 193.4 1361 283.4 1440.5 c 128,-1,62
 373.4 1520 373.4 1520 522.8 1520 c 0,63,64
 593 1520 593 1520 661.4 1506 c 128,-1,65
 729.8 1492 729.8 1492 797.3 1464 c 1,12,-1
EndSplineSet
EndChar
StartChar: dieresis
Encoding: 168 168 168
Width: 972
Flags: W
Fore
336.5 1569 m 0,0,1
 379.7 1569 379.7 1569 410.75 1534.5 c 128,-1,2
 441.8 1500 441.8 1500 441.8 1452 c 0,3,4
 441.8 1401 441.8 1401 412.1 1368 c 128,-1,5
 382.4 1335 382.4 1335 336.5 1335 c 0,6,7
 291.5 1335 291.5 1335 261.8 1368 c 128,-1,8
 232.1 1401 232.1 1401 232.1 1452 c 0,9,10
 232.1 1500 232.1 1500 263.15 1534.5 c 128,-1,11
 294.2 1569 294.2 1569 336.5 1569 c 0,0,1
687.5 1569 m 0,12,13
 729.8 1569 729.8 1569 760.85 1534.5 c 128,-1,14
 791.9 1500 791.9 1500 791.9 1452 c 0,15,16
 791.9 1401 791.9 1401 762.2 1368 c 128,-1,17
 732.5 1335 732.5 1335 687.5 1335 c 0,18,19
 641.6 1335 641.6 1335 611.9 1368 c 128,-1,20
 582.2 1401 582.2 1401 582.2 1452 c 0,21,22
 582.2 1500 582.2 1500 613.25 1534.5 c 128,-1,23
 644.3 1569 644.3 1569 687.5 1569 c 0,12,13
EndSplineSet
Ligature: 0 1 'liga' space uni0308
EndChar
StartChar: copyright
Encoding: 169 169 169
Width: 1945
Flags: W
Fore
1340.8 573 m 1,0,1
 1316.5 442 1316.5 442 1235.05 371.5 c 128,-1,2
 1153.6 301 1153.6 301 1025.8 301 c 0,3,4
 857.5 301 857.5 301 757.15 421 c 128,-1,5
 656.8 541 656.8 541 656.8 741 c 0,6,7
 656.8 942 656.8 942 758.05 1063 c 128,-1,8
 859.3 1184 859.3 1184 1025.8 1184 c 0,9,10
 1097.8 1184 1097.8 1184 1167.55 1165.5 c 128,-1,11
 1237.3 1147 1237.3 1147 1315.6 1108 c 1,12,-1
 1315.6 895 l 1,13,-1
 1240 895 l 1,14,15
 1224.7 1004 1224.7 1004 1173.4 1055 c 128,-1,16
 1122.1 1106 1122.1 1106 1027.6 1106 c 0,17,18
 920.5 1106 920.5 1106 866.05 1014.5 c 128,-1,19
 811.6 923 811.6 923 811.6 741 c 0,20,21
 811.6 560 811.6 560 865.6 469.5 c 128,-1,22
 919.6 379 919.6 379 1025.8 379 c 0,23,24
 1113.1 379 1113.1 379 1163.95 426.5 c 128,-1,25
 1214.8 474 1214.8 474 1233.7 573 c 1,26,-1
 1340.8 573 l 1,0,1
1024 1485 m 0,27,28
 1160.8 1485 1160.8 1485 1279.15 1430 c 128,-1,29
 1397.5 1375 1397.5 1375 1495.6 1266 c 0,30,31
 1593.7 1157 1593.7 1157 1642.3 1026 c 128,-1,32
 1690.9 895 1690.9 895 1690.9 741 c 0,33,34
 1690.9 589 1690.9 589 1642.3 458.5 c 128,-1,35
 1593.7 328 1593.7 328 1495.6 219 c 0,36,37
 1397.5 110 1397.5 110 1279.15 55 c 128,-1,38
 1160.8 0 1160.8 0 1024 0 c 0,39,40
 887.2 0 887.2 0 768.85 55 c 128,-1,41
 650.5 110 650.5 110 552.4 219 c 0,42,43
 454.3 328 454.3 328 405.7 458.5 c 128,-1,44
 357.1 589 357.1 589 357.1 741 c 0,45,46
 357.1 895 357.1 895 405.7 1026 c 128,-1,47
 454.3 1157 454.3 1157 552.4 1266 c 0,48,49
 650.5 1375 650.5 1375 768.85 1430 c 128,-1,50
 887.2 1485 887.2 1485 1024 1485 c 0,27,28
1024 1382 m 0,51,52
 906.1 1382 906.1 1382 804.4 1335 c 128,-1,53
 702.7 1288 702.7 1288 618.1 1194 c 0,54,55
 534.4 1101 534.4 1101 491.65 986.5 c 128,-1,56
 448.9 872 448.9 872 448.9 741 c 0,57,58
 448.9 611 448.9 611 491.65 498 c 128,-1,59
 534.4 385 534.4 385 618.1 291 c 0,60,61
 702.7 197 702.7 197 804.4 149.5 c 128,-1,62
 906.1 102 906.1 102 1024 102 c 0,63,64
 1142.8 102 1142.8 102 1244.95 149.5 c 128,-1,65
 1347.1 197 1347.1 197 1431.7 291 c 0,66,67
 1515.4 384 1515.4 384 1557.25 497 c 128,-1,68
 1599.1 610 1599.1 610 1599.1 741 c 0,69,70
 1599.1 874 1599.1 874 1556.8 987.5 c 128,-1,71
 1514.5 1101 1514.5 1101 1431.7 1194 c 0,72,73
 1347.1 1288 1347.1 1288 1244.95 1335 c 128,-1,74
 1142.8 1382 1142.8 1382 1024 1382 c 0,51,52
EndSplineSet
EndChar
StartChar: ordfeminine
Encoding: 170 170 170
Width: 927
Flags: W
Fore
806.35 1219 m 2,0,-1
 806.35 840 l 1,1,-1
 878.35 840 l 1,2,-1
 878.35 756 l 1,3,-1
 673.15 756 l 1,4,-1
 673.15 836 l 1,5,6
 629.95 785 629.95 785 573.7 761 c 128,-1,7
 517.45 737 517.45 737 439.15 737 c 0,8,9
 312.25 737 312.25 737 238.45 802 c 128,-1,10
 164.65 867 164.65 867 164.65 979 c 0,11,12
 164.65 1093 164.65 1093 250.15 1157 c 128,-1,13
 335.65 1221 335.65 1221 488.65 1221 c 2,14,-1
 673.15 1221 l 1,15,-1
 673.15 1266 l 2,16,17
 673.15 1350 673.15 1350 620.95 1397 c 128,-1,18
 568.75 1444 568.75 1444 474.25 1444 c 0,19,20
 395.95 1444 395.95 1444 350.05 1409 c 128,-1,21
 304.15 1374 304.15 1374 291.55 1305 c 1,22,-1
 223.15 1305 l 1,23,-1
 223.15 1462 l 1,24,25
 292.45 1491 292.45 1491 357.25 1505.5 c 128,-1,26
 422.05 1520 422.05 1520 481.45 1520 c 0,27,28
 640.75 1520 640.75 1520 723.55 1443 c 128,-1,29
 806.35 1366 806.35 1366 806.35 1219 c 2,0,-1
673.15 997 m 2,30,-1
 673.15 1145 l 1,31,-1
 503.95 1145 l 2,32,33
 409.45 1145 409.45 1145 360.85 1105 c 128,-1,34
 312.25 1065 312.25 1065 312.25 987 c 0,35,36
 312.25 906 312.25 906 357.7 863.5 c 128,-1,37
 403.15 821 403.15 821 490.45 821 c 0,38,39
 573.25 821 573.25 821 623.2 869.5 c 128,-1,40
 673.15 918 673.15 918 673.15 997 c 2,30,-1
201.55 639 m 1,41,-1
 829.75 639 l 1,42,-1
 829.75 535 l 1,43,-1
 201.55 535 l 1,44,-1
 201.55 639 l 1,41,-1
EndSplineSet
EndChar
StartChar: guillemotleft
Encoding: 171 171 171
Width: 1188
Flags: W
Fore
1015.85 1059 m 1,0,-1
 1015.85 944 l 1,1,-1
 748.55 600 l 1,2,-1
 1015.85 256 l 1,3,-1
 1015.85 141 l 1,4,-1
 593.75 559 l 1,5,-1
 593.75 641 l 1,6,-1
 1015.85 1059 l 1,0,-1
625.25 1059 m 1,7,-1
 625.25 944 l 1,8,-1
 357.95 600 l 1,9,-1
 625.25 256 l 1,10,-1
 625.25 141 l 1,11,-1
 203.15 559 l 1,12,-1
 203.15 641 l 1,13,-1
 625.25 1059 l 1,7,-1
EndSplineSet
EndChar
StartChar: logicalnot
Encoding: 172 172 172
Width: 1630
Flags: W
Fore
281.1 862 m 1,0,-1
 1434.9 862 l 1,1,-1
 1434.9 287 l 1,2,-1
 1290.9 287 l 1,3,-1
 1290.9 700 l 1,4,-1
 281.1 700 l 1,5,-1
 281.1 862 l 1,0,-1
EndSplineSet
EndChar
StartChar: sfthyphen
Encoding: 173 173 173
Width: 657
Flags: W
Fore
115.6 627 m 1,0,-1
 576.4 627 l 1,1,-1
 576.4 471 l 1,2,-1
 115.6 471 l 1,3,-1
 115.6 627 l 1,0,-1
EndSplineSet
EndChar
StartChar: registered
Encoding: 174 174 174
Width: 1945
Flags: W
Fore
907.9 791 m 1,0,-1
 1020.4 791 l 2,1,2
 1095.1 791 1095.1 791 1132.45 829 c 128,-1,3
 1169.8 867 1169.8 867 1169.8 942 c 0,4,5
 1169.8 1016 1169.8 1016 1132 1054 c 128,-1,6
 1094.2 1092 1094.2 1092 1020.4 1092 c 2,7,-1
 907.9 1092 l 1,8,-1
 907.9 791 l 1,0,-1
1129.3 754 m 1,9,10
 1167.1 740 1167.1 740 1193.65 714.5 c 128,-1,11
 1220.2 689 1220.2 689 1238.2 649 c 2,12,-1
 1342.6 420 l 1,13,-1
 1411 420 l 1,14,-1
 1411 352 l 1,15,-1
 1240 352 l 1,16,-1
 1122.1 606 l 1,17,18
 1090.6 676 1090.6 676 1062.7 699.5 c 128,-1,19
 1034.8 723 1034.8 723 990.7 723 c 2,20,-1
 907.9 723 l 1,21,-1
 907.9 420 l 1,22,-1
 983.5 420 l 1,23,-1
 983.5 352 l 1,24,-1
 698.2 352 l 1,25,-1
 698.2 420 l 1,26,-1
 772.9 420 l 1,27,-1
 772.9 1092 l 1,28,-1
 698.2 1092 l 1,29,-1
 698.2 1159 l 1,30,-1
 1071.7 1159 l 2,31,32
 1186.9 1159 1186.9 1159 1245.4 1103 c 128,-1,33
 1303.9 1047 1303.9 1047 1303.9 938 c 0,34,35
 1303.9 855 1303.9 855 1260.7 809.5 c 128,-1,36
 1217.5 764 1217.5 764 1129.3 754 c 1,9,10
1024 1382 m 0,37,38
 906.1 1382 906.1 1382 804.4 1335 c 128,-1,39
 702.7 1288 702.7 1288 618.1 1194 c 0,40,41
 534.4 1101 534.4 1101 491.65 986.5 c 128,-1,42
 448.9 872 448.9 872 448.9 741 c 0,43,44
 448.9 611 448.9 611 491.65 498 c 128,-1,45
 534.4 385 534.4 385 618.1 291 c 0,46,47
 702.7 197 702.7 197 804.4 149.5 c 128,-1,48
 906.1 102 906.1 102 1024 102 c 0,49,50
 1142.8 102 1142.8 102 1244.95 149.5 c 128,-1,51
 1347.1 197 1347.1 197 1431.7 291 c 0,52,53
 1515.4 384 1515.4 384 1557.25 497 c 128,-1,54
 1599.1 610 1599.1 610 1599.1 741 c 0,55,56
 1599.1 874 1599.1 874 1556.8 987.5 c 128,-1,57
 1514.5 1101 1514.5 1101 1431.7 1194 c 0,58,59
 1347.1 1288 1347.1 1288 1244.95 1335 c 128,-1,60
 1142.8 1382 1142.8 1382 1024 1382 c 0,37,38
1024 1485 m 0,61,62
 1160.8 1485 1160.8 1485 1279.15 1430 c 128,-1,63
 1397.5 1375 1397.5 1375 1495.6 1266 c 0,64,65
 1593.7 1157 1593.7 1157 1642.3 1026 c 128,-1,66
 1690.9 895 1690.9 895 1690.9 741 c 0,67,68
 1690.9 589 1690.9 589 1642.3 458.5 c 128,-1,69
 1593.7 328 1593.7 328 1495.6 219 c 0,70,71
 1397.5 110 1397.5 110 1279.15 55 c 128,-1,72
 1160.8 0 1160.8 0 1024 0 c 0,73,74
 887.2 0 887.2 0 768.85 55 c 128,-1,75
 650.5 110 650.5 110 552.4 219 c 0,76,77
 454.3 328 454.3 328 405.7 458.5 c 128,-1,78
 357.1 589 357.1 589 357.1 741 c 0,79,80
 357.1 895 357.1 895 405.7 1026 c 128,-1,81
 454.3 1157 454.3 1157 552.4 1266 c 0,82,83
 650.5 1375 650.5 1375 768.85 1430 c 128,-1,84
 887.2 1485 887.2 1485 1024 1485 c 0,61,62
EndSplineSet
EndChar
StartChar: macron
Encoding: 175 175 175
Width: 972
Flags: W
Fore
242.9 1526 m 1,0,-1
 781.1 1526 l 1,1,-1
 781.1 1378 l 1,2,-1
 242.9 1378 l 1,3,-1
 242.9 1526 l 1,0,-1
EndSplineSet
Ligature: 0 1 'liga' space uni0304
EndChar
StartChar: degree
Encoding: 176 176 176
Width: 972
Flags: W
Fore
512 1382 m 0,0,1
 443.6 1382 443.6 1382 396.8 1329.5 c 128,-1,2
 350 1277 350 1277 350 1200 c 0,3,4
 350 1124 350 1124 396.35 1073 c 128,-1,5
 442.7 1022 442.7 1022 512 1022 c 0,6,7
 580.4 1022 580.4 1022 627.2 1073.5 c 128,-1,8
 674 1125 674 1125 674 1200 c 0,9,10
 674 1275 674 1275 626.3 1328.5 c 128,-1,11
 578.6 1382 578.6 1382 512 1382 c 0,0,1
512 1520 m 0,12,13
 569.6 1520 569.6 1520 622.7 1495.5 c 128,-1,14
 675.8 1471 675.8 1471 714.5 1425 c 1,15,16
 755.9 1380 755.9 1380 776.6 1323 c 128,-1,17
 797.3 1266 797.3 1266 797.3 1200 c 0,18,19
 797.3 1068 797.3 1068 714.05 976.5 c 128,-1,20
 630.8 885 630.8 885 510.2 885 c 0,21,22
 388.7 885 388.7 885 307.7 975 c 128,-1,23
 226.7 1065 226.7 1065 226.7 1200 c 0,24,25
 226.7 1334 226.7 1334 309.5 1427 c 128,-1,26
 392.3 1520 392.3 1520 512 1520 c 0,12,13
EndSplineSet
EndChar
StartChar: plusminus
Encoding: 177 177 177
Width: 1630
Flags: W
Fore
930 1284 m 1,0,-1
 930 893 l 1,1,-1
 1434.9 893 l 1,2,-1
 1434.9 731 l 1,3,-1
 930 731 l 1,4,-1
 930 340 l 1,5,-1
 786 340 l 1,6,-1
 786 731 l 1,7,-1
 281.1 731 l 1,8,-1
 281.1 893 l 1,9,-1
 786 893 l 1,10,-1
 786 1284 l 1,11,-1
 930 1284 l 1,0,-1
281.1 160 m 1,12,-1
 1434.9 160 l 1,13,-1
 1434.9 0 l 1,14,-1
 281.1 0 l 1,15,-1
 281.1 160 l 1,12,-1
EndSplineSet
EndChar
StartChar: twosuperior
Encoding: 178 178 178
Width: 778
Flags: W
Fore
192.1 1296 m 1,0,-1
 129.1 1296 l 1,1,-1
 129.1 1454 l 1,2,3
 188.5 1486 188.5 1486 251.5 1503 c 128,-1,4
 314.5 1520 314.5 1520 376.6 1520 c 0,5,6
 500.8 1520 500.8 1520 577.75 1454 c 128,-1,7
 654.7 1388 654.7 1388 654.7 1284 c 0,8,9
 654.7 1162 654.7 1162 480.1 988 c 2,10,-1
 463 971 l 1,11,-1
 248.8 756 l 1,12,-1
 595.3 756 l 1,13,-1
 595.3 864 l 1,14,-1
 661.9 864 l 1,15,-1
 661.9 668 l 1,16,-1
 120.1 668 l 1,17,-1
 120.1 743 l 1,18,-1
 376.6 997 l 2,19,20
 454 1074 454 1074 487.3 1135 c 128,-1,21
 520.6 1196 520.6 1196 520.6 1262 c 0,22,23
 520.6 1347 520.6 1347 476.95 1396.5 c 128,-1,24
 433.3 1446 433.3 1446 357.7 1446 c 0,25,26
 287.5 1446 287.5 1446 245.2 1408 c 128,-1,27
 202.9 1370 202.9 1370 192.1 1296 c 1,0,-1
EndSplineSet
EndChar
StartChar: threesuperior
Encoding: 179 179 179
Width: 779
Flags: W
Fore
153.35 1468 m 1,0,1
 219.05 1494 219.05 1494 279.35 1507 c 128,-1,2
 339.65 1520 339.65 1520 392.75 1520 c 0,3,4
 516.95 1520 516.95 1520 584 1466 c 128,-1,5
 651.05 1412 651.05 1412 651.05 1313 c 0,6,7
 651.05 1241 651.05 1241 603.35 1191 c 128,-1,8
 555.65 1141 555.65 1141 470.15 1124 c 1,9,10
 577.25 1108 577.25 1108 631.7 1048.5 c 128,-1,11
 686.15 989 686.15 989 686.15 889 c 0,12,13
 686.15 775 686.15 775 607.4 714 c 128,-1,14
 528.65 653 528.65 653 381.95 653 c 0,15,16
 317.15 653 317.15 653 254.6 667 c 128,-1,17
 192.05 681 192.05 681 130.85 709 c 1,18,-1
 130.85 879 l 1,19,-1
 193.85 878 l 1,20,21
 198.35 804 198.35 804 242.45 765.5 c 128,-1,22
 286.55 727 286.55 727 369.35 727 c 0,23,24
 453.95 727 453.95 727 499.85 771 c 128,-1,25
 545.75 815 545.75 815 545.75 897 c 0,26,27
 545.75 990 545.75 990 499.85 1037.5 c 128,-1,28
 453.95 1085 453.95 1085 363.05 1085 c 2,29,-1
 315.35 1085 l 1,30,-1
 315.35 1159 l 1,31,-1
 339.65 1159 l 2,32,33
 426.95 1159 426.95 1159 471.5 1196 c 128,-1,34
 516.05 1233 516.05 1233 516.05 1307 c 0,35,36
 516.05 1374 516.05 1374 479.6 1410 c 128,-1,37
 443.15 1446 443.15 1446 374.75 1446 c 0,38,39
 300.95 1446 300.95 1446 261.8 1414 c 128,-1,40
 222.65 1382 222.65 1382 216.35 1317 c 1,41,-1
 153.35 1317 l 1,42,-1
 153.35 1468 l 1,0,1
EndSplineSet
EndChar
StartChar: acute
Encoding: 180 180 180
Width: 983
Flags: W
Fore
648.05 1638 m 1,0,-1
 827.15 1638 l 1,1,-1
 521.15 1262 l 1,2,-1
 415.85 1262 l 1,3,-1
 648.05 1638 l 1,0,-1
EndSplineSet
LCarets: 0 65535 '    ' 1 0 
Ligature: 0 1 'liga' space acutecomb
EndChar
StartChar: mu
Encoding: 181 181 181
Width: 1263
Flags: W
Fore
730.9 1063 m 1,0,-1
 1040.5 1063 l 1,1,-1
 1040.5 104 l 1,2,-1
 1197.1 104 l 1,3,-1
 1197.1 0 l 1,4,-1
 874.9 0 l 1,5,-1
 874.9 188 l 1,6,7
 828.1 82 828.1 82 761.95 26.5 c 128,-1,8
 695.8 -29 695.8 -29 614.8 -29 c 0,9,10
 563.5 -29 563.5 -29 521.2 -11 c 128,-1,11
 478.9 7 478.9 7 443.8 43 c 1,12,-1
 443.8 -319 l 1,13,-1
 600.4 -319 l 1,14,-1
 600.4 -426 l 1,15,-1
 118.9 -426 l 1,16,-1
 118.9 -319 l 1,17,-1
 278.2 -319 l 1,18,-1
 278.2 956 l 1,19,-1
 128.8 956 l 1,20,-1
 128.8 1063 l 1,21,-1
 443.8 1063 l 1,22,-1
 443.8 444 l 2,23,24
 443.8 250 443.8 250 487 178 c 128,-1,25
 530.2 106 530.2 106 639.1 106 c 0,26,27
 754.3 106 754.3 106 814.6 200 c 128,-1,28
 874.9 294 874.9 294 874.9 473 c 2,29,-1
 874.9 956 l 1,30,-1
 730.9 956 l 1,31,-1
 730.9 1063 l 1,0,-1
EndSplineSet
EndChar
StartChar: paragraph
Encoding: 182 182 182
Width: 1239
Flags: W
Fore
636.15 1493 m 2,0,-1
 1120.35 1493 l 1,1,-1
 1120.35 1386 l 1,2,-1
 1014.15 1386 l 1,3,-1
 1014.15 -197 l 1,4,-1
 917.85 -197 l 1,5,-1
 917.85 1386 l 1,6,-1
 709.95 1386 l 1,7,-1
 709.95 -197 l 1,8,-1
 613.65 -197 l 1,9,-1
 613.65 649 l 1,10,11
 420.15 666 420.15 666 314.4 776.5 c 128,-1,12
 208.65 887 208.65 887 208.65 1071 c 0,13,14
 208.65 1261 208.65 1261 325.65 1377 c 128,-1,15
 442.65 1493 442.65 1493 636.15 1493 c 2,0,-1
EndSplineSet
EndChar
StartChar: periodcentered
Encoding: 183 183 183
Width: 618
Flags: W
Fore
203.35 711 m 0,0,1
 203.35 767 203.35 767 238 805.5 c 128,-1,2
 272.65 844 272.65 844 323.95 844 c 0,3,4
 373.45 844 373.45 844 408.55 805 c 128,-1,5
 443.65 766 443.65 766 443.65 711 c 0,6,7
 443.65 655 443.65 655 408.55 616.5 c 128,-1,8
 373.45 578 373.45 578 323.95 578 c 0,9,10
 272.65 578 272.65 578 238 616 c 128,-1,11
 203.35 654 203.35 654 203.35 711 c 0,0,1
EndSplineSet
EndChar
StartChar: cedilla
Encoding: 184 184 184
Width: 971
Flags: W
Fore
570 0 m 1,0,1
 627.6 -64 627.6 -64 655.95 -120 c 128,-1,2
 684.3 -176 684.3 -176 684.3 -225 c 0,3,4
 684.3 -306 684.3 -306 627.6 -350.5 c 128,-1,5
 570.9 -395 570.9 -395 470.1 -395 c 0,6,7
 432.3 -395 432.3 -395 392.7 -389 c 128,-1,8
 353.1 -383 353.1 -383 311.7 -371 c 1,9,-1
 311.7 -240 l 1,10,11
 348.6 -257 348.6 -257 384.15 -265.5 c 128,-1,12
 419.7 -274 419.7 -274 451.2 -274 c 0,13,14
 502.5 -274 502.5 -274 532.2 -247.5 c 128,-1,15
 561.9 -221 561.9 -221 561.9 -176 c 0,16,17
 561.9 -148 561.9 -148 542.1 -104 c 128,-1,18
 522.3 -60 522.3 -60 482.7 0 c 1,19,-1
 570 0 l 1,0,1
EndSplineSet
Ligature: 0 1 'liga' space uni0327
EndChar
StartChar: onesuperior
Encoding: 185 185 185
Width: 779
Flags: W
Fore
198.85 668 m 1,0,-1
 198.85 752 l 1,1,-1
 353.65 752 l 1,2,-1
 353.65 1386 l 1,3,-1
 172.75 1280 l 1,4,-1
 172.75 1374 l 1,5,-1
 388.75 1503 l 1,6,-1
 480.55 1503 l 1,7,-1
 480.55 752 l 1,8,-1
 636.25 752 l 1,9,-1
 636.25 668 l 1,10,-1
 198.85 668 l 1,0,-1
EndSplineSet
EndChar
StartChar: ordmasculine
Encoding: 186 186 186
Width: 914
Flags: W
Fore
481 813 m 0,0,1
 576.4 813 576.4 813 624.55 892.5 c 128,-1,2
 672.7 972 672.7 972 672.7 1128 c 0,3,4
 672.7 1284 672.7 1284 624.1 1364 c 128,-1,5
 575.5 1444 575.5 1444 481 1444 c 0,6,7
 387.4 1444 387.4 1444 338.35 1363 c 128,-1,8
 289.3 1282 289.3 1282 289.3 1128 c 0,9,10
 289.3 973 289.3 973 337.9 893 c 128,-1,11
 386.5 813 386.5 813 481 813 c 0,0,1
481 737 m 0,12,13
 323.5 737 323.5 737 228.1 844.5 c 128,-1,14
 132.7 952 132.7 952 132.7 1128 c 0,15,16
 132.7 1305 132.7 1305 228.1 1412.5 c 128,-1,17
 323.5 1520 323.5 1520 481 1520 c 0,18,19
 638.5 1520 638.5 1520 733.9 1412.5 c 128,-1,20
 829.3 1305 829.3 1305 829.3 1128 c 0,21,22
 829.3 951 829.3 951 734.35 844 c 128,-1,23
 639.4 737 639.4 737 481 737 c 0,12,13
171.4 639 m 1,24,-1
 790.6 639 l 1,25,-1
 790.6 535 l 1,26,-1
 171.4 535 l 1,27,-1
 171.4 639 l 1,24,-1
EndSplineSet
EndChar
StartChar: guillemotright
Encoding: 187 187 187
Width: 1192
Flags: W
Fore
628.75 1059 m 1,0,-1
 1050.85 641 l 1,1,-1
 1050.85 559 l 1,2,-1
 628.75 141 l 1,3,-1
 628.75 256 l 1,4,-1
 896.05 600 l 1,5,-1
 628.75 944 l 1,6,-1
 628.75 1059 l 1,0,-1
238.15 1059 m 1,7,-1
 660.25 641 l 1,8,-1
 660.25 559 l 1,9,-1
 238.15 141 l 1,10,-1
 238.15 256 l 1,11,-1
 504.55 600 l 1,12,-1
 238.15 944 l 1,13,-1
 238.15 1059 l 1,7,-1
EndSplineSet
EndChar
StartChar: questiondown
Encoding: 191 191 191
Width: 1045
Flags: W
Fore
757.1 1389 m 0,0,1
 757.1 1333 757.1 1333 722.45 1294 c 128,-1,2
 687.8 1255 687.8 1255 637.4 1255 c 0,3,4
 587.9 1255 587.9 1255 552.8 1294 c 128,-1,5
 517.7 1333 517.7 1333 517.7 1389 c 0,6,7
 517.7 1444 517.7 1444 552.8 1483 c 128,-1,8
 587.9 1522 587.9 1522 637.4 1522 c 0,9,10
 688.7 1522 688.7 1522 722.9 1483.5 c 128,-1,11
 757.1 1445 757.1 1445 757.1 1389 c 0,0,1
956 66 m 1,12,13
 860.6 19 860.6 19 775.1 -4 c 128,-1,14
 689.6 -27 689.6 -27 613.1 -27 c 0,15,16
 414.2 -27 414.2 -27 298.1 80 c 128,-1,17
 182 187 182 187 182 369 c 0,18,19
 182 555 182 555 281.9 673 c 128,-1,20
 381.8 791 381.8 791 582.5 842 c 1,21,-1
 582.5 1096 l 1,22,-1
 693.2 1096 l 1,23,-1
 693.2 768 l 1,24,25
 533.9 725 533.9 725 452.9 624 c 128,-1,26
 371.9 523 371.9 523 371.9 367 c 0,27,28
 371.9 230 371.9 230 438.05 151 c 128,-1,29
 504.2 72 504.2 72 617.6 72 c 0,30,31
 719.3 72 719.3 72 785 137.5 c 128,-1,32
 850.7 203 850.7 203 869.6 326 c 1,33,-1
 956 326 l 1,34,-1
 956 66 l 1,12,13
EndSplineSet
EndChar
StartChar: Aring
Encoding: 197 197 197
Width: 1405
Flags: W
Fore
872.65 1626 m 0,0,1
 872.65 1689 872.65 1689 832.6 1733.5 c 128,-1,2
 792.55 1778 792.55 1778 735.85 1778 c 0,3,4
 678.25 1778 678.25 1778 639.1 1734.5 c 128,-1,5
 599.95 1691 599.95 1691 599.95 1626 c 0,6,7
 599.95 1563 599.95 1563 639.1 1519 c 128,-1,8
 678.25 1475 678.25 1475 735.85 1475 c 0,9,10
 792.55 1475 792.55 1475 832.6 1519 c 128,-1,11
 872.65 1563 872.65 1563 872.65 1626 c 0,0,1
443.35 541 m 1,12,-1
 934.75 541 l 1,13,-1
 689.95 1251 l 1,14,-1
 443.35 541 l 1,12,-1
63.5498 0 m 1,15,-1
 63.5498 106 l 1,16,-1
 181.45 106 l 1,17,-1
 621.55 1384 l 1,18,19
 556.75 1421 556.75 1421 523 1482 c 128,-1,20
 489.25 1543 489.25 1543 489.25 1626 c 0,21,22
 489.25 1740 489.25 1740 561.25 1820.5 c 128,-1,23
 633.25 1901 633.25 1901 735.85 1901 c 0,24,25
 838.45 1901 838.45 1901 910.9 1820.5 c 128,-1,26
 983.35 1740 983.35 1740 983.35 1626 c 0,27,28
 983.35 1546 983.35 1546 948.25 1482.5 c 128,-1,29
 913.15 1419 913.15 1419 848.35 1384 c 1,30,-1
 1291.15 106 l 1,31,-1
 1423.45 106 l 1,32,-1
 1423.45 0 l 1,33,-1
 934.75 0 l 1,34,-1
 934.75 106 l 1,35,-1
 1084.15 106 l 1,36,-1
 971.65 434 l 1,37,-1
 406.45 434 l 1,38,-1
 293.95 106 l 1,39,-1
 441.55 106 l 1,40,-1
 441.55 0 l 1,41,-1
 63.5498 0 l 1,15,-1
EndSplineSet
Ligature: 0 0 'liga' A uni030A
EndChar
StartChar: AE
Encoding: 198 198 198
Width: 1940
Flags: W
Fore
478.85 541 m 1,0,-1
 918.95 541 l 1,1,-1
 918.95 1386 l 1,2,-1
 828.95 1386 l 1,3,-1
 478.85 541 l 1,0,-1
747.95 0 m 1,4,-1
 747.95 106 l 1,5,-1
 918.95 106 l 1,6,-1
 918.95 434 l 1,7,-1
 434.75 434 l 1,8,-1
 297.95 106 l 1,9,-1
 445.55 106 l 1,10,-1
 445.55 0 l 1,11,-1
 63.9502 0 l 1,12,-1
 63.9502 106 l 1,13,-1
 181.85 106 l 1,14,-1
 712.85 1386 l 1,15,-1
 519.35 1386 l 1,16,-1
 519.35 1493 l 1,17,-1
 1829.75 1493 l 1,18,-1
 1829.75 1161 l 1,19,-1
 1719.05 1161 l 1,20,-1
 1719.05 1370 l 1,21,-1
 1099.85 1370 l 1,22,-1
 1099.85 870 l 1,23,-1
 1542.65 870 l 1,24,-1
 1542.65 1057 l 1,25,-1
 1653.35 1057 l 1,26,-1
 1653.35 561 l 1,27,-1
 1542.65 561 l 1,28,-1
 1542.65 748 l 1,29,-1
 1099.85 748 l 1,30,-1
 1099.85 123 l 1,31,-1
 1734.35 123 l 1,32,-1
 1734.35 332 l 1,33,-1
 1845.05 332 l 1,34,-1
 1845.05 0 l 1,35,-1
 747.95 0 l 1,4,-1
EndSplineSet
KernsSLIFO: 45 38 0 0
EndChar
StartChar: Eth
Encoding: 208 208 208
Width: 1570
Flags: W
Fore
544.95 106 m 1,0,-1
 714.15 106 l 2,1,2
 976.05 106 976.05 106 1116.45 272 c 128,-1,3
 1256.85 438 1256.85 438 1256.85 748 c 0,4,5
 1256.85 1058 1256.85 1058 1116.9 1222 c 128,-1,6
 976.95 1386 976.95 1386 714.15 1386 c 2,7,-1
 544.95 1386 l 1,8,-1
 544.95 844 l 1,9,-1
 847.35 844 l 1,10,-1
 847.35 719 l 1,11,-1
 544.95 719 l 1,12,-1
 544.95 106 l 1,0,-1
193.05 0 m 1,13,-1
 193.05 106 l 1,14,-1
 364.05 106 l 1,15,-1
 364.05 719 l 1,16,-1
 184.05 719 l 1,17,-1
 184.05 844 l 1,18,-1
 364.05 844 l 1,19,-1
 364.05 1386 l 1,20,-1
 193.05 1386 l 1,21,-1
 193.05 1493 l 1,22,-1
 727.65 1493 l 2,23,24
 1075.05 1493 1075.05 1493 1269 1296 c 128,-1,25
 1462.95 1099 1462.95 1099 1462.95 748 c 0,26,27
 1462.95 396 1462.95 396 1268.55 198 c 128,-1,28
 1074.15 0 1074.15 0 727.65 0 c 2,29,-1
 193.05 0 l 1,13,-1
EndSplineSet
KernsSLIFO: 221 -36 0 0 193 -36 0 0 194 -36 0 0 376 -36 0 0 195 -36 0 0 192 -36 0 0 196 -36 0 0 89 -36 0 0 86 -36 0 0 65 -36 0 0 46 -73 0 0 45 75 0 0 44 -73 0 0
EndChar
StartChar: multiply
Encoding: 215 215 215
Width: 1630
Flags: W
Fore
1376.45 1104 m 1,0,-1
 959.75 641 l 1,1,-1
 1376.45 180 l 1,2,-1
 1272.95 68 l 1,3,-1
 858.05 528 l 1,4,-1
 443.15 68 l 1,5,-1
 340.55 180 l 1,6,-1
 754.55 641 l 1,7,-1
 340.55 1104 l 1,8,-1
 443.15 1217 l 1,9,-1
 858.05 756 l 1,10,-1
 1272.95 1217 l 1,11,-1
 1376.45 1104 l 1,0,-1
EndSplineSet
EndChar
StartChar: Oslash
Encoding: 216 216 216
Width: 1594
Flags: W
Fore
1176.35 1239 m 1,0,1
 1117.85 1327 1117.85 1327 1034.6 1370 c 128,-1,2
 951.35 1413 951.35 1413 839.75 1413 c 0,3,4
 618.35 1413 618.35 1413 505.85 1244.5 c 128,-1,5
 393.35 1076 393.35 1076 393.35 745 c 0,6,7
 393.35 626 393.35 626 407.75 529.5 c 128,-1,8
 422.15 433 422.15 433 452.75 352 c 1,9,-1
 1176.35 1239 l 1,0,1
500.45 256 m 1,10,11
 558.05 167 558.05 167 642.65 122.5 c 128,-1,12
 727.25 78 727.25 78 839.75 78 c 0,13,14
 1060.25 78 1060.25 78 1172.75 246.5 c 128,-1,15
 1285.25 415 1285.25 415 1285.25 745 c 0,16,17
 1285.25 862 1285.25 862 1270.4 960.5 c 128,-1,18
 1255.55 1059 1255.55 1059 1224.95 1141 c 1,19,-1
 500.45 256 l 1,10,11
1335.65 1276 m 1,20,21
 1413.95 1168 1413.95 1168 1453.1 1036.5 c 128,-1,22
 1492.25 905 1492.25 905 1492.25 745 c 0,23,24
 1492.25 400 1492.25 400 1311.8 185.5 c 128,-1,25
 1131.35 -29 1131.35 -29 839.75 -29 c 0,26,27
 712.85 -29 712.85 -29 605.75 14 c 128,-1,28
 498.65 57 498.65 57 407.75 143 c 1,29,-1
 243.95 -57 l 1,30,-1
 173.75 12 l 1,31,-1
 342.05 219 l 1,32,33
 263.75 324 263.75 324 225.5 454.5 c 128,-1,34
 187.25 585 187.25 585 187.25 745 c 0,35,36
 187.25 1091 187.25 1091 368.15 1305.5 c 128,-1,37
 549.05 1520 549.05 1520 839.75 1520 c 0,38,39
 966.65 1520 966.65 1520 1074.65 1477.5 c 128,-1,40
 1182.65 1435 1182.65 1435 1269.05 1352 c 1,41,-1
 1429.25 1550 l 1,42,-1
 1501.25 1479 l 1,43,-1
 1335.65 1276 l 1,20,21
EndSplineSet
KernsSLIFO: 88 -36 0 0 86 -36 0 0 46 -120 0 0 45 75 0 0 44 -120 0 0
EndChar
StartChar: Thorn
Encoding: 222 222 222
Width: 1316
Flags: W
Fore
526.3 434 m 1,0,-1
 763.9 434 l 2,1,2
 898 434 898 434 968.2 514.5 c 128,-1,3
 1038.4 595 1038.4 595 1038.4 748 c 0,4,5
 1038.4 900 1038.4 900 968.2 980.5 c 128,-1,6
 898 1061 898 1061 763.9 1061 c 2,7,-1
 526.3 1061 l 1,8,-1
 526.3 434 l 1,0,-1
172.6 0 m 1,9,-1
 172.6 106 l 1,10,-1
 343.6 106 l 1,11,-1
 343.6 1386 l 1,12,-1
 172.6 1386 l 1,13,-1
 172.6 1493 l 1,14,-1
 734.2 1493 l 1,15,-1
 734.2 1386 l 1,16,-1
 526.3 1386 l 1,17,-1
 526.3 1167 l 1,18,-1
 808 1167 l 2,19,20
 1009.6 1167 1009.6 1167 1127.5 1053.5 c 128,-1,21
 1245.4 940 1245.4 940 1245.4 748 c 0,22,23
 1245.4 554 1245.4 554 1127.05 440 c 128,-1,24
 1008.7 326 1008.7 326 808 326 c 2,25,-1
 526.3 326 l 1,26,-1
 526.3 106 l 1,27,-1
 734.2 106 l 1,28,-1
 734.2 0 l 1,29,-1
 172.6 0 l 1,9,-1
EndSplineSet
KernsSLIFO: 46 -339 0 0 45 38 0 0 44 -339 0 0
EndChar
StartChar: germandbls
Encoding: 223 223 223
Width: 1298
Flags: W
Fore
912.85 1210 m 1,0,1
 905.65 1329 905.65 1329 843.1 1393.5 c 128,-1,2
 780.55 1458 780.55 1458 673.45 1458 c 0,3,4
 554.65 1458 554.65 1458 499.75 1393.5 c 128,-1,5
 444.85 1329 444.85 1329 444.85 1190 c 2,6,-1
 444.85 0 l 1,7,-1
 119.95 0 l 1,8,-1
 119.95 106 l 1,9,-1
 279.25 106 l 1,10,-1
 279.25 1186 l 2,11,12
 279.25 1362 279.25 1362 382.3 1459 c 128,-1,13
 485.35 1556 485.35 1556 673.45 1556 c 0,14,15
 865.15 1556 865.15 1556 965.5 1452 c 128,-1,16
 1065.85 1348 1065.85 1348 1076.65 1137 c 1,17,-1
 1056.85 1137 l 2,18,19
 926.35 1137 926.35 1137 851.2 1083 c 128,-1,20
 776.05 1029 776.05 1029 776.05 936 c 0,21,22
 776.05 884 776.05 884 800.35 845.5 c 128,-1,23
 824.65 807 824.65 807 890.35 760 c 1,24,-1
 970.45 705 l 1,25,26
 1109.95 606 1109.95 606 1163.5 521 c 128,-1,27
 1217.05 436 1217.05 436 1217.05 322 c 0,28,29
 1217.05 167 1217.05 167 1113.1 69 c 128,-1,30
 1009.15 -29 1009.15 -29 842.65 -29 c 0,31,32
 766.15 -29 766.15 -29 690.55 -10.5 c 128,-1,33
 614.95 8 614.95 8 543.85 43 c 1,34,-1
 543.85 276 l 1,35,-1
 641.95 276 l 1,36,37
 645.55 175 645.55 175 695.5 122.5 c 128,-1,38
 745.45 70 745.45 70 837.25 70 c 0,39,40
 937.15 70 937.15 70 994.3 130.5 c 128,-1,41
 1051.45 191 1051.45 191 1051.45 295 c 0,42,43
 1051.45 379 1051.45 379 1015.45 437.5 c 128,-1,44
 979.45 496 979.45 496 874.15 569 c 2,45,-1
 796.75 623 l 2,46,47
 703.15 688 703.15 688 663.1 752.5 c 128,-1,48
 623.05 817 623.05 817 623.05 899 c 0,49,50
 623.05 1021 623.05 1021 699.1 1103 c 128,-1,51
 775.15 1185 775.15 1185 912.85 1210 c 1,0,1
EndSplineSet
EndChar
StartChar: ae
Encoding: 230 230 230
Width: 1828
Flags: W
Fore
829.7 334 m 2,0,-1
 829.7 559 l 1,1,-1
 616.4 559 l 2,2,3
 493.1 559 493.1 559 432.8 500 c 128,-1,4
 372.5 441 372.5 441 372.5 319 c 0,5,6
 372.5 208 372.5 208 433.7 143 c 128,-1,7
 494.9 78 494.9 78 599.3 78 c 0,8,9
 702.8 78 702.8 78 766.25 149 c 128,-1,10
 829.7 220 829.7 220 829.7 334 c 2,0,-1
927.8 150 m 1,11,12
 853.1 59 853.1 59 762.2 15 c 128,-1,13
 671.3 -29 671.3 -29 558.8 -29 c 0,14,15
 381.5 -29 381.5 -29 284.75 62 c 128,-1,16
 188 153 188 153 188 319 c 0,17,18
 188 484 188 484 295.55 575 c 128,-1,19
 403.1 666 403.1 666 597.5 666 c 2,20,-1
 829.7 666 l 1,21,-1
 829.7 739 l 2,22,23
 829.7 859 829.7 859 764.9 926 c 128,-1,24
 700.1 993 700.1 993 584.9 993 c 0,25,26
 480.5 993 480.5 993 421.1 943.5 c 128,-1,27
 361.7 894 361.7 894 347.3 795 c 1,28,-1
 261.8 795 l 1,29,-1
 261.8 1010 l 1,30,31
 348.2 1051 348.2 1051 429.65 1071.5 c 128,-1,32
 511.1 1092 511.1 1092 588.5 1092 c 0,33,34
 715.4 1092 715.4 1092 802.25 1048.5 c 128,-1,35
 889.1 1005 889.1 1005 938.6 915 c 1,36,37
 1005.2 1003 1005.2 1003 1091.6 1047.5 c 128,-1,38
 1178 1092 1178 1092 1283.3 1092 c 0,39,40
 1500.2 1092 1500.2 1092 1616.3 943 c 128,-1,41
 1732.4 794 1732.4 794 1736 512 c 1,42,-1
 1023.2 512 l 1,43,-1
 1023.2 504 l 2,44,45
 1023.2 289 1023.2 289 1095.65 179.5 c 128,-1,46
 1168.1 70 1168.1 70 1311.2 70 c 0,47,48
 1420.1 70 1420.1 70 1489.85 133.5 c 128,-1,49
 1559.6 197 1559.6 197 1587.5 322 c 1,50,-1
 1719.8 322 l 1,51,52
 1681.1 147 1681.1 147 1574 59 c 128,-1,53
 1466.9 -29 1466.9 -29 1294.1 -29 c 0,54,55
 1184.3 -29 1184.3 -29 1091.15 16.5 c 128,-1,56
 998 62 998 62 927.8 150 c 1,11,12
1541.6 618 m 1,57,58
 1536.2 804 1536.2 804 1470.95 898.5 c 128,-1,59
 1405.7 993 1405.7 993 1283.3 993 c 0,60,61
 1169 993 1169 993 1102.85 898 c 128,-1,62
 1036.7 803 1036.7 803 1023.2 618 c 1,63,-1
 1541.6 618 l 1,57,58
EndSplineSet
EndChar
StartChar: eth
Encoding: 240 240 240
Width: 1171
Flags: W
Fore
800.5 928 m 1,0,1
 760 937 760 937 723.55 941.5 c 128,-1,2
 687.1 946 687.1 946 651.1 946 c 0,3,4
 495.4 946 495.4 946 421.15 839 c 128,-1,5
 346.9 732 346.9 732 346.9 508 c 0,6,7
 346.9 298 346.9 298 417.55 184 c 128,-1,8
 488.2 70 488.2 70 616 70 c 0,9,10
 745.6 70 745.6 70 815.35 184.5 c 128,-1,11
 885.1 299 885.1 299 885.1 512 c 0,12,13
 885.1 624 885.1 624 863.95 729.5 c 128,-1,14
 842.8 835 842.8 835 800.5 928 c 1,0,1
745.6 1307 m 1,15,16
 910.3 1140 910.3 1140 994.45 944.5 c 128,-1,17
 1078.6 749 1078.6 749 1078.6 532 c 0,18,19
 1078.6 278 1078.6 278 952.15 124.5 c 128,-1,20
 825.7 -29 825.7 -29 616 -29 c 0,21,22
 409.9 -29 409.9 -29 281.65 122.5 c 128,-1,23
 153.4 274 153.4 274 153.4 518 c 0,24,25
 153.4 754 153.4 754 280.3 899 c 128,-1,26
 407.2 1044 407.2 1044 612.4 1044 c 0,27,28
 643.9 1044 643.9 1044 677.65 1041 c 128,-1,29
 711.4 1038 711.4 1038 758.2 1030 c 1,30,31
 738.4 1083 738.4 1083 705.55 1136.5 c 128,-1,32
 672.7 1190 672.7 1190 627.7 1245 c 1,33,-1
 337.9 1096 l 1,34,-1
 304.6 1174 l 1,35,-1
 568.3 1309 l 1,36,37
 513.4 1367 513.4 1367 442.75 1407.5 c 128,-1,38
 372.1 1448 372.1 1448 286.6 1470 c 1,39,-1
 302.8 1556 l 1,40,41
 409.9 1530 409.9 1530 503.95 1483 c 128,-1,42
 598 1436 598 1436 680.8 1368 c 1,43,-1
 970.6 1518 l 1,44,-1
 1003.9 1440 l 1,45,-1
 745.6 1307 l 1,15,16
EndSplineSet
KernsSLIFO: 46 -36 0 0
EndChar
StartChar: divide
Encoding: 247 247 247
Width: 1630
Flags: W
Fore
738.3 1012 m 0,0,1
 738.3 1068 738.3 1068 772.95 1106.5 c 128,-1,2
 807.6 1145 807.6 1145 858 1145 c 0,3,4
 907.5 1145 907.5 1145 942.6 1106 c 128,-1,5
 977.7 1067 977.7 1067 977.7 1012 c 0,6,7
 977.7 956 977.7 956 942.6 917.5 c 128,-1,8
 907.5 879 907.5 879 858 879 c 0,9,10
 806.7 879 806.7 879 772.5 917 c 128,-1,11
 738.3 955 738.3 955 738.3 1012 c 0,0,1
738.3 272 m 0,12,13
 738.3 328 738.3 328 772.95 367 c 128,-1,14
 807.6 406 807.6 406 858 406 c 0,15,16
 907.5 406 907.5 406 942.6 367 c 128,-1,17
 977.7 328 977.7 328 977.7 272 c 0,18,19
 977.7 217 977.7 217 942.6 178 c 128,-1,20
 907.5 139 907.5 139 858 139 c 0,21,22
 806.7 139 806.7 139 772.5 177.5 c 128,-1,23
 738.3 216 738.3 216 738.3 272 c 0,12,13
281.1 723 m 1,24,-1
 1434.9 723 l 1,25,-1
 1434.9 561 l 1,26,-1
 281.1 561 l 1,27,-1
 281.1 723 l 1,24,-1
EndSplineSet
EndChar
StartChar: oslash
Encoding: 248 248 248
Width: 1170
Flags: W
Fore
817.25 879 m 1,0,1
 783.05 936 783.05 936 732.65 964.5 c 128,-1,2
 682.25 993 682.25 993 615.65 993 c 0,3,4
 483.35 993 483.35 993 414.95 876 c 128,-1,5
 346.55 759 346.55 759 346.55 532 c 0,6,7
 346.55 460 346.55 460 353.3 401 c 128,-1,8
 360.05 342 360.05 342 372.65 293 c 1,9,-1
 817.25 879 l 1,0,1
413.15 190 m 1,10,11
 449.15 129 449.15 129 499.1 99.5 c 128,-1,12
 549.05 70 549.05 70 615.65 70 c 0,13,14
 747.95 70 747.95 70 816.35 187.5 c 128,-1,15
 884.75 305 884.75 305 884.75 532 c 0,16,17
 884.75 608 884.75 608 878 668.5 c 128,-1,18
 871.25 729 871.25 729 857.75 780 c 1,19,-1
 413.15 190 l 1,10,11
964.85 922 m 1,20,21
 1020.65 848 1020.65 848 1049.45 749 c 128,-1,22
 1078.25 650 1078.25 650 1078.25 532 c 0,23,24
 1078.25 278 1078.25 278 951.8 124.5 c 128,-1,25
 825.35 -29 825.35 -29 615.65 -29 c 0,26,27
 531.05 -29 531.05 -29 459.05 -2.5 c 128,-1,28
 387.05 24 387.05 24 326.75 78 c 1,29,-1
 198.05 -94 l 1,30,-1
 129.65 -31 l 1,31,-1
 263.75 147 l 1,32,33
 208.85 224 208.85 224 180.95 320.5 c 128,-1,34
 153.05 417 153.05 417 153.05 532 c 0,35,36
 153.05 786 153.05 786 279.5 939 c 128,-1,37
 405.95 1092 405.95 1092 615.65 1092 c 0,38,39
 700.25 1092 700.25 1092 772.25 1066.5 c 128,-1,40
 844.25 1041 844.25 1041 901.85 991 c 1,41,-1
 1026.95 1157 l 1,42,-1
 1095.35 1094 l 1,43,-1
 964.85 922 l 1,20,21
EndSplineSet
KernsSLIFO: 46 -36 0 0
EndChar
StartChar: thorn
Encoding: 254 254 254
Width: 1243
Flags: W
Fore
441.35 584 m 2,0,-1
 441.35 479 l 2,1,2
 441.35 287 441.35 287 507.5 186.5 c 128,-1,3
 573.65 86 573.65 86 699.65 86 c 0,4,5
 826.55 86 826.55 86 891.8 199 c 128,-1,6
 957.05 312 957.05 312 957.05 532 c 0,7,8
 957.05 753 957.05 753 891.8 865 c 128,-1,9
 826.55 977 826.55 977 699.65 977 c 0,10,11
 573.65 977 573.65 977 507.5 876 c 128,-1,12
 441.35 775 441.35 775 441.35 584 c 2,0,-1
275.75 1450 m 1,13,-1
 116.45 1450 l 1,14,-1
 116.45 1556 l 1,15,-1
 441.35 1556 l 1,16,-1
 441.35 897 l 1,17,18
 489.95 997 489.95 997 565.1 1044.5 c 128,-1,19
 640.25 1092 640.25 1092 750.95 1092 c 0,20,21
 927.35 1092 927.35 1092 1038.95 937 c 128,-1,22
 1150.55 782 1150.55 782 1150.55 532 c 0,23,24
 1150.55 282 1150.55 282 1038.95 126.5 c 128,-1,25
 927.35 -29 927.35 -29 750.95 -29 c 0,26,27
 640.25 -29 640.25 -29 565.1 18.5 c 128,-1,28
 489.95 66 489.95 66 441.35 166 c 1,29,-1
 441.35 -319 l 1,30,-1
 597.95 -319 l 1,31,-1
 597.95 -426 l 1,32,-1
 116.45 -426 l 1,33,-1
 116.45 -319 l 1,34,-1
 275.75 -319 l 1,35,-1
 275.75 1450 l 1,13,-1
EndSplineSet
KernsSLIFO: 46 -102 0 0 44 -36 0 0
EndChar
StartChar: Dcroat
Encoding: 272 272 272
Width: 1570
Flags: W
Fore
544.95 106 m 1,0,-1
 714.15 106 l 2,1,2
 976.05 106 976.05 106 1116.45 272 c 128,-1,3
 1256.85 438 1256.85 438 1256.85 748 c 0,4,5
 1256.85 1058 1256.85 1058 1116.9 1222 c 128,-1,6
 976.95 1386 976.95 1386 714.15 1386 c 2,7,-1
 544.95 1386 l 1,8,-1
 544.95 844 l 1,9,-1
 847.35 844 l 1,10,-1
 847.35 719 l 1,11,-1
 544.95 719 l 1,12,-1
 544.95 106 l 1,0,-1
193.05 0 m 1,13,-1
 193.05 106 l 1,14,-1
 364.05 106 l 1,15,-1
 364.05 719 l 1,16,-1
 184.05 719 l 1,17,-1
 184.05 844 l 1,18,-1
 364.05 844 l 1,19,-1
 364.05 1386 l 1,20,-1
 193.05 1386 l 1,21,-1
 193.05 1493 l 1,22,-1
 727.65 1493 l 2,23,24
 1075.05 1493 1075.05 1493 1269 1296 c 128,-1,25
 1462.95 1099 1462.95 1099 1462.95 748 c 0,26,27
 1462.95 396 1462.95 396 1268.55 198 c 128,-1,28
 1074.15 0 1074.15 0 727.65 0 c 2,29,-1
 193.05 0 l 1,13,-1
EndSplineSet
KernsSLIFO: 86 -36 0 0 46 -73 0 0 45 38 0 0 44 -73 0 0
EndChar
StartChar: dcroat
Encoding: 273 273 273
Width: 1247
Flags: W
Fore
1035.15 106 m 1,0,-1
 1193.55 106 l 1,1,-1
 1193.55 0 l 1,2,-1
 869.55 0 l 1,3,-1
 869.55 166 l 1,4,5
 820.95 66 820.95 66 745.8 18.5 c 128,-1,6
 670.65 -29 670.65 -29 559.95 -29 c 0,7,8
 383.55 -29 383.55 -29 271.5 126.5 c 128,-1,9
 159.45 282 159.45 282 159.45 532 c 0,10,11
 159.45 782 159.45 782 271.05 937 c 128,-1,12
 382.65 1092 382.65 1092 559.95 1092 c 0,13,14
 670.65 1092 670.65 1092 745.8 1044.5 c 128,-1,15
 820.95 997 820.95 997 869.55 897 c 1,16,-1
 869.55 1227 l 1,17,-1
 576.15 1227 l 1,18,-1
 576.15 1333 l 1,19,-1
 869.55 1333 l 1,20,-1
 869.55 1450 l 1,21,-1
 712.95 1450 l 1,22,-1
 712.95 1556 l 1,23,-1
 1035.15 1556 l 1,24,-1
 1035.15 1333 l 1,25,-1
 1193.55 1333 l 1,26,-1
 1193.55 1227 l 1,27,-1
 1035.15 1227 l 1,28,-1
 1035.15 106 l 1,0,-1
869.55 479 m 2,29,-1
 869.55 584 l 2,30,31
 869.55 775 869.55 775 803.4 876 c 128,-1,32
 737.25 977 737.25 977 611.25 977 c 0,33,34
 483.45 977 483.45 977 418.2 865 c 128,-1,35
 352.95 753 352.95 753 352.95 532 c 0,36,37
 352.95 312 352.95 312 418.2 199 c 128,-1,38
 483.45 86 483.45 86 611.25 86 c 0,39,40
 737.25 86 737.25 86 803.4 186.5 c 128,-1,41
 869.55 287 869.55 287 869.55 479 c 2,29,-1
EndSplineSet
EndChar
StartChar: Hbar
Encoding: 294 294 294
Width: 1696
Flags: W
Fore
544.7 870 m 1,9,-1
 1241.3 870 l 1,10,-1
 1241.3 1067 l 1,0,0
 544.7 1067 l 1,0,0
 544.7 870 l 1,9,-1
191 0 m 1,0,-1
 191 106 l 1,1,-1
 362 106 l 1,2,-1
 362 1067 l 1,0,0
 191 1067 l 1,0,0
 191 1189 l 1,0,0
 362 1189 l 1,0,0
 362 1386 l 1,3,-1
 191 1386 l 1,4,-1
 191 1493 l 1,5,-1
 715.7 1493 l 1,6,-1
 715.7 1386 l 1,7,-1
 544.7 1386 l 1,8,-1
 544.7 1189 l 1,0,0
 1241.3 1189 l 1,0,0
 1241.3 1386 l 1,11,-1
 1070.3 1386 l 1,12,-1
 1070.3 1493 l 1,13,-1
 1595 1493 l 1,14,-1
 1595 1386 l 1,15,-1
 1424 1386 l 1,16,-1
 1424 1189 l 1,0,0
 1595 1189 l 1,0,0
 1595 1067 l 1,0,0
 1424 1067 l 1,0,0
 1424 106 l 1,17,-1
 1595 106 l 1,18,-1
 1595 0 l 1,19,-1
 1070.3 0 l 1,20,-1
 1070.3 106 l 1,21,-1
 1241.3 106 l 1,22,-1
 1241.3 748 l 1,23,-1
 544.7 748 l 1,24,-1
 544.7 106 l 1,25,-1
 715.7 106 l 1,26,-1
 715.7 0 l 1,27,-1
 191 0 l 1,0,-1
EndSplineSet
EndChar
StartChar: hbar
Encoding: 295 295 295
Width: 1253
Flags: W
Fore
142.4 0 m 1,0,-1
 142.4 106 l 1,1,-1
 291.8 106 l 1,2,-1
 291.8 1210 l 1,0,0
 133.4 1210 l 1,0,0
 133.4 1332 l 1,0,0
 291.8 1332 l 1,0,0
 291.8 1450 l 1,3,-1
 133.4 1450 l 1,4,-1
 133.4 1556 l 1,5,-1
 457.4 1556 l 1,6,-1
 457.4 1332 l 1,0,0
 741.8 1332 l 1,0,0
 741.8 1210 l 1,0,0
 457.4 1210 l 1,0,0
 457.4 874 l 1,7,8
 503.3 982 503.3 982 576.65 1037 c 128,-1,9
 650 1092 650 1092 747.2 1092 c 0,10,11
 905.6 1092 905.6 1092 980.3 991 c 128,-1,12
 1055 890 1055 890 1055 676 c 2,13,-1
 1055 106 l 1,14,-1
 1202.6 106 l 1,15,-1
 1202.6 0 l 1,16,-1
 745.4 0 l 1,17,-1
 745.4 106 l 1,18,-1
 888.5 106 l 1,19,-1
 888.5 618 l 2,20,21
 888.5 813 888.5 813 845.75 884.5 c 128,-1,22
 803 956 803 956 693.2 956 c 0,23,24
 578 956 578 956 517.7 863 c 128,-1,25
 457.4 770 457.4 770 457.4 592 c 2,26,-1
 457.4 106 l 1,27,-1
 601.4 106 l 1,28,-1
 601.4 0 l 1,29,-1
 142.4 0 l 1,0,-1
EndSplineSet
EndChar
StartChar: dotlessi
Encoding: 305 305 305
Width: 623
Flags: W
Fore
424.7 106 m 1,0,-1
 581.3 106 l 1,1,-1
 581.3 0 l 1,2,-1
 100.7 0 l 1,3,-1
 100.7 106 l 1,4,-1
 259.1 106 l 1,5,-1
 259.1 956 l 1,6,-1
 100.7 956 l 1,7,-1
 100.7 1063 l 1,8,-1
 424.7 1063 l 1,9,-1
 424.7 106 l 1,0,-1
EndSplineSet
EndChar
StartChar: kgreenlandic
Encoding: 312 312 312
Width: 1182
Flags: W
Fore
593.1 0 m 1,0,-1
 128.7 0 l 1,1,-1
 128.7 106 l 1,2,-1
 278.1 106 l 1,3,-1
 278.1 953 l 1,4,-1
 118.8 953 l 1,5,-1
 118.8 1060 l 1,6,-1
 443.7 1060 l 1,7,-1
 443.7 541 l 1,8,-1
 846.9 953 l 1,9,-1
 709.2 953 l 1,10,-1
 709.2 1060 l 1,11,-1
 1142.1 1060 l 1,12,-1
 1142.1 953 l 1,13,-1
 978.3 953 l 1,14,-1
 693.9 662 l 1,15,-1
 1057.5 106 l 1,16,-1
 1195.2 106 l 1,17,-1
 1195.2 0 l 1,18,-1
 723.6 0 l 1,19,-1
 723.6 106 l 1,20,-1
 860.4 106 l 1,21,-1
 574.2 541 l 1,22,-1
 443.7 406 l 1,23,-1
 443.7 106 l 1,24,-1
 593.1 106 l 1,25,-1
 593.1 0 l 1,0,-1
EndSplineSet
EndChar
StartChar: Lslash
Encoding: 321 321 321
Width: 1303
Flags: W
Fore
181.05 0 m 1,0,-1
 181.05 106 l 1,1,-1
 352.05 106 l 1,2,-1
 352.05 586 l 1,3,-1
 210.75 473 l 1,4,-1
 147.75 565 l 1,5,-1
 352.05 727 l 1,6,-1
 352.05 1386 l 1,7,-1
 181.05 1386 l 1,8,-1
 181.05 1493 l 1,9,-1
 704.85 1493 l 1,10,-1
 704.85 1386 l 1,11,-1
 532.95 1386 l 1,12,-1
 532.95 870 l 1,13,-1
 809.25 1096 l 1,14,-1
 872.25 1004 l 1,15,-1
 532.95 729 l 1,16,-1
 532.95 123 l 1,17,-1
 1148.55 123 l 1,18,-1
 1148.55 373 l 1,19,-1
 1259.25 373 l 1,20,-1
 1259.25 0 l 1,21,-1
 181.05 0 l 1,0,-1
EndSplineSet
KernsSLIFO: 366 -36 0 0 356 -167 0 0 253 -36 0 0 221 -206 0 0 217 -36 0 0 219 -36 0 0 218 -36 0 0 376 -206 0 0 255 -36 0 0 8217 -491 0 0 8221 -491 0 0 220 -36 0 0 121 -36 0 0 89 -206 0 0 87 -178 0 0 86 -243 0 0 85 -36 0 0 84 -167 0 0
EndChar
StartChar: lslash
Encoding: 322 322 322
Width: 631
Flags: W
Fore
419.2 106 m 1,0,-1
 577.6 106 l 1,1,-1
 577.6 0 l 1,2,-1
 97 0 l 1,3,-1
 97 106 l 1,4,-1
 253.6 106 l 1,5,-1
 253.6 680 l 1,6,-1
 129.4 584 l 1,7,-1
 74.5 670 l 1,8,-1
 253.6 811 l 1,9,-1
 253.6 1450 l 1,10,-1
 97 1450 l 1,11,-1
 97 1556 l 1,12,-1
 419.2 1556 l 1,13,-1
 419.2 940 l 1,14,-1
 551.5 1038 l 1,15,-1
 605.5 952 l 1,16,-1
 419.2 811 l 1,17,-1
 419.2 106 l 1,0,-1
EndSplineSet
EndChar
StartChar: Eng
Encoding: 330 330 330
Width: 1702
Flags: W
Fore
180.1 0 m 1,0,-1
 180.1 106 l 1,1,-1
 361 106 l 1,2,-1
 361 1386 l 1,3,-1
 180.1 1386 l 1,4,-1
 180.1 1493 l 1,5,-1
 524.8 1493 l 1,6,-1
 1330.3 315 l 1,7,-1
 1330.3 1386 l 1,8,-1
 1150.3 1386 l 1,9,-1
 1150.3 1493 l 1,10,-1
 1621.9 1493 l 1,11,-1
 1621.9 1386 l 1,12,-1
 1441 1386 l 1,13,-1
 1441 -29 l 2,16,17
 1441 -276 1441 -276 1383.4 -356.5 c 128,-1,18
 1313.2 -455 1313.2 -455 1197.1 -455 c 0,19,20
 1092.7 -455 1092.7 -455 1033.3 -438 c 128,-1,21
 974.8 -422 974.8 -422 919 -389 c 1,22,-1
 919 -170 l 1,23,-1
 1004.5 -170 l 1,24,25
 1010.8 -266 1010.8 -266 1049.5 -311 c 128,-1,26
 1087.3 -356 1087.3 -356 1199.8 -356 c 0,27,28
 1257.85 -355 1257.85 -355 1296.1 -291.5 c 128,-1,29
 1330.3 -235 1330.3 -235 1330.3 -29 c 1,30,-1
 471.7 1229 l 1,16,-1
 471.7 106 l 1,17,-1
 652.6 106 l 1,18,-1
 652.6 0 l 1,19,-1
 180.1 0 l 1,0,-1
EndSplineSet
EndChar
StartChar: eng
Encoding: 331 331 331
Width: 1245
Flags: W
Fore
134.2 0 m 1,0,-1
 134.2 106 l 1,1,-1
 283.6 106 l 1,2,-1
 283.6 956 l 1,3,-1
 125.2 956 l 1,4,-1
 125.2 1063 l 1,5,-1
 449.2 1063 l 1,6,-1
 449.2 874 l 1,7,8
 495.1 982 495.1 982 568.45 1037 c 128,-1,9
 641.8 1092 641.8 1092 739 1092 c 0,10,11
 895.6 1092 895.6 1092 972.1 991 c 128,-1,12
 1046.8 892.5 1046.8 892.5 1046.8 676 c 2,13,-1
 1046.8 -104 l 2,16,17
 1046.8 -268 1046.8 -268 959.05 -361.5 c 128,-1,18
 871.3 -455 871.3 -455 717.4 -455 c 0,19,20
 652.6 -455 652.6 -455 593.65 -438.5 c 128,-1,21
 534.7 -422 534.7 -422 478.9 -389 c 1,22,-1
 478.9 -170 l 1,23,-1
 564.4 -170 l 1,24,25
 570.7 -266 570.7 -266 608.95 -311 c 128,-1,26
 647.2 -356 647.2 -356 721 -356 c 0,27,28
 802.9 -356 802.9 -356 842.05 -294.5 c 128,-1,29
 880.3 -234.5 880.3 -234.5 880.3 -104 c 2,30,-1
 880.3 618 l 2,20,21
 880.3 813 880.3 813 837.1 885.5 c 128,-1,22
 793.9 958 793.9 958 685 958 c 0,23,24
 569.8 958 569.8 958 509.5 864.5 c 128,-1,25
 449.2 771 449.2 771 449.2 592 c 2,26,-1
 449.2 106 l 1,27,-1
 593.2 106 l 1,28,-1
 593.2 0 l 1,29,-1
 134.2 0 l 1,0,-1
EndSplineSet
EndChar
StartChar: OE
Encoding: 338 338 338
Width: 2210
Flags: W
Fore
1137.5 106 m 1,0,-1
 1137.5 1386 l 1,1,-1
 969.2 1386 l 2,2,3
 706.4 1386 706.4 1386 566.9 1222 c 128,-1,4
 427.4 1058 427.4 1058 427.4 750 c 0,5,6
 427.4 439 427.4 439 567.35 272.5 c 128,-1,7
 707.3 106 707.3 106 969.2 106 c 2,8,-1
 1137.5 106 l 1,0,-1
2062.7 0 m 1,9,-1
 956.6 0 l 2,10,11
 610.1 0 610.1 0 415.7 198 c 128,-1,12
 221.3 396 221.3 396 221.3 750 c 0,13,14
 221.3 1101 221.3 1101 415.25 1297 c 128,-1,15
 609.2 1493 609.2 1493 956.6 1493 c 2,16,-1
 2047.4 1493 l 1,17,-1
 2047.4 1161 l 1,18,-1
 1936.7 1161 l 1,19,-1
 1936.7 1370 l 1,20,-1
 1319.3 1370 l 1,21,-1
 1319.3 870 l 1,22,-1
 1762.1 870 l 1,23,-1
 1762.1 1057 l 1,24,-1
 1871 1057 l 1,25,-1
 1871 561 l 1,26,-1
 1762.1 561 l 1,27,-1
 1762.1 748 l 1,28,-1
 1319.3 748 l 1,29,-1
 1319.3 123 l 1,30,-1
 1952 123 l 1,31,-1
 1952 332 l 1,32,-1
 2062.7 332 l 1,33,-1
 2062.7 0 l 1,9,-1
EndSplineSet
KernsSLIFO: 45 38 0 0
EndChar
StartChar: oe
Encoding: 339 339 339
Width: 1923
Flags: W
Fore
655.65 70 m 0,0,1
 788.85 70 788.85 70 856.8 187 c 128,-1,2
 924.75 304 924.75 304 924.75 532 c 0,3,4
 924.75 760 924.75 760 856.8 876.5 c 128,-1,5
 788.85 993 788.85 993 655.65 993 c 0,6,7
 522.45 993 522.45 993 454.5 876.5 c 128,-1,8
 386.55 760 386.55 760 386.55 532 c 0,9,10
 386.55 304 386.55 304 454.95 187 c 128,-1,11
 523.35 70 523.35 70 655.65 70 c 0,0,1
1831.95 512 m 1,12,-1
 1118.25 512 l 1,13,-1
 1118.25 504 l 2,14,15
 1118.25 289 1118.25 289 1191.15 179.5 c 128,-1,16
 1264.05 70 1264.05 70 1406.25 70 c 0,17,18
 1515.15 70 1515.15 70 1584.9 133.5 c 128,-1,19
 1654.65 197 1654.65 197 1682.55 322 c 1,20,-1
 1815.75 322 l 1,21,22
 1776.15 147 1776.15 147 1669.5 59 c 128,-1,23
 1562.85 -29 1562.85 -29 1390.05 -29 c 0,24,25
 1273.05 -29 1273.05 -29 1179.9 20 c 128,-1,26
 1086.75 69 1086.75 69 1021.05 166 c 1,27,28
 958.95 70 958.95 70 865.8 20.5 c 128,-1,29
 772.65 -29 772.65 -29 655.65 -29 c 0,30,31
 446.85 -29 446.85 -29 319.95 124.5 c 128,-1,32
 193.05 278 193.05 278 193.05 532 c 0,33,34
 193.05 786 193.05 786 319.5 939 c 128,-1,35
 445.95 1092 445.95 1092 655.65 1092 c 0,36,37
 774.45 1092 774.45 1092 867.15 1042.5 c 128,-1,38
 959.85 993 959.85 993 1022.85 897 c 1,39,40
 1088.55 993 1088.55 993 1178.55 1042.5 c 128,-1,41
 1268.55 1092 1268.55 1092 1378.35 1092 c 0,42,43
 1596.15 1092 1596.15 1092 1711.8 943.5 c 128,-1,44
 1827.45 795 1827.45 795 1831.95 512 c 1,12,-1
1636.65 618 m 1,45,46
 1631.25 804 1631.25 804 1566 898.5 c 128,-1,47
 1500.75 993 1500.75 993 1378.35 993 c 0,48,49
 1264.05 993 1264.05 993 1198.35 898 c 128,-1,50
 1132.65 803 1132.65 803 1118.25 618 c 1,51,-1
 1636.65 618 l 1,45,46
EndSplineSet
EndChar
StartChar: Tbar
Encoding: 358 358 358
Width: 1297
Flags: W
TeX: 0 0 0 0
Fore
420.2 0 m 1,0,-1
 420.2 106 l 1,1,-1
 592.1 106 l 1,2,-1
 592.1 628 l 1,0,0
 353.6 628 l 1,0,0
 353.6 798 l 1,0,0
 592.1 798 l 1,0,0
 592.1 1374 l 1,3,-1
 197 1374 l 1,4,-1
 197 1141 l 1,5,-1
 86.2998 1141 l 1,6,-1
 86.2998 1493 l 1,7,-1
 1279.7 1493 l 1,8,-1
 1279.7 1141 l 1,9,-1
 1169 1141 l 1,10,-1
 1169 1374 l 1,11,-1
 773.9 1374 l 1,12,-1
 773.9 798 l 1,0,0
 1013.3 798 l 1,0,0
 1013.3 628 l 1,0,0
 773.9 628 l 1,0,0
 773.9 106 l 1,13,-1
 945.8 106 l 1,14,-1
 945.8 0 l 1,15,-1
 420.2 0 l 1,0,-1
EndSplineSet
EndChar
StartChar: tbar
Encoding: 359 359 359
Width: 784
Flags: W
TeX: 0 0 0 0
Fore
242.2 956 m 1,0,-1
 96.4004 956 l 1,1,-1
 96.4004 1063 l 1,2,-1
 242.2 1063 l 1,3,-1
 242.2 1393 l 1,4,-1
 408.7 1393 l 1,5,-1
 408.7 1063 l 1,6,-1
 720.1 1063 l 1,7,-1
 720.1 956 l 1,8,-1
 408.7 956 l 1,9,-1
 408.7 723 l 1,0,0
 579.7 723 l 1,0,0
 579.7 581 l 1,0,0
 408.7 581 l 1,0,0
 408.7 281 l 2,10,11
 408.7 146 408.7 146 432.1 108 c 128,-1,12
 455.5 70 455.5 70 518.5 70 c 0,13,14
 583.3 70 583.3 70 613 112 c 128,-1,15
 642.7 155 642.7 155 644.5 250 c 1,16,-1
 769.6 250 l 1,17,18
 762.4 105 762.4 105 698.5 38 c 128,-1,19
 634.6 -29 634.6 -29 504.1 -29 c 0,20,21
 361 -29 361 -29 301.6 42 c 128,-1,22
 242.2 112 242.2 112 242.2 281 c 2,23,-1
 242.2 581 l 1,0,0
 120.7 581 l 1,0,0
 120.7 723 l 1,0,0
 242.2 723 l 1,0,0
 242.2 956 l 1,0,-1
EndSplineSet
EndChar
StartChar: longs
Encoding: 383 383 383
Width: 729
Flags: W
TeX: 0 0 0 0
Fore
438.35 106 m 1,12,-1
 650.75 106 l 1,13,-1
 650.75 0 l 1,14,-1
 114.35 0 l 1,15,-1
 114.35 106 l 1,16,-1
 272.75 106 l 1,17,-1
 272.75 956 l 1,18,-1
 114.35 956 l 1,19,-1
 114.35 1063 l 1,20,-1
 272.75 1063 l 1,21,-1
 272.75 1196 l 2,22,23
 272.75 1374 272.75 1374 356 1465 c 128,-1,24
 439.25 1556 439.25 1556 600.35 1556 c 0,25,26
 660.65 1556 660.65 1556 720.95 1544 c 128,-1,27
 781.25 1532 781.25 1532 840.65 1507 c 1,28,-1
 840.65 1305 l 1,0,-1
 753.35 1305 l 1,1,2
 752.45 1380 752.45 1380 715.1 1419 c 128,-1,3
 677.75 1458 677.75 1458 606.65 1458 c 0,4,5
 513.95 1458 513.95 1458 476.15 1401.5 c 128,-1,6
 438.35 1343.2 438.35 1343.2 438.35 1200 c 2,7,-1
 438.35 106 l 1,12,-1
EndSplineSet
EndChar
StartChar: uni0186
Encoding: 390 390 390
Width: 1488
Flags: W
TeX: 117 0 0 0
Fore
181.45 395 m 1,0,1
 347.05 395 l 1,29,-1
 390.25 237 390.25 237 487.45 157.5 c 128,-1,28
 584.65 78 584.65 78 734.95 78 c 0,26,27
 950.05 78 950.05 78 1060.75 247.5 c 128,-1,25
 1171.45 417 1171.45 417 1171.45 745 c 0,23,24
 1171.45 1074 1171.45 1074 1060.75 1243.5 c 128,-1,22
 950.05 1413 950.05 1413 734.95 1413 c 0,20,21
 554.05 1413 554.05 1413 453.7 1324 c 128,-1,19
 353.35 1235 353.35 1235 320.05 1047 c 1,17,18
 218.35 1047 l 1,16,-1
 218.35 1391 l 1,15,-1
 361.45 1456 361.45 1456 485.65 1488 c 128,-1,14
 609.85 1520 609.85 1520 719.65 1520 c 0,12,13
 1015.75 1520 1015.75 1520 1196.65 1306.5 c 128,-1,11
 1377.55 1093 1377.55 1093 1377.55 745 c 0,9,10
 1377.55 565 1377.55 565 1328.5 422.5 c 128,-1,8
 1279.45 280 1279.45 280 1178.65 168 c 0,6,7
 1091.35 71 1091.35 71 978.85 21 c 128,-1,5
 866.35 -29 866.35 -29 734.95 -29 c 0,3,4
 520.75 -29 520.75 -29 380.8 78.5 c 128,-1,2
 240.85 186 240.85 186 181.45 395 c 1,0,1
EndSplineSet
EndChar
StartChar: uni0190
Encoding: 400 400 400
Width: 1238
Flags: W
TeX: 117 0 0 0
Fore
1062.55 1430 m 1,0,1
 1062.55 1167 l 1,42,-1
 961.75 1167 l 1,41,-1
 950.05 1293 950.05 1293 883 1357 c 128,-1,40
 815.95 1421 815.95 1421 694.45 1421 c 0,38,39
 572.95 1421 572.95 1421 508.15 1351.5 c 128,-1,37
 443.35 1282 443.35 1282 443.35 1151 c 0,35,36
 443.35 1005 443.35 1005 522.1 932.5 c 128,-1,34
 600.85 860 600.85 860 758.35 860 c 2,32,33
 803.35 860 l 1,31,-1
 803.35 758 l 1,30,-1
 717.85 758 l 2,29,-1
 559.45 758 559.45 758 477.55 667.5 c 128,-1,28
 395.65 577 395.65 577 395.65 401 c 0,26,27
 395.65 247 395.65 247 475.3 158.5 c 128,-1,25
 554.95 70 554.95 70 692.65 70 c 0,23,24
 834.85 70 834.85 70 913.15 144 c 128,-1,22
 991.45 218 991.45 218 1000.45 362 c 1,20,21
 1101.25 362 l 1,19,-1
 1101.25 72 l 1,18,-1
 1002.25 21 1002.25 21 901.9 -4 c 128,-1,17
 801.55 -29 801.55 -29 696.25 -29 c 0,15,16
 458.65 -29 458.65 -29 332.2 82.5 c 128,-1,14
 205.75 194 205.75 194 205.75 403 c 0,12,13
 205.75 574 205.75 574 297.1 681.5 c 128,-1,11
 388.45 789 388.45 789 554.05 815 c 1,9,10
 413.65 847 413.65 847 337.15 937.5 c 128,-1,8
 260.65 1028 260.65 1028 260.65 1163 c 0,6,7
 260.65 1331 260.65 1331 371.35 1425.5 c 128,-1,5
 482.05 1520 482.05 1520 679.15 1520 c 0,3,4
 763.75 1520 763.75 1520 860.5 1497 c 128,-1,2
 957.25 1474 957.25 1474 1062.55 1430 c 1,0,1
EndSplineSet
EndChar
StartChar: florin
Encoding: 402 402 402
Width: 1236
Flags: W
Fore
618.4 1135 m 1,0,1
 639.1 1321 639.1 1321 729.55 1420.5 c 128,-1,2
 820 1520 820 1520 969.4 1520 c 0,3,4
 1015.3 1520 1015.3 1520 1068.4 1508.5 c 128,-1,5
 1121.5 1497 1121.5 1497 1184.5 1475 c 1,6,-1
 1184.5 1253 l 1,7,-1
 1096.3 1253 l 1,8,9
 1090.9 1339 1090.9 1339 1057.15 1380 c 128,-1,10
 1023.4 1421 1023.4 1421 957.7 1421 c 0,11,12
 885.7 1421 885.7 1421 846.55 1351.5 c 128,-1,13
 807.4 1282 807.4 1282 788.5 1112 c 1,14,-1
 757 821 l 1,15,-1
 1031.5 821 l 1,16,-1
 1031.5 715 l 1,17,-1
 744.4 715 l 1,18,-1
 661.6 -47 l 1,19,20
 640.9 -233 640.9 -233 549.55 -332.5 c 128,-1,21
 458.2 -432 458.2 -432 308.8 -432 c 0,22,23
 263.8 -432 263.8 -432 211.6 -421 c 128,-1,24
 159.4 -410 159.4 -410 95.5 -387 c 1,25,-1
 95.5 -166 l 1,26,-1
 183.7 -166 l 1,27,28
 189.1 -252 189.1 -252 222.4 -293 c 128,-1,29
 255.7 -334 255.7 -334 320.5 -334 c 0,30,31
 392.5 -334 392.5 -334 431.65 -264 c 128,-1,32
 470.8 -194 470.8 -194 489.7 -25 c 2,33,-1
 572.5 715 l 1,34,-1
 345.7 715 l 1,35,-1
 345.7 821 l 1,36,-1
 584.2 821 l 1,37,-1
 618.4 1135 l 1,0,1
EndSplineSet
EndChar
StartChar: uni0194
Encoding: 404 404 404
Width: 1382
Flags: W
TeX: 0 0 0 0
Fore
622.5 733 m 0,0,-1
 230.1 1386 l 1,1,-1
 86.0996 1386 l 1,2,-1
 86.0996 1493 l 1,3,-1
 618.9 1493 l 1,4,-1
 618.9 1386 l 1,5,-1
 460.5 1386 l 1,6,-1
 748.5 905 l 1,7,-1
 1044.6 1386 l 1,8,-1
 871.8 1386 l 1,9,-1
 871.8 1493 l 1,10,-1
 1311.9 1493 l 1,11,-1
 1311.9 1386 l 1,12,-1
 1160.7 1386 l 1,13,-1
 805.2 811 l 0,14,15
 1304.7 126 1304.7 126 1139.1 -44 c 0,16,17
 998.7 -188 998.7 -188 681.9 -188 c 16,18,19
 362.4 -188 362.4 -188 307.5 12 c 0,20,21
 257.1 193 257.1 193 622.5 733 c 0,0,-1
681.9 636 m 1,22,23
 422.7 258 422.7 258 422.7 56 c 24,24,25
 422.7 -82 422.7 -82 681.9 -82 c 16,26,27
 926.7 -82 926.7 -82 926.7 56 c 16,28,29
 926.7 268 926.7 268 681.9 636 c 1,22,23
EndSplineSet
EndChar
StartChar: dotlessj
Encoding: 567 567 567
Width: 583
Flags: W
Fore
236.85 956 m 1,0,-1
 80.25 956 l 1,1,-1
 80.25 1063 l 1,2,-1
 402.45 1063 l 1,3,-1
 402.45 -104 l 2,4,5
 402.45 -268 402.45 -268 314.7 -361.5 c 128,-1,6
 226.95 -455 226.95 -455 73.0498 -455 c 0,7,8
 8.25 -455 8.25 -455 -50.7002 -438.5 c 128,-1,9
 -109.65 -422 -109.65 -422 -165.45 -389 c 1,10,-1
 -165.45 -170 l 1,11,-1
 -79.9502 -170 l 1,12,13
 -73.6504 -266 -73.6504 -266 -35.4004 -311 c 128,-1,14
 2.84961 -356 2.84961 -356 76.6504 -356 c 0,15,16
 158.55 -356 158.55 -356 197.7 -294.5 c 128,-1,17
 236.85 -233 236.85 -233 236.85 -104 c 2,18,-1
 236.85 956 l 1,0,-1
EndSplineSet
EndChar
StartChar: uni0250
Encoding: 592 592 592
Width: 1162
Flags: W
Fore
468.25 729 m 2,0,-1
 468.25 504 l 1,1,-1
 681.55 504 l 2,2,3
 804.85 504 804.85 504 865.15 563 c 128,-1,4
 925.45 622 925.45 622 925.45 744 c 0,5,6
 925.45 855 925.45 855 864.25 920 c 128,-1,7
 803.05 985 803.05 985 698.65 985 c 0,8,9
 595.15 985 595.15 985 531.25 914 c 0,10,11
 468.25 843 468.25 843 468.25 729 c 2,0,-1
302.65 399 m 2,12,-1
 302.65 957 l 1,13,-1
 155.05 957 l 1,14,-1
 155.05 1063 l 1,15,-1
 468.25 1063 l 1,16,-1
 468.25 948 l 1,17,18
 523.15 1022 523.15 1022 595.15 1057 c 128,-1,19
 667.15 1092 667.15 1092 763.45 1092 c 0,20,21
 922.75 1092 922.75 1092 1016.35 998 c 128,-1,22
 1109.95 904 1109.95 904 1109.95 744 c 0,23,24
 1109.95 579 1109.95 579 1002.85 488 c 128,-1,25
 895.75 397 895.75 397 700.45 397 c 2,26,-1
 468.25 397 l 1,27,-1
 468.25 324 l 2,28,29
 468.25 203 468.25 203 534.85 136 c 0,30,31
 600.55 70 600.55 70 720.25 70 c 0,32,33
 819.25 70 819.25 70 877.75 120 c 128,-1,34
 936.25 170 936.25 170 950.65 268 c 1,35,-1
 1036.15 268 l 1,36,-1
 1036.15 53 l 1,37,38
 949.75 12 949.75 12 867.85 -8 c 0,39,40
 786.85 -29 786.85 -29 709.45 -29 c 0,41,42
 510.55 -29 510.55 -29 407.05 80 c 0,43,44
 302.65 190 302.65 190 302.65 399 c 2,12,-1
EndSplineSet
EndChar
StartChar: uni0251
Encoding: 593 593 593
Width: 1247
Flags: W
TeX: 0 0 0 0
Fore
869.55 897 m 8,0,-1
 869.55 1063 l 1,1,-1
 1193.55 1063 l 1,2,-1
 1193.55 956 l 1,3,-1
 1035.15 956 l 1,4,-1
 1035.15 106 l 17,5,-1
 1193.55 106 l 1,6,-1
 1193.55 0 l 1,7,-1
 869.55 0 l 1,8,-1
 869.55 166 l 1,9,10
 820.95 66 820.95 66 746.25 18 c 0,11,12
 670.65 -29 670.65 -29 559.95 -29 c 0,13,14
 383.55 -29 383.55 -29 271.05 126 c 0,15,16
 159.45 282 159.45 282 159.45 532 c 128,-1,17
 159.45 782 159.45 782 271.05 937 c 128,-1,18
 382.65 1092 382.65 1092 559.95 1092 c 0,19,20
 670.65 1092 670.65 1092 746.25 1044 c 0,21,22
 820.95 997 820.95 997 869.55 897 c 8,0,-1
869.55 479 m 2,23,-1
 869.55 584 l 2,24,25
 869.55 775 869.55 775 803.85 876 c 0,26,27
 737.25 977 737.25 977 611.25 977 c 0,28,29
 483.45 977 483.45 977 418.65 865 c 0,30,31
 352.95 753 352.95 753 352.95 532 c 0,32,33
 352.95 312 352.95 312 418.65 199 c 0,34,35
 483.45 86 483.45 86 611.25 86 c 0,36,37
 737.25 86 737.25 86 803.85 186 c 0,38,39
 869.55 287 869.55 287 869.55 479 c 2,23,-1
EndSplineSet
EndChar
StartChar: uni0252
Encoding: 594 594 594
Width: 1247
Flags: W
TeX: 0 0 0 0
Fore
483.45 166 m 8,0,-1
 483.45 0 l 1,1,-1
 159.45 0 l 1,2,-1
 159.45 107 l 1,3,-1
 317.85 107 l 1,4,-1
 317.85 957 l 17,5,-1
 159.45 957 l 1,6,-1
 159.45 1063 l 1,7,-1
 483.45 1063 l 1,8,-1
 483.45 897 l 1,9,10
 532.05 997 532.05 997 607.65 1044 c 0,11,12
 682.35 1092 682.35 1092 793.05 1092 c 0,13,14
 969.45 1092 969.45 1092 1081.05 936 c 0,15,16
 1193.55 781 1193.55 781 1193.55 531 c 128,-1,17
 1193.55 281 1193.55 281 1081.95 126 c 128,-1,18
 970.35 -29 970.35 -29 793.05 -29 c 0,19,20
 682.35 -29 682.35 -29 607.65 18 c 0,21,22
 532.05 66 532.05 66 483.45 166 c 8,0,-1
483.45 584 m 2,23,-1
 483.45 479 l 2,24,25
 483.45 288 483.45 288 550.05 187 c 0,26,27
 615.75 86 615.75 86 741.75 86 c 0,28,29
 869.55 86 869.55 86 935.25 198 c 0,30,31
 1000.05 310 1000.05 310 1000.05 531 c 0,32,33
 1000.05 751 1000.05 751 935.25 864 c 0,34,35
 869.55 977 869.55 977 741.75 977 c 0,36,37
 615.75 977 615.75 977 550.05 876 c 0,38,39
 483.45 776 483.45 776 483.45 584 c 2,23,-1
EndSplineSet
EndChar
StartChar: uni0253
Encoding: 595 595 595
Width: 1243
Flags: W
TeX: 0 0 0 0
Fore
442.25 966 m 1,0,-1
 441.35 897 l 1,1,2
 489.95 997 489.95 997 565.55 1044 c 0,3,4
 640.25 1092 640.25 1092 750.95 1092 c 0,5,6
 927.35 1092 927.35 1092 1038.95 937 c 128,-1,7
 1150.55 782 1150.55 782 1150.55 532 c 128,-1,8
 1150.55 282 1150.55 282 1038.95 126 c 0,9,10
 927.35 -29 927.35 -29 750.95 -29 c 0,11,12
 640.25 -29 640.25 -29 565.55 18 c 0,13,14
 489.95 66 489.95 66 441.35 166 c 1,15,-1
 441.35 0 l 1,16,-1
 116.45 0 l 1,17,-1
 116.45 106 l 1,18,-1
 275.75 106 l 1,19,-1
 275.75 973 l 1,20,-1
 275.75 1205 l 2,21,22
 275.75 1369 275.75 1369 363.95 1462 c 0,23,24
 451.25 1556 451.25 1556 605.15 1556 c 0,25,26
 669.95 1556 669.95 1556 729.35 1540 c 0,27,28
 787.85 1523 787.85 1523 843.65 1490 c 1,29,-1
 843.65 1271 l 1,30,-1
 758.15 1271 l 1,31,32
 751.85 1367 751.85 1367 713.15 1412 c 0,33,34
 675.35 1457 675.35 1457 601.55 1457 c 0,35,36
 519.65 1457 519.65 1457 480.95 1396 c 0,37,38
 442.25 1337 442.25 1337 442.25 1205 c 2,39,-1
 442.25 966 l 1,0,-1
441.35 479 m 2,40,41
 441.35 287 441.35 287 507.95 186 c 0,42,43
 573.65 86 573.65 86 699.65 86 c 0,44,45
 826.55 86 826.55 86 891.35 199 c 0,46,47
 957.05 312 957.05 312 957.05 532 c 0,48,49
 957.05 753 957.05 753 891.35 865 c 0,50,51
 826.55 977 826.55 977 699.65 977 c 0,52,53
 573.65 977 573.65 977 507.95 876 c 0,54,55
 441.35 775 441.35 775 441.35 584 c 2,56,-1
 441.35 479 l 2,40,41
EndSplineSet
EndChar
StartChar: uni0254
Encoding: 596 596 596
Width: 1090
Flags: W
Fore
149.55 319 m 1,0,-1
 282.75 319 l 1,1,2
 306.15 194 306.15 194 370.05 132 c 128,-1,3
 433.95 70 433.95 70 541.05 70 c 0,4,5
 676.05 70 676.05 70 743.55 186 c 0,6,7
 811.95 302 811.95 302 811.95 532 c 128,-1,8
 811.95 762 811.95 762 743.55 878 c 0,9,10
 675.15 993 675.15 993 541.05 993 c 0,11,12
 423.15 993 423.15 993 360.15 929 c 0,13,14
 296.25 865 296.25 865 277.35 725 c 1,15,-1
 181.05 725 l 1,16,-1
 181.05 997 l 1,17,18
 271.95 1045 271.95 1045 361.95 1068 c 0,19,20
 451.95 1092 451.95 1092 542.85 1092 c 0,21,22
 751.65 1092 751.65 1092 878.55 940 c 0,23,24
 1005.45 787 1005.45 787 1005.45 532 c 0,25,26
 1005.45 278 1005.45 278 878.55 124 c 0,27,28
 751.65 -29 751.65 -29 542.85 -29 c 0,29,30
 384.45 -29 384.45 -29 284.55 60 c 128,-1,31
 184.65 149 184.65 149 149.55 319 c 1,0,-1
EndSplineSet
EndChar
StartChar: uni0255
Encoding: 597 597 597
Width: 1088
Flags: W
TeX: 0 0 0 0
Fore
426.8 164 m 1,0,1
 488 70 488 70 612.2 70 c 0,2,3
 755.3 68 755.3 68 755.3 177 c 0,4,5
 755.3 301 755.3 301 655.4 300 c 0,6,7
 493.4 298 493.4 298 426.8 164 c 1,0,1
373.7 268 m 1,8,9
 486.2 400 486.2 400 717.5 400 c 0,10,11
 956 400 956 400 951.5 170 c 0,12,13
 947.9 -29 947.9 -29 610.4 -29 c 0,14,15
 472.7 -29 472.7 -29 376.4 42 c 1,16,17
 368.3 10 368.3 10 369.2 -75 c 1,18,-1
 369.2 -219 l 1,19,-1
 266.6 -219 l 1,20,-1
 267.5 -75 l 1,21,22
 270.2 26 270.2 26 291.8 105 c 1,23,24
 282.8 115 282.8 115 274.7 124 c 0,25,26
 147.8 278 147.8 278 147.8 532 c 0,27,28
 147.8 787 147.8 787 274.7 940 c 0,29,30
 401.6 1092 401.6 1092 610.4 1092 c 0,31,32
 701.3 1092 701.3 1092 791.3 1068 c 0,33,34
 881.3 1045 881.3 1045 972.2 997 c 1,35,-1
 972.2 725 l 1,36,-1
 875.9 725 l 1,37,38
 857 865 857 865 794 929 c 0,39,40
 730.1 993 730.1 993 612.2 993 c 0,41,42
 478.1 993 478.1 993 409.7 878 c 0,43,44
 341.3 762 341.3 762 341.3 532 c 0,45,46
 341.3 373 341.3 373 373.7 268 c 1,8,9
EndSplineSet
EndChar
StartChar: uni0256
Encoding: 598 598 598
Width: 1273
Flags: W
TeX: 0 0 0 0
Fore
1049.6 -104 m 2,0,1
 1049.6 -234 1049.6 -234 1087.4 -294 c 0,2,3
 1127 -356 1127 -356 1208.9 -356 c 0,4,5
 1282.7 -356 1282.7 -356 1321.4 -311 c 0,6,7
 1359.2 -266 1359.2 -266 1365.5 -170 c 1,8,-1
 1451 -170 l 1,9,-1
 1451 -389 l 1,10,11
 1395.2 -422 1395.2 -422 1335.8 -438 c 0,12,13
 1277.3 -455 1277.3 -455 1212.5 -455 c 0,14,15
 1058.6 -455 1058.6 -455 970.4 -362 c 0,16,17
 883.1 -268 883.1 -268 883.1 -104 c 2,18,-1
 883.1 128 l 1,19,-1
 883.1 166 l 1,20,21
 834.5 66 834.5 66 759.8 18 c 0,22,23
 684.2 -29 684.2 -29 573.5 -29 c 0,24,25
 397.1 -29 397.1 -29 284.6 126 c 0,26,27
 173 282 173 282 173 532 c 128,-1,28
 173 782 173 782 284.6 937 c 128,-1,29
 396.2 1092 396.2 1092 573.5 1092 c 0,30,31
 684.2 1092 684.2 1092 759.8 1044 c 0,32,33
 834.5 997 834.5 997 883.1 897 c 1,34,-1
 883.1 1450 l 1,35,-1
 726.5 1450 l 1,36,-1
 726.5 1556 l 1,37,-1
 1048.7 1556 l 1,38,39
 1049.4 726.283 1049.4 726.283 1049.6 -104 c 2,0,1
883.1 479 m 2,40,-1
 883.1 584 l 2,41,42
 883.1 775 883.1 775 817.4 876 c 0,43,44
 750.8 977 750.8 977 624.8 977 c 0,45,46
 497 977 497 977 432.2 865 c 0,47,48
 366.5 753 366.5 753 366.5 532 c 0,49,50
 366.5 312 366.5 312 432.2 199 c 0,51,52
 497 86 497 86 624.8 86 c 0,53,54
 750.8 86 750.8 86 817.4 186 c 0,55,56
 883.1 287 883.1 287 883.1 479 c 2,40,-1
EndSplineSet
EndChar
StartChar: uni0257
Encoding: 599 599 599
Width: 1339
Flags: W
TeX: 0 0 0 0
Fore
882.15 897 m 1,1,-1
 882.15 1205 l 2,2,3
 882.15 1369 882.15 1369 970.35 1462 c 0,4,5
 1057.65 1556 1057.65 1556 1211.55 1556 c 0,6,7
 1276.35 1556 1276.35 1556 1335.75 1540 c 0,8,9
 1394.25 1523 1394.25 1523 1450.05 1490 c 1,10,-1
 1450.05 1271 l 1,11,-1
 1364.55 1271 l 1,12,13
 1358.25 1367 1358.25 1367 1319.55 1412 c 0,14,15
 1281.75 1457 1281.75 1457 1207.95 1457 c 0,16,17
 1126.05 1457 1126.05 1457 1087.35 1396 c 0,18,19
 1048.65 1337 1048.65 1337 1048.65 1205 c 2,20,-1
 1048.65 106 l 1,21,-1
 1207.05 106 l 1,22,-1
 1207.05 0 l 1,23,-1
 883.05 0 l 1,24,-1
 883.05 166 l 1,25,26
 834.45 66 834.45 66 759.75 18 c 0,27,28
 684.15 -29 684.15 -29 573.45 -29 c 0,29,30
 397.05 -29 397.05 -29 284.55 126 c 0,31,32
 172.95 282 172.95 282 172.95 532 c 128,-1,33
 172.95 782 172.95 782 284.55 937 c 128,-1,34
 396.15 1092 396.15 1092 573.45 1092 c 0,35,36
 684.15 1092 684.15 1092 759.75 1044 c 0,37,38
 833.55 997 833.55 997 882.15 897 c 1,1,-1
883.05 479 m 2,39,-1
 883.05 584 l 2,40,41
 883.05 775 883.05 775 817.35 876 c 0,42,43
 750.75 977 750.75 977 624.75 977 c 0,44,45
 496.95 977 496.95 977 432.15 865 c 0,46,47
 366.45 753 366.45 753 366.45 532 c 0,48,49
 366.45 312 366.45 312 432.15 199 c 0,50,51
 496.95 86 496.95 86 624.75 86 c 0,52,53
 750.75 86 750.75 86 817.35 186 c 0,54,55
 883.05 287 883.05 287 883.05 479 c 2,39,-1
EndSplineSet
EndChar
StartChar: uni0258
Encoding: 600 600 600
Width: 1151
Flags: W
Fore
152.4 512 m 1,0,1
 156.9 795 156.9 795 273 944 c 0,2,3
 389.1 1092 389.1 1092 606 1092 c 0,4,5
 809.4 1092 809.4 1092 934.5 938 c 128,-1,6
 1059.6 784 1059.6 784 1059.6 532 c 0,7,8
 1059.6 278 1059.6 278 931.8 124 c 0,9,10
 804.9 -29 804.9 -29 595.2 -29 c 0,11,12
 421.5 -29 421.5 -29 314.4 59 c 0,13,14
 208.2 147 208.2 147 168.6 322 c 1,15,-1
 301.8 322 l 1,16,17
 329.7 197 329.7 197 399 134 c 0,18,19
 469.2 70 469.2 70 578.1 70 c 0,20,21
 720.3 70 720.3 70 793.2 180 c 0,22,23
 866.1 289 866.1 289 866.1 504 c 2,24,-1
 866.1 512 l 1,25,-1
 152.4 512 l 1,0,1
347.7 618 m 1,26,-1
 866.1 618 l 1,27,28
 851.7 803 851.7 803 786 898 c 128,-1,29
 720.3 993 720.3 993 606 993 c 0,30,31
 483.6 993 483.6 993 418.8 898 c 0,32,33
 353.1 804 353.1 804 347.7 618 c 1,26,-1
EndSplineSet
EndChar
StartChar: uni0259
Encoding: 601 601 601
Width: 1151
Flags: W
Fore
152.4 551 m 1,0,-1
 866.1 551 l 1,1,-1
 866.1 559 l 2,2,3
 866.1 774 866.1 774 793.2 884 c 0,4,5
 720.3 993 720.3 993 578.1 993 c 0,6,7
 469.2 993 469.2 993 399 930 c 0,8,9
 329.7 866 329.7 866 301.8 741 c 1,10,-1
 168.6 741 l 1,11,12
 208.2 916 208.2 916 314.4 1004 c 0,13,14
 421.5 1092 421.5 1092 595.2 1092 c 0,15,16
 804.9 1092 804.9 1092 931.8 938 c 0,17,18
 1059.6 785 1059.6 785 1059.6 531 c 0,19,20
 1059.6 279 1059.6 279 934.5 125 c 128,-1,21
 809.4 -29 809.4 -29 606 -29 c 0,22,23
 389.1 -29 389.1 -29 273 120 c 0,24,25
 156.9 268 156.9 268 152.4 551 c 1,0,-1
347.7 445 m 1,26,27
 353.1 259 353.1 259 418.8 164 c 0,28,29
 483.6 70 483.6 70 606 70 c 0,30,31
 720.3 70 720.3 70 786 165 c 128,-1,32
 851.7 260 851.7 260 866.1 445 c 1,33,-1
 347.7 445 l 1,26,27
EndSplineSet
EndChar
StartChar: uni025A
Encoding: 602 602 602
Width: 1652
Flags: W
TeX: 0 0 0 0
Fore
1696.25 757 m 1,0,1
 1685.5 712 1685.5 712 1561 712 c 0,2,3
 1487 712 1487 712 1425.23 774 c 0,4,5
 1366.26 833.006 1366.26 833.006 1366.26 964 c 2,6,-1
 1366.26 1025 l 1,7,-1
 1264 1025 l 1,8,-1
 1018.17 867.854 l 1,9,10
 996.807 905.105 996.807 905.105 969.7 938 c 0,11,12
 842.799 1092 842.799 1092 633.1 1092 c 0,13,14
 459.401 1092 459.401 1092 352.3 1004 c 0,15,16
 246.102 916.001 246.102 916.001 206.5 741 c 1,17,-1
 339.7 741 l 1,18,19
 368.105 868.26 368.105 868.26 436.9 930 c 0,20,21
 507.1 993 507.1 993 616 993 c 0,22,23
 758.199 993 758.199 993 831.1 884 c 0,24,25
 860.482 839.664 860.482 839.664 878.022 778.271 c 1,26,-1
 208.044 350 l 1,27,28
 220.025 237.8 220.025 237.8 310.9 120 c 0,29,30
 425.842 -29 425.842 -29 643.9 -29 c 0,31,32
 847.3 -29 847.3 -29 972.4 125 c 0,33,34
 1097.5 279 1097.5 279 1097.5 531 c 0,35,36
 1097.5 665.938 1097.5 665.938 1060.83 773.096 c 1,37,-1
 1289.8 919.215 l 1,38,39
 1300.27 787.302 1300.27 787.302 1375.51 706 c 0,40,41
 1461.57 613 1461.57 613 1563.84 613 c 0,42,43
 1649.42 613 1649.42 613 1691.5 630 c 0,44,45
 1694.27 631.119 1694.27 631.119 1763.5 679 c 1,46,-1
 1696.25 757 l 1,0,1
898.468 669.484 m 1,47,48
 904 618.226 904 618.226 904 559 c 2,49,-1
 904 531 l 1,50,51
 881.954 257.339 881.954 257.339 823.9 165 c 0,52,53
 764.173 70 764.173 70 643.9 70 c 0,54,55
 521.501 70 521.501 70 456.7 164 c 0,56,57
 398.935 249.134 398.935 249.134 397.3 349.664 c 1,58,-1
 898.468 669.484 l 1,47,48
EndSplineSet
EndChar
StartChar: uni025B
Encoding: 603 603 603
Width: 990
Flags: W
TeX: 0 0 0 0
Fore
537.6 -36 m 0,0,1
 335.1 -36 335.1 -36 239.7 41 c 128,-1,2
 144.3 118 144.3 118 144.3 259 c 0,3,4
 144.3 362 144.3 362 211.8 433 c 0,5,6
 280.2 504 280.2 504 401.7 528 c 1,7,8
 280.2 552 280.2 552 211.8 624 c 0,9,10
 144.3 695 144.3 695 144.3 797 c 0,11,12
 144.3 938 144.3 938 239.7 1015 c 128,-1,13
 335.1 1092 335.1 1092 512.4 1092 c 0,14,15
 588 1092 588 1092 673.5 1073 c 0,16,17
 759 1055 759 1055 852.6 1018 c 1,18,-1
 852.6 803 l 1,19,-1
 763.5 803 l 1,20,21
 754.5 896 754.5 896 698.7 941 c 0,22,23
 642.9 987 642.9 987 537.6 987 c 0,24,25
 440.4 987 440.4 987 388.2 935 c 0,26,27
 336.9 884 336.9 884 336.9 789 c 0,28,29
 336.9 683 336.9 683 399.9 631 c 0,30,31
 463.8 578 463.8 578 588 578 c 2,32,-1
 622.2 578 l 1,33,-1
 622.2 478 l 17,34,-1
 588 478 l 2,35,36
 463.8 478 463.8 478 399.9 426 c 0,37,38
 336.9 373 336.9 373 336.9 268 c 0,39,40
 336.9 172 336.9 172 388.2 121 c 0,41,42
 439.5 71 439.5 71 537.6 70 c 0,43,44
 641.1 69 641.1 69 696.9 115 c 128,-1,45
 752.7 161 752.7 161 770.7 285 c 1,46,-1
 905.7 285 l 1,47,48
 885.9 156 885.9 156 804 59 c 0,49,50
 723.9 -36 723.9 -36 537.6 -36 c 0,0,1
EndSplineSet
EndChar
StartChar: uni025C
Encoding: 604 604 604
Width: 990
Flags: W
TeX: 0 0 0 0
Fore
512.4 -36 m 0,0,1
 326.1 -36 326.1 -36 246 59 c 0,2,3
 164.1 156 164.1 156 144.3 285 c 1,4,-1
 279.3 285 l 1,5,6
 297.3 161 297.3 161 353.1 115 c 128,-1,7
 408.9 69 408.9 69 512.4 70 c 0,8,9
 610.5 71 610.5 71 661.8 121 c 0,10,11
 713.1 172 713.1 172 713.1 268 c 0,12,13
 713.1 373 713.1 373 650.1 426 c 0,14,15
 586.2 478 586.2 478 462 478 c 2,16,-1
 427.8 478 l 9,17,-1
 427.8 578 l 1,18,-1
 462 578 l 2,19,20
 586.2 578 586.2 578 650.1 631 c 0,21,22
 713.1 683 713.1 683 713.1 789 c 0,23,24
 713.1 884 713.1 884 661.8 935 c 0,25,26
 609.6 987 609.6 987 512.4 987 c 0,27,28
 407.1 987 407.1 987 351.3 941 c 0,29,30
 295.5 896 295.5 896 286.5 803 c 1,31,-1
 197.4 803 l 1,32,-1
 197.4 1018 l 1,33,34
 291 1055 291 1055 376.5 1073 c 0,35,36
 462 1092 462 1092 537.6 1092 c 0,37,38
 714.9 1092 714.9 1092 810.3 1015 c 128,-1,39
 905.7 938 905.7 938 905.7 797 c 0,40,41
 905.7 695 905.7 695 838.2 624 c 0,42,43
 769.8 552 769.8 552 648.3 528 c 1,44,45
 769.8 504 769.8 504 838.2 433 c 0,46,47
 905.7 362 905.7 362 905.7 259 c 0,48,49
 905.7 118 905.7 118 810.3 41 c 128,-1,50
 714.9 -36 714.9 -36 512.4 -36 c 0,0,1
EndSplineSet
EndChar
StartChar: uni025D
Encoding: 605 605 605
Width: 1515
Flags: W
TeX: 0 0 0 0
Fore
550.316 -36 m 0,0,1
 364.017 -36 364.017 -36 283.917 59 c 0,2,3
 202.016 156.001 202.016 156.001 182.217 285 c 1,4,-1
 317.217 285 l 1,5,6
 335.219 160.997 335.219 160.997 391.017 115 c 0,7,8
 446.817 69.001 446.817 69.001 550.316 70 c 0,9,10
 648.417 70.999 648.417 70.999 699.717 121 c 0,11,12
 751.017 172 751.017 172 751.017 268 c 0,13,14
 751.017 372.998 751.017 372.998 688.017 426 c 0,15,16
 624.114 478 624.114 478 499.917 478 c 2,17,-1
 465.717 478 l 1,18,-1
 465.717 578 l 1,19,-1
 499.917 578 l 2,20,21
 624.116 578 624.116 578 688.017 631 c 0,22,23
 751.017 683 751.017 683 751.017 789 c 0,24,25
 751.017 884 751.017 884 699.717 935 c 0,26,27
 647.517 987 647.517 987 550.316 987 c 0,28,29
 445.019 987 445.019 987 389.217 941 c 0,30,31
 333.416 896 333.416 896 324.417 803 c 1,32,-1
 235.316 803 l 1,33,-1
 235.316 1018 l 1,34,35
 328.925 1055 328.925 1055 414.417 1073 c 0,36,37
 499.922 1092 499.922 1092 575.517 1092 c 0,38,39
 752.818 1092 752.818 1092 848.217 1015 c 0,40,41
 935.079 944.889 935.079 944.889 942.853 821.722 c 1,42,-1
 1126.61 1025 l 1,43,-1
 1228.87 1025 l 1,44,-1
 1228.87 964 l 2,45,46
 1228.87 833.003 1228.87 833.003 1287.84 774 c 0,47,48
 1349.62 712 1349.62 712 1423.61 712 c 0,49,50
 1548.11 712 1548.11 712 1558.87 757 c 1,51,-1
 1626.11 679 l 1,52,53
 1556.89 631.119 1556.89 631.119 1554.11 630 c 0,54,55
 1512.04 613 1512.04 613 1426.46 613 c 0,56,57
 1324.18 613 1324.18 613 1238.12 706 c 0,58,59
 1162.88 787.302 1162.88 787.302 1152.42 919.215 c 1,60,-1
 890.063 639.889 l 1,61,62
 883.493 631.759 883.493 631.759 876.116 624 c 0,63,64
 869.814 617.367 869.814 617.367 863.062 611.141 c 2,65,-1
 855.416 603 l 1,66,-1
 855.416 604.345 l 1,67,68
 790.302 548.56 790.302 548.56 686.217 528 c 1,69,70
 807.719 504 807.719 504 876.116 433 c 0,71,72
 943.616 361.999 943.616 361.999 943.616 259 c 0,73,74
 943.616 118.002 943.616 118.002 848.217 41 c 0,75,76
 752.818 -36 752.818 -36 550.316 -36 c 0,0,1
EndSplineSet
EndChar
StartChar: uni025E
Encoding: 606 606 606
Width: 1193
Flags: W
TeX: 0 0 0 0
Fore
716.65 987 m 0,0,1
 705.85 987 705.85 987 626.65 969 c 0,2,3
 589.75 960 589.75 960 525.85 923 c 0,4,5
 309.85 800 309.85 800 309.85 525 c 0,6,7
 309.85 266 309.85 266 525.85 127 c 0,8,9
 540.25 111 540.25 111 626.65 81 c 0,10,11
 660.85 70 660.85 70 716.65 70 c 0,12,13
 813.85 70 813.85 70 866.05 121 c 0,14,15
 917.35 172 917.35 172 917.35 268 c 0,16,17
 917.35 373 917.35 373 854.35 426 c 0,18,19
 790.45 478 790.45 478 666.25 478 c 2,20,-1
 632.05 478 l 9,21,-1
 632.05 578 l 1,22,-1
 666.25 578 l 2,23,24
 790.45 578 790.45 578 854.35 631 c 0,25,26
 917.35 683 917.35 683 917.35 789 c 0,27,28
 917.35 884 917.35 884 866.05 935 c 0,29,30
 813.85 987 813.85 987 716.65 987 c 0,0,1
461.95 38 m 0,31,32
 155.05 189 155.05 189 155.05 528 c 0,33,34
 155.05 836 155.05 836 461.95 1018 c 0,35,36
 514.15 1049 514.15 1049 605.05 1074 c 0,37,38
 675.25 1092 675.25 1092 741.85 1092 c 0,39,40
 918.25 1092 918.25 1092 1014.55 1015 c 0,41,42
 1109.95 938 1109.95 938 1109.95 797 c 0,43,44
 1109.95 695 1109.95 695 1042.45 624 c 0,45,46
 974.05 552 974.05 552 852.55 528 c 1,47,48
 974.05 504 974.05 504 1042.45 433 c 0,49,50
 1109.95 362 1109.95 362 1109.95 259 c 0,51,52
 1109.95 118 1109.95 118 1014.55 41 c 128,-1,53
 919.15 -36 919.15 -36 741.85 -36 c 0,54,55
 705.85 -36 705.85 -36 605.05 -17 c 0,56,57
 555.55 -12 555.55 -12 461.95 38 c 0,31,32
EndSplineSet
EndChar
StartChar: uni025F
Encoding: 607 607 607
Width: 600
Flags: W
Fore
245.05 956 m 1,0,-1
 88.4502 956 l 1,1,-1
 88.4502 1063 l 1,2,-1
 410.65 1063 l 1,3,-1
 410.65 107 l 1,4,-1
 411.55 107 l 1,5,-1
 558.25 107 l 1,6,-1
 558.25 0 l 1,7,-1
 410.65 -0 l 1,8,-1
 410.65 -104 l 2,9,10
 410.65 -268.002 410.65 -268.002 322.45 -362 c 0,11,12
 235.151 -455 235.151 -455 81.25 -455 c 0,13,14
 16.4463 -455 16.4463 -455 -42.9502 -438 c 0,15,16
 -101.444 -422.003 -101.444 -422.003 -157.25 -389 c 1,17,-1
 -157.25 -170 l 1,18,-1
 -71.75 -170 l 1,19,20
 -65.4512 -265.998 -65.4512 -265.998 -26.75 -311 c 0,21,22
 11.0498 -356 11.0498 -356 84.8496 -356 c 0,23,24
 166.752 -356 166.752 -356 205.45 -294 c 0,25,26
 245.05 -233.002 245.05 -233.002 245.05 -104 c 2,27,-1
 245.05 0 l 1,28,-1
 20.0498 0 l 1,29,-1
 20.0498 107 l 1,30,-1
 245.05 107 l 1,31,-1
 245.05 956 l 1,0,-1
EndSplineSet
EndChar
StartChar: uni0260
Encoding: 608 608 608
Width: 1340
Flags: W
TeX: 0 0 0 0
Fore
883.1 584 m 17,0,-1
 884 956 l 1,1,-1
 624.8 956 l 1,2,3
 497 956 497 956 431.75 844 c 128,-1,4
 366.5 732 366.5 732 366.5 532 c 0,5,6
 366.5 312 366.5 312 431.75 199 c 128,-1,7
 497 86 497 86 624.8 86 c 0,8,9
 750.8 86 750.8 86 816.95 186.5 c 128,-1,10
 883.1 287 883.1 287 883.1 479 c 2,11,-1
 883.1 584 l 17,0,-1
1048.7 1191 m 17,12,-1
 1048.7 23 l 2,13,14
 1048.7 -205.79 1048.7 -205.79 935.3 -330.5 c 0,15,16
 821.9 -455 821.9 -455 612.2 -455 c 0,17,18
 517.7 -455 517.7 -455 431.3 -436 c 128,-1,19
 344.9 -417 344.9 -417 265.7 -379 c 1,20,-1
 265.7 -156 l 1,21,-1
 352.1 -156 l 1,22,23
 368.3 -260 368.3 -260 428.6 -308 c 128,-1,24
 488.9 -356 488.9 -356 601.4 -356 c 0,25,26
 747.2 -356 747.2 -356 815.15 -264.5 c 128,-1,27
 883.1 -173 883.1 -173 883.1 23 c 2,28,-1
 883.1 166 l 1,29,30
 834.5 66 834.5 66 759.35 18.5 c 128,-1,31
 684.2 -29 684.2 -29 573.5 -29 c 0,32,33
 397.1 -29 397.1 -29 285.05 126.5 c 128,-1,34
 173 282 173 282 173 532 c 0,35,36
 173 753 173 753 284.6 908 c 128,-1,37
 396.2 1063 396.2 1063 573.5 1063 c 0,38,-1
 883.1 1063 l 9,39,-1
 883.1 1205 l 18,40,41
 883.1 1369 883.1 1369 970.4 1462 c 0,42,43
 1058.6 1556 1058.6 1556 1212.5 1556 c 0,44,45
 1277.3 1556 1277.3 1556 1335.8 1540 c 0,46,47
 1395.2 1523 1395.2 1523 1451 1490 c 1,48,-1
 1451 1271 l 1,49,-1
 1365.5 1271 l 1,50,51
 1359.2 1367 1359.2 1367 1321.4 1412 c 0,52,53
 1282.7 1457 1282.7 1457 1208.9 1457 c 0,54,55
 1127 1457 1127 1457 1087.4 1396 c 0,56,57
 1049.6 1336 1049.6 1336 1049.6 1205 c 9,58,-1
 1048.7 1191 l 17,12,-1
EndSplineSet
EndChar
StartChar: uni0261
Encoding: 609 609 609
Width: 1247
Flags: W
TeX: 0 0 0 0
Fore
559.95 1063 m 0,0,-1
 1193.55 1063 l 1,1,-1
 1193.55 956 l 1,2,-1
 1035.15 956 l 1,3,-1
 1035.15 23 l 2,4,5
 1035.15 -206 1035.15 -206 921.75 -330.5 c 128,-1,6
 808.35 -455 808.35 -455 598.65 -455 c 0,7,8
 504.15 -455 504.15 -455 417.75 -436 c 128,-1,9
 331.35 -417 331.35 -417 252.15 -379 c 1,10,-1
 252.15 -156 l 1,11,-1
 338.55 -156 l 1,12,13
 354.75 -260 354.75 -260 415.05 -308 c 128,-1,14
 475.35 -356 475.35 -356 587.85 -356 c 0,15,16
 733.65 -356 733.65 -356 801.6 -264.5 c 128,-1,17
 869.55 -173 869.55 -173 869.55 23 c 2,18,-1
 869.55 166 l 1,19,20
 820.95 66 820.95 66 745.8 18.5 c 128,-1,21
 670.65 -29 670.65 -29 559.95 -29 c 0,22,23
 383.55 -29 383.55 -29 271.5 126.5 c 128,-1,24
 159.45 282 159.45 282 159.45 532 c 0,25,26
 159.45 753 159.45 753 271.05 908 c 128,-1,27
 382.65 1063 382.65 1063 559.95 1063 c 0,0,-1
869.55 584 m 17,28,-1
 870.45 956 l 1,29,-1
 611.25 956 l 1,30,31
 483.45 956 483.45 956 418.2 844 c 128,-1,32
 352.95 732 352.95 732 352.95 532 c 0,33,34
 352.95 312 352.95 312 418.2 199 c 128,-1,35
 483.45 86 483.45 86 611.25 86 c 0,36,37
 737.25 86 737.25 86 803.4 186.5 c 128,-1,38
 869.55 287 869.55 287 869.55 479 c 2,39,-1
 869.55 584 l 17,28,-1
EndSplineSet
EndChar
StartChar: uni0262
Encoding: 610 610 610
Width: 1060
Flags: W
TeX: 0 0 0 0
Fore
614 -33 m 0,0,-1
623.9 57 m 0,1,-1
877.7 725 m 1,2,3
 851.6 882 851.6 882 795.8 929 c 0,4,5
 722 993 722 993 614 993 c 0,6,7
 497 993 497 993 415.1 872 c 0,8,9
 335 753 335 753 335 512 c 0,10,11
 335 270 335 270 417.8 154 c 0,12,13
 488.9 54 488.9 54 703.1 54 c 0,14,15
 758 54 758 54 821.9 84 c 0,16,17
 869.6 106 869.6 106 880.4 114 c 1,18,-1
 878.6 400 l 1,19,-1
 701.3 400 l 1,20,-1
 701.3 477 l 1,21,-1
 1006.4 477 l 1,22,-1
 1006.4 75 l 1,23,24
 922.7 19 922.7 19 825.5 -9 c 0,25,26
 729.2 -37 729.2 -37 619.4 -37 c 0,27,28
 406.1 -37 406.1 -37 277.4 116 c 0,29,30
 149.6 269 149.6 269 149.6 523 c 0,31,32
 149.6 778 149.6 778 278.3 931 c 0,33,34
 407 1083 407 1083 623.9 1083 c 0,35,36
 699.5 1083 699.5 1083 790.4 1061 c 0,37,38
 876.8 1040 876.8 1040 974 997 c 1,39,-1
 974 725 l 1,40,-1
 877.7 725 l 1,2,3
EndSplineSet
EndChar
StartChar: uni0263
Encoding: 611 611 611
Width: 1380
Flags: W
TeX: 0 0 0 0
Fore
620.85 465 m 0,0,-1
 296.85 960 l 1,1,-1
 152.85 960 l 1,2,-1
 152.85 1067 l 1,3,-1
 685.65 1067 l 1,4,-1
 685.65 960 l 1,5,-1
 527.25 960 l 1,6,-1
 746.85 637 l 1,7,-1
 944.85 956 l 1,8,-1
 772.05 956 l 1,9,-1
 772.05 1063 l 1,10,-1
 1212.15 1063 l 1,11,-1
 1212.15 956 l 1,12,-1
 1060.95 956 l 1,13,-1
 803.55 543 l 0,14,15
 1219.66 -99.9922 1219.66 -99.9922 1054.29 -312 c 0,16,17
 941.97 -456 941.97 -456 688.53 -456 c 16,18,19
 432.93 -456 432.93 -456 389.01 -256 c 0,20,21
 325.597 -75 325.597 -75 620.85 465 c 0,0,-1
680.25 368 m 1,22,23
 478.891 -14.3281 478.891 -14.3281 481.17 -212 c 24,24,25
 482.761 -350 482.761 -350 688.53 -350 c 16,26,27
 884.37 -350 884.37 -350 884.37 -212 c 16,28,29
 884.37 61.1533 884.37 61.1533 680.25 368 c 1,22,23
EndSplineSet
EndChar
StartChar: uni0264
Encoding: 612 612 612
Width: 1098
Flags: W
TeX: 0 0 0 0
Fore
600.6 883 m 1,0,1
 733.765 1087.49 733.765 1087.49 917.4 1086 c 8,2,3
 960.222 1085.65 960.222 1085.65 987.6 1029 c 1,4,-1
 987.6 954 l 25,5,-1
 893.1 954 l 25,6,-1
 893.1 973 l 26,7,8
 893.1 1020.72 893.1 1020.72 849.9 1020 c 0,9,10
 788.822 1020 788.822 1020 657.3 797 c 1,11,12
 974.775 221.351 974.775 221.351 845.4 74 c 0,13,14
 751.265 -31.8633 751.265 -31.8633 546.6 -33 c 0,15,16
 414.04 -33.8574 414.04 -33.8574 312.6 74 c 0,17,18
 167.648 224.464 167.648 224.464 498.9 744 c 1,19,20
 362.044 1015.33 362.044 1015.33 318 1017 c 0,21,22
 280.2 1018.44 280.2 1018.44 280.2 930 c 26,23,-1
 280.2 912 l 25,24,-1
 188.4 912 l 25,25,-1
 188.4 1020 l 17,26,27
 264 1086 264 1086 369.3 1089 c 0,28,29
 467.115 1091.79 467.115 1091.79 600.6 883 c 1,0,1
552.9 658 m 1,30,31
 384.384 391.407 384.384 391.407 385.5 182 c 0,32,33
 386.077 74 386.077 74 546.6 74 c 0,34,35
 649.276 74 649.276 74 705 178 c 0,36,37
 749.891 258.886 749.891 258.886 552.9 658 c 1,30,31
EndSplineSet
EndChar
StartChar: uni0265
Encoding: 613 613 613
Width: 1252
Flags: W
Fore
704.8 -320 m 17,0,-1
 861.4 -320 l 1,1,-1
 861.4 188 l 1,2,3
 815.5 82 815.5 82 742.6 26 c 0,4,5
 669.7 -29 669.7 -29 573.4 -29 c 0,6,7
 414.1 -29 414.1 -29 338.5 72 c 0,8,9
 263.8 172 263.8 172 263.8 387 c 2,10,-1
 263.8 956 l 1,11,-1
 114.4 956 l 1,12,-1
 114.4 1063 l 1,13,-1
 430.3 1063 l 1,14,-1
 430.3 444 l 2,15,16
 430.3 250 430.3 250 473.5 178 c 0,17,18
 515.8 106 515.8 106 625.6 106 c 0,19,20
 740.8 106 740.8 106 801.1 200 c 128,-1,21
 861.4 294 861.4 294 861.4 473 c 2,22,-1
 861.4 956 l 1,23,-1
 717.4 956 l 1,24,-1
 717.4 1063 l 1,25,-1
 1027 1063 l 1,26,-1
 1027 -320 l 1,27,-1
 1183.6 -320 l 1,28,-1
 1183.6 -426 l 1,29,-1
 861.4 -426 l 1,30,-1
 704.8 -424 l 1,31,-1
 704.8 -320 l 17,0,-1
EndSplineSet
EndChar
StartChar: uni0266
Encoding: 614 614 614
Width: 1254
Flags: W
Fore
458.8 874 m 1,0,1
 504.7 982 504.7 982 576.7 1037 c 0,2,3
 650.5 1092 650.5 1092 747.7 1092 c 0,4,5
 906.1 1092 906.1 1092 980.8 991 c 128,-1,6
 1055.5 890 1055.5 890 1055.5 676 c 2,7,-1
 1055.5 106 l 1,8,-1
 1203.1 106 l 1,9,-1
 1203.1 0 l 1,10,-1
 745.9 0 l 1,11,-1
 745.9 106 l 1,12,-1
 889 106 l 1,13,-1
 889 618 l 2,14,15
 889 813 889 813 846.7 884 c 0,16,17
 803.5 956 803.5 956 693.7 956 c 0,18,19
 578.5 956 578.5 956 518.2 863 c 128,-1,20
 457.9 770 457.9 770 457.9 592 c 2,21,-1
 457.9 106 l 1,22,-1
 601.9 106 l 1,23,-1
 601.9 0 l 1,24,-1
 142.9 0 l 1,25,-1
 142.9 106 l 1,26,-1
 292.3 106 l 1,27,-1
 292.3 973 l 1,28,-1
 292.3 1205 l 2,29,30
 292.3 1369 292.3 1369 380.5 1462 c 0,31,32
 467.8 1556 467.8 1556 621.7 1556 c 0,33,34
 686.5 1556 686.5 1556 745.9 1540 c 0,35,36
 804.4 1523 804.4 1523 860.2 1490 c 1,37,-1
 860.2 1271 l 1,38,-1
 774.7 1271 l 1,39,40
 768.4 1367 768.4 1367 729.7 1412 c 0,41,42
 691.9 1457 691.9 1457 618.1 1457 c 0,43,44
 536.2 1457 536.2 1457 497.5 1396 c 0,45,46
 458.8 1339 458.8 1339 458.8 1205 c 2,47,-1
 458.8 874 l 1,0,1
EndSplineSet
EndChar
StartChar: uni0267
Encoding: 615 615 615
Width: 1246
Flags: W
Fore
450.6 874 m 1,0,1
 496.5 982 496.5 982 568.5 1037 c 0,2,3
 642.3 1092 642.3 1092 739.5 1092 c 0,4,5
 897.9 1092 897.9 1092 972.6 991 c 128,-1,6
 1047.3 890 1047.3 890 1047.3 676 c 2,7,-1
 1047.3 128 l 1,8,-1
 1047.3 -104 l 2,9,10
 1047.3 -268 1047.3 -268 959.1 -362 c 0,11,12
 871.8 -455 871.8 -455 717.9 -455 c 0,13,14
 653.1 -455 653.1 -455 593.7 -438 c 0,15,16
 535.2 -422 535.2 -422 479.4 -389 c 1,17,-1
 479.4 -170 l 1,18,-1
 564.9 -170 l 1,19,20
 571.2 -266 571.2 -266 609.9 -311 c 0,21,22
 647.7 -356 647.7 -356 721.5 -356 c 0,23,24
 803.4 -356 803.4 -356 842.1 -294 c 0,25,26
 880.8 -234 880.8 -234 880.8 -104 c 2,27,-1
 880.8 128 l 1,28,-1
 880.8 618 l 2,29,30
 880.8 813 880.8 813 838.5 884 c 0,31,32
 795.3 956 795.3 956 685.5 956 c 0,33,34
 570.3 956 570.3 956 510 863 c 128,-1,35
 449.7 770 449.7 770 449.7 592 c 2,36,-1
 449.7 106 l 1,37,-1
 593.7 106 l 1,38,-1
 593.7 0 l 1,39,-1
 134.7 0 l 1,40,-1
 134.7 106 l 1,41,-1
 284.1 106 l 1,42,-1
 284.1 973 l 1,43,-1
 284.1 1205 l 2,44,45
 284.1 1369 284.1 1369 372.3 1462 c 0,46,47
 459.6 1556 459.6 1556 613.5 1556 c 0,48,49
 678.3 1556 678.3 1556 737.7 1540 c 0,50,51
 796.2 1523 796.2 1523 852 1490 c 1,52,-1
 852 1271 l 1,53,-1
 766.5 1271 l 1,54,55
 760.2 1367 760.2 1367 721.5 1412 c 0,56,57
 683.7 1457 683.7 1457 609.9 1457 c 0,58,59
 528 1457 528 1457 489.3 1396 c 0,60,61
 450.6 1337 450.6 1337 450.6 1205 c 2,62,-1
 450.6 966 l 1,63,-1
 450.6 874 l 1,0,1
EndSplineSet
EndChar
StartChar: uni0268
Encoding: 616 616 616
Width: 623
Flags: W
Fore
424.7 106 m 1,0,-1
 581.3 106 l 1,1,-1
 581.3 0 l 1,2,-1
 100.7 0 l 1,3,-1
 100.7 106 l 1,4,-1
 259.1 106 l 1,5,-1
 259.1 464 l 1,6,-1
 100.7 464 l 1,7,-1
 100.7 570 l 1,8,-1
 259.1 570 l 1,9,-1
 259.1 956 l 1,10,-1
 100.7 956 l 1,11,-1
 100.7 1063 l 1,12,-1
 424.7 1063 l 1,13,-1
 424.7 570 l 1,14,-1
 581.3 570 l 1,15,-1
 581.3 464 l 1,16,-1
 424.7 464 l 1,17,-1
 424.7 106 l 1,0,-1
213.2 1393 m 0,18,19
 213.2 1439 213.2 1439 242.9 1473 c 0,20,21
 273.5 1507 273.5 1507 315.8 1507 c 0,22,23
 357.199 1507 357.199 1507 386.9 1473 c 0,24,25
 417.5 1439 417.5 1439 417.5 1393 c 0,26,27
 417.5 1346 417.5 1346 387.8 1313 c 128,-1,28
 358.1 1280 358.1 1280 315.8 1280 c 0,29,30
 273.499 1280 273.499 1280 242.9 1313 c 0,31,32
 213.2 1346 213.2 1346 213.2 1393 c 0,18,19
213.2 1393 m 0,33,34
 213.2 1439 213.2 1439 242.9 1473 c 0,35,36
 273.5 1507 273.5 1507 315.8 1507 c 0,37,38
 357.2 1507 357.2 1507 386.9 1473 c 0,39,40
 417.5 1439 417.5 1439 417.5 1393 c 0,41,42
 417.5 1346 417.5 1346 387.8 1313 c 128,-1,43
 358.1 1280 358.1 1280 315.8 1280 c 128,-1,44
 273.5 1280 273.5 1280 242.9 1313 c 0,45,46
 213.2 1346 213.2 1346 213.2 1393 c 0,33,34
EndSplineSet
EndChar
StartChar: uni0269
Encoding: 617 617 617
Width: 756
Flags: W
TeX: 0 0 0 0
Fore
258.35 351 m 1,0,1
 258.35 183 258.35 183 342.05 94 c 0,2,3
 430.25 0 430.25 0 584.15 0 c 9,4,-1
 584.15 99 l 1,5,6
 502.25 99 502.25 99 462.65 160 c 0,7,8
 424.85 220 424.85 220 424.85 351 c 1,9,-1
 424.85 1063 l 1,10,-1
 100.85 1063 l 1,11,-1
 100.85 956 l 1,12,-1
 259.25 956 l 1,13,-1
 258.35 351 l 1,0,1
EndSplineSet
EndChar
StartChar: uni026A
Encoding: 618 618 618
Width: 623
Flags: W
TeX: 0 0 0 0
Fore
424.7 106 m 1,0,-1
 581.3 106 l 1,1,-1
 581.3 0 l 1,2,-1
 100.7 0 l 1,3,-1
 100.7 106 l 1,4,-1
 259.1 106 l 1,5,-1
 259.1 956 l 1,6,-1
 100.7 956 l 1,7,-1
 100.7 1063 l 1,8,-1
 581.3 1063 l 1,9,-1
 581.3 960 l 1,10,-1
 424.7 960 l 1,11,-1
 424.7 106 l 1,0,-1
EndSplineSet
EndChar
StartChar: uni026B
Encoding: 619 619 619
Width: 741
Flags: W
Fore
482.2 106 m 1,0,-1
 638.8 106 l 1,1,-1
 638.8 0 l 1,2,-1
 157.3 0 l 1,3,-1
 157.3 106 l 1,4,-1
 316.6 106 l 1,5,-1
 316.6 744.45 l 1,6,7
 313.354 746.492 313.354 746.492 310.3 748 c 0,8,9
 295.001 756 295.001 756 277.9 756 c 0,10,11
 240.101 756 240.101 756 218.5 716 c 0,12,13
 196.901 677.002 196.901 677.002 192.4 601 c 1,14,-1
 106 601 l 1,15,16
 107.801 736 107.801 736 153.7 810 c 0,17,18
 199.601 883 199.601 883 281.5 883 c 0,19,20
 299.826 883 299.826 883 316.6 878.981 c 1,21,-1
 316.6 1450 l 1,22,-1
 157.3 1450 l 1,23,-1
 157.3 1556 l 1,24,-1
 482.2 1556 l 1,25,-1
 482.2 743.886 l 1,26,27
 488.714 738.689 488.714 738.689 493.9 736 c 0,28,29
 509.199 728 509.199 728 528.1 728 c 0,30,31
 566.799 728 566.799 728 588.4 768 c 0,32,33
 610.001 808.001 610.001 808.001 613.6 883 c 1,34,-1
 700 883 l 1,35,36
 698.199 748 698.199 748 652.3 674 c 0,37,38
 606.399 601 606.399 601 524.5 601 c 0,39,40
 502.201 601 502.201 601 482.2 606.951 c 1,41,-1
 482.2 106 l 1,0,-1
EndSplineSet
EndChar
StartChar: uni026C
Encoding: 620 620 620
Width: 884
Flags: W
TeX: 0 0 0 0
Fore
622.95 106 m 1,0,-1
 779.55 106 l 1,1,-1
 779.55 0 l 1,2,-1
 298.05 0 l 1,3,-1
 298.05 106 l 1,4,-1
 456.45 106 l 1,5,-1
 456.45 468 l 1,6,7
 115.336 469 115.336 469 114.45 664 c 0,8,9
 113.55 893 113.55 893 325.95 894 c 0,10,11
 404.25 894 404.25 894 457.35 838 c 1,12,-1
 457.35 1450 l 1,13,-1
 298.05 1450 l 1,14,-1
 298.05 1556 l 1,15,-1
 622.95 1556 l 1,16,-1
 622.95 564 l 1,17,-1
 842.55 564 l 1,18,-1
 842.55 465 l 1,19,-1
 622.95 465 l 1,20,-1
 622.95 106 l 1,0,-1
447.45 564 m 1,21,22
 428.55 787 428.55 787 363.75 786 c 0,23,24
 310.649 785 310.649 785 310.649 671 c 0,25,26
 310.649 566 310.649 566 447.45 564 c 1,21,22
EndSplineSet
EndChar
StartChar: uni026D
Encoding: 621 621 621
Width: 714
Flags: W
Fore
258.65 1450 m 1,0,-1
 99.3496 1450 l 1,1,-1
 99.3496 1556 l 1,2,-1
 424.25 1556 l 1,3,-1
 424.25 -104 l 2,4,5
 424.25 -234 424.25 -234 462.05 -294 c 0,6,7
 501.65 -356 501.65 -356 583.55 -356 c 0,8,9
 657.35 -356 657.35 -356 696.05 -311 c 0,10,11
 733.85 -266 733.85 -266 740.15 -170 c 1,12,-1
 825.65 -170 l 1,13,-1
 825.65 -389 l 1,14,15
 769.85 -422 769.85 -422 710.45 -438 c 0,16,17
 651.95 -455 651.95 -455 587.15 -455 c 0,18,19
 433.25 -455 433.25 -455 345.05 -362 c 0,20,21
 257.75 -268 257.75 -268 257.75 -104 c 0,22,23
 257.926 673.305 257.926 673.305 258.65 1450 c 1,0,-1
EndSplineSet
EndChar
StartChar: uni026E
Encoding: 622 622 622
Width: 1245
Flags: W
TeX: 0 0 0 0
Fore
880.3 618 m 2,0,1
 880.3 813 880.3 813 838 884 c 0,2,3
 794.8 956 794.8 956 685 956 c 0,4,5
 569.8 956 569.8 956 509.5 863 c 128,-1,6
 449.2 770 449.2 770 449.2 592 c 2,7,-1
 449.2 106 l 1,8,-1
 593.2 106 l 1,9,-1
 593.2 0 l 1,10,-1
 134.2 0 l 1,11,-1
 134.2 106 l 1,12,-1
 283.6 106 l 1,13,-1
 283.6 1450 l 1,14,-1
 125.2 1450 l 1,15,-1
 125.2 1556 l 1,16,-1
 449.2 1556 l 1,17,-1
 449.2 874 l 1,18,19
 495.1 982 495.1 982 568 1037 c 0,20,21
 641.8 1092 641.8 1092 739 1092 c 0,22,23
 897.4 1092 897.4 1092 972.1 991 c 0,24,25
 1046.8 891 1046.8 891 1046.8 676 c 2,26,-1
 1046.8 -104 l 2,27,28
 1046.8 -268 1046.8 -268 958.6 -362 c 0,29,30
 871.3 -455 871.3 -455 717.4 -455 c 0,31,32
 652.6 -455 652.6 -455 593.2 -438 c 0,33,34
 534.7 -422 534.7 -422 478.9 -389 c 1,35,-1
 478.9 -170 l 1,36,-1
 564.4 -170 l 1,37,38
 570.7 -266 570.7 -266 609.4 -311 c 0,39,40
 647.2 -356 647.2 -356 721 -356 c 0,41,42
 802.9 -356 802.9 -356 841.6 -294 c 0,43,44
 880.3 -234 880.3 -234 880.3 -104 c 2,45,-1
 880.3 618 l 2,0,1
EndSplineSet
EndChar
StartChar: uni026F
Encoding: 623 623 623
Width: 1845
Flags: W
Fore
907.1 236 m 1,0,1
 859.4 119 859.4 119 785.6 60 c 0,2,3
 710.9 0 710.9 0 611.9 0 c 0,4,5
 461.6 0 461.6 0 387.8 104 c 0,6,7
 314 207 314 207 314 416 c 2,8,-1
 314 986 l 1,9,-1
 164.6 986 l 1,10,-1
 164.6 1092 l 1,11,-1
 479.6 1092 l 1,12,-1
 479.6 437 l 2,13,14
 479.6 274 479.6 274 522.8 205 c 128,-1,15
 566 136 566 136 665.9 136 c 0,16,17
 776.6 136 776.6 136 834.2 229 c 0,18,19
 892.7 322 892.7 322 892.7 500 c 2,20,-1
 892.7 986 l 1,21,-1
 748.7 986 l 1,22,-1
 748.7 1092 l 1,23,-1
 1058.3 1092 l 1,24,-1
 1058.3 430 l 2,25,26
 1058.3 271 1058.3 271 1101.5 204 c 0,27,28
 1144.7 136 1144.7 136 1244.6 136 c 0,29,30
 1355.3 136 1355.3 136 1413.8 229 c 0,31,32
 1471.4 322 1471.4 322 1471.4 500 c 2,33,-1
 1471.4 986 l 1,34,-1
 1327.4 986 l 1,35,-1
 1327.4 1092 l 1,36,-1
 1637 1092 l 1,37,-1
 1637 134 l 1,38,-1
 1795.4 134 l 1,39,-1
 1795.4 29 l 1,40,-1
 1471.4 29 l 1,41,-1
 1471.4 218 l 1,42,43
 1425.5 112 1425.5 112 1354.4 56 c 128,-1,44
 1283.3 0 1283.3 0 1193.3 0 c 0,45,46
 1081.7 0 1081.7 0 1007 62 c 0,47,48
 932.3 123 932.3 123 907.1 236 c 1,0,1
EndSplineSet
EndChar
StartChar: uni0270
Encoding: 624 624 624
Width: 1845
Flags: W
Fore
1637 -319 m 1,0,-1
 1795.4 -319 l 1,1,-1
 1795.4 -426 l 1,2,-1
 1314.8 -426 l 1,3,-1
 1314.8 -319 l 1,4,-1
 1471.4 -319 l 1,5,-1
 1471.4 218 l 1,6,7
 1425.5 112 1425.5 112 1354.4 56 c 128,-1,8
 1283.3 0 1283.3 0 1193.3 0 c 0,9,10
 1081.7 0 1081.7 0 1007 62 c 0,11,12
 932.3 123 932.3 123 907.1 236 c 1,13,14
 859.4 119 859.4 119 785.6 60 c 0,15,16
 710.9 0 710.9 0 611.9 0 c 0,17,18
 461.6 0 461.6 0 387.8 104 c 0,19,20
 314 207 314 207 314 416 c 2,21,-1
 314 986 l 1,22,-1
 164.6 986 l 1,23,-1
 164.6 1092 l 1,24,-1
 479.6 1092 l 1,25,-1
 479.6 437 l 2,26,27
 479.6 274 479.6 274 522.8 205 c 128,-1,28
 566 136 566 136 665.9 136 c 0,29,30
 776.6 136 776.6 136 834.2 229 c 0,31,32
 892.7 322 892.7 322 892.7 500 c 2,33,-1
 892.7 986 l 1,34,-1
 748.7 986 l 1,35,-1
 748.7 1092 l 1,36,-1
 1058.3 1092 l 1,37,-1
 1058.3 430 l 2,38,39
 1058.3 271 1058.3 271 1101.5 204 c 0,40,41
 1144.7 136 1144.7 136 1244.6 136 c 0,42,43
 1355.3 136 1355.3 136 1413.8 229 c 0,44,45
 1471.4 322 1471.4 322 1471.4 500 c 2,46,-1
 1471.4 986 l 1,47,-1
 1327.4 986 l 1,48,-1
 1327.4 1092 l 1,49,-1
 1637 1092 l 1,50,-1
 1637 -319 l 1,0,-1
EndSplineSet
EndChar
StartChar: uni0271
Encoding: 625 625 625
Width: 1837
Flags: W
Fore
1638.65 -104 m 0,0,1
 1638.65 -268 1638.65 -268 1551.35 -362 c 0,2,3
 1463.15 -455 1463.15 -455 1309.25 -455 c 0,4,5
 1244.45 -455 1244.45 -455 1185.95 -438 c 0,6,7
 1126.56 -422.002 1126.56 -422.002 1070.75 -389 c 1,8,-1
 1070.75 -170 l 1,9,-1
 1156.25 -170 l 1,10,11
 1162.55 -265.999 1162.55 -265.999 1200.35 -311 c 0,12,13
 1239.05 -356 1239.05 -356 1312.85 -356 c 0,14,15
 1394.75 -356 1394.75 -356 1434.35 -294 c 0,16,17
 1472.15 -234 1472.15 -234 1472.15 -104 c 2,18,-1
 1472.15 655 l 2,19,20
 1472.15 818 1472.15 818 1428.95 887 c 0,21,22
 1385.75 956 1385.75 956 1285.85 956 c 0,23,24
 1175.15 956 1175.15 956 1117.55 863 c 0,25,26
 1059.05 770.001 1059.05 770.001 1059.05 592 c 2,27,-1
 1059.05 106 l 1,28,-1
 1203.05 106 l 1,29,-1
 1203.05 0 l 1,30,-1
 749.45 0 l 1,31,-1
 749.45 106 l 1,32,-1
 893.45 106 l 1,33,-1
 893.45 662 l 2,34,35
 893.45 821.001 893.45 821.001 850.25 888 c 0,36,37
 807.051 956 807.051 956 707.15 956 c 0,38,39
 596.451 956 596.451 956 537.95 863 c 0,40,41
 480.35 769.999 480.35 769.999 480.35 592 c 2,42,-1
 480.35 106 l 1,43,-1
 624.35 106 l 1,44,-1
 624.35 0 l 1,45,-1
 165.35 0 l 1,46,-1
 165.35 106 l 1,47,-1
 314.75 106 l 1,48,-1
 314.75 958 l 1,49,-1
 156.35 958 l 1,50,-1
 156.35 1063 l 1,51,-1
 480.35 1063 l 1,52,-1
 480.35 874 l 1,53,54
 526.249 979.998 526.249 979.998 597.35 1036 c 0,55,56
 668.448 1092 668.448 1092 758.45 1092 c 0,57,58
 870.05 1092 870.05 1092 944.75 1030 c 0,59,60
 1019.45 969.001 1019.45 969.001 1044.65 856 c 1,61,62
 1092.35 972.999 1092.35 972.999 1166.15 1032 c 0,63,64
 1240.85 1092 1240.85 1092 1339.85 1092 c 0,65,66
 1490.15 1092 1490.15 1092 1563.95 988 c 0,67,68
 1637.75 885 1637.75 885 1637.75 676 c 0,69,70
 1638.6 283.482 1638.6 283.482 1638.65 -104 c 0,0,1
EndSplineSet
EndChar
StartChar: uni0272
Encoding: 626 626 626
Width: 1239
Flags: W
Fore
443.8 -104 m 0,0,1
 443.8 -268.002 443.8 -268.002 355.6 -362 c 0,2,3
 268.301 -455 268.301 -455 114.4 -455 c 0,4,5
 49.5967 -455 49.5967 -455 -9.7998 -438 c 0,6,7
 -68.2949 -422.003 -68.2949 -422.003 -124.1 -389 c 1,8,-1
 -124.1 -170 l 1,9,-1
 -38.5996 -170 l 1,10,11
 -32.3008 -265.998 -32.3008 -265.998 6.40039 -311 c 0,12,13
 44.2002 -356 44.2002 -356 118 -356 c 0,14,15
 199.901 -356 199.901 -356 238.6 -294 c 0,16,17
 277.3 -233.999 277.3 -233.999 277.3 -104 c 2,18,-1
 277.3 956 l 1,19,-1
 118.9 956 l 1,20,-1
 118.9 1063 l 1,21,-1
 442.9 1063 l 1,22,-1
 442.9 874 l 1,23,24
 488.8 982 488.8 982 562.6 1037 c 0,25,26
 635.501 1092 635.501 1092 732.7 1092 c 0,27,28
 891.1 1092 891.1 1092 965.8 991 c 0,29,30
 1040.5 890 1040.5 890 1040.5 676 c 2,31,-1
 1040.5 106 l 1,32,-1
 1188.1 106 l 1,33,-1
 1188.1 0 l 1,34,-1
 730.9 0 l 1,35,-1
 730.9 106 l 1,36,-1
 874 106 l 1,37,-1
 874 618 l 2,38,39
 874 813.001 874 813.001 830.8 886 c 0,40,41
 787.6 958 787.6 958 678.7 958 c 0,42,43
 563.5 958 563.5 958 503.2 864 c 0,44,45
 442.9 770.999 442.9 770.999 442.9 592 c 0,46,47
 443.8 241.757 443.8 241.757 443.8 -104 c 0,0,1
EndSplineSet
EndChar
StartChar: uni0273
Encoding: 627 627 627
Width: 1359
Flags: W
Fore
902.6 618 m 2,0,1
 902.6 813.001 902.6 813.001 859.4 886 c 0,2,3
 816.2 958 816.2 958 707.3 958 c 0,4,5
 592.1 958 592.1 958 531.8 864 c 0,6,7
 471.5 770.999 471.5 770.999 471.5 592 c 2,8,-1
 471.5 106 l 1,9,-1
 615.5 106 l 1,10,-1
 615.5 0 l 1,11,-1
 156.5 0 l 1,12,-1
 156.5 106 l 1,13,-1
 305.9 106 l 1,14,-1
 305.9 956 l 1,15,-1
 147.5 956 l 1,16,-1
 147.5 1063 l 1,17,-1
 471.5 1063 l 1,18,-1
 471.5 874 l 1,19,20
 517.401 982.001 517.401 982.001 590.3 1037 c 0,21,22
 664.1 1092 664.1 1092 761.3 1092 c 0,23,24
 917.901 1092 917.901 1092 994.4 991 c 0,25,26
 1069.1 892.001 1069.1 892.001 1069.1 676 c 2,27,-1
 1069.1 -104 l 2,28,29
 1069.1 -234 1069.1 -234 1106.9 -294 c 0,30,31
 1146.5 -356 1146.5 -356 1228.4 -356 c 0,32,33
 1302.2 -356 1302.2 -356 1340.9 -311 c 0,34,35
 1378.7 -265.999 1378.7 -265.999 1385 -170 c 1,36,-1
 1470.5 -170 l 1,37,-1
 1470.5 -389 l 1,38,39
 1414.69 -422.002 1414.69 -422.002 1355.3 -438 c 0,40,41
 1296.8 -455 1296.8 -455 1232 -455 c 0,42,43
 1078.1 -455 1078.1 -455 989.9 -362 c 0,44,45
 902.6 -268 902.6 -268 902.6 -104 c 2,46,-1
 902.6 618 l 2,0,1
EndSplineSet
EndChar
StartChar: uni0274
Encoding: 628 628 628
Width: 1258
Flags: W
TeX: 0 0 0 0
Fore
142.9 0 m 1,0,-1
 142.9 106 l 1,1,-1
 268 106 l 1,2,-1
 268.9 983 l 1,3,-1
 143.8 983 l 1,4,-1
 143.8 1090 l 1,5,-1
 488.5 1090 l 1,6,-1
 911.5 315 l 1,7,-1
 911.5 983 l 1,8,-1
 731.5 983 l 1,9,-1
 731.5 1090 l 1,10,-1
 1203.1 1090 l 1,11,-1
 1203.1 983 l 1,12,-1
 1075.3 983 l 1,13,-1
 1074.4 -29 l 1,14,-1
 912.4 -29 l 1,15,-1
 435.4 826 l 1,16,-1
 434.5 106 l 1,17,-1
 615.4 106 l 1,18,-1
 615.4 0 l 1,19,-1
 142.9 0 l 1,0,-1
EndSplineSet
EndChar
StartChar: uni0275
Encoding: 629 629 629
Width: 1171
Flags: W
Fore
616 70 m 0,0,1
 749.201 70 749.201 70 817.6 187 c 0,2,3
 874.64 285.869 874.64 285.869 883.479 464 c 1,4,-1
 348.543 464 l 1,5,6
 357.5 285.87 357.5 285.87 415.3 187 c 0,7,8
 483.699 70 483.699 70 616 70 c 0,0,1
347.389 570 m 1,9,-1
 884.611 570 l 1,10,11
 879.355 769.872 879.355 769.872 817.6 876 c 0,12,13
 749.201 993 749.201 993 616 993 c 0,14,15
 482.799 993 482.799 993 414.4 876 c 0,16,17
 352.645 769.872 352.645 769.872 347.389 570 c 1,9,-1
616 -29 m 0,18,19
 407.2 -29 407.2 -29 280.3 124 c 0,20,21
 153.4 278 153.4 278 153.4 532 c 128,-1,22
 153.4 786 153.4 786 279.4 939 c 0,23,24
 406.3 1092 406.3 1092 616 1092 c 128,-1,25
 825.7 1092 825.7 1092 952.6 939 c 0,26,27
 1078.6 786 1078.6 786 1078.6 532 c 128,-1,28
 1078.6 278 1078.6 278 952.6 124 c 0,29,30
 825.7 -29 825.7 -29 616 -29 c 0,18,19
EndSplineSet
EndChar
StartChar: uni0276
Encoding: 630 630 630
Width: 1539
Flags: W
TeX: 0 0 0 0
Fore
725.65 948 m 18,0,1
 561.85 954 561.85 954 463.75 837 c 0,2,3
 370.15 725 370.15 725 370.15 525 c 0,4,5
 370.15 323 370.15 323 463.75 211 c 0,6,7
 555.55 100 555.55 100 725.65 98 c 2,8,-1
 750.85 97 l 25,9,-1
 790.45 106 l 25,10,-1
 790.45 956 l 25,11,-1
 749.05 947 l 25,12,-1
 725.65 948 l 18,0,1
1486.15 0 m 1,13,-1
 698.65 0 l 2,14,15
 452.05 0 452.05 0 313.45 141 c 128,-1,16
 174.85 282 174.85 282 174.85 534 c 0,17,18
 174.85 783 174.85 783 312.55 923 c 0,19,20
 451.15 1063 451.15 1063 698.65 1063 c 2,21,-1
 1475.35 1063 l 1,22,-1
 1475.35 826 l 1,23,-1
 1388.05 826 l 1,24,-1
 1388.95 956 l 1,25,-1
 956.95 956 l 1,26,-1
 956.95 628 l 1,27,-1
 1264.75 628 l 1,28,-1
 1263.85 752 l 1,29,-1
 1349.35 752 l 1,30,-1
 1349.35 399 l 1,31,-1
 1263.85 399 l 1,32,-1
 1264.75 522 l 1,33,-1
 956.95 522 l 1,34,-1
 956.95 106 l 1,35,-1
 1398.85 106 l 1,36,-1
 1398.85 236 l 1,37,-1
 1486.15 236 l 1,38,-1
 1486.15 0 l 1,13,-1
EndSplineSet
EndChar
StartChar: uni0277
Encoding: 631 631 631
Width: 1260
Flags: W
TeX: 0 0 0 0
Fore
764.25 529 m 17,0,-1
 764.25 489 l 2,1,2
 764.25 369 764.25 369 794.85 263 c 0,3,4
 850.65 66 850.65 66 905.55 66 c 0,5,6
 985.65 66 985.65 66 985.65 430 c 0,7,8
 984.75 603 984.75 603 935.25 772 c 1,9,10
 852.45 969 852.45 969 666.15 973 c 0,11,12
 486.15 977 486.15 977 399.75 772 c 1,13,14
 350.25 603 350.25 603 349.35 430 c 0,15,16
 349.35 66 349.35 66 429.45 66 c 0,17,18
 484.35 66 484.35 66 540.15 263 c 0,19,20
 570.75 369 570.75 369 570.75 489 c 2,21,-1
 570.75 529 l 1,22,-1
 764.25 529 l 17,0,-1
666.15 272 m 1,23,24
 644.55 130 644.55 130 580.65 50 c 0,25,26
 516.75 -29 516.75 -29 424.05 -29 c 0,27,28
 297.15 -29 297.15 -29 227.85 83 c 0,29,30
 158.55 194 158.55 194 158.55 400 c 0,31,32
 158.55 479 158.55 479 175.65 560 c 0,33,34
 197.25 666 197.25 666 225.15 727 c 0,35,36
 388.95 1085 388.95 1085 666.15 1085 c 0,37,38
 946.05 1085 946.05 1085 1109.85 727 c 0,39,40
 1137.75 666 1137.75 666 1159.35 560 c 0,41,42
 1176.45 479 1176.45 479 1176.45 400 c 0,43,44
 1176.45 194 1176.45 194 1107.15 83 c 0,45,46
 1037.85 -29 1037.85 -29 910.95 -29 c 0,47,48
 818.25 -29 818.25 -29 754.35 50 c 0,49,50
 690.45 130 690.45 130 666.15 272 c 1,23,24
EndSplineSet
EndChar
StartChar: uni0278
Encoding: 632 632 632
Width: 1171
Flags: W
TeX: 0 0 0 0
Fore
700.6 -320 m 1,0,-1
 857.2 -320 l 1,1,-1
 857.2 -426 l 1,2,-1
 376.6 -426 l 1,3,-1
 376.6 -320 l 1,4,-1
 535 -320 l 1,5,-1
 535 -22.7588 l 1,6,7
 381.57 1.90039 381.57 1.90039 280.3 124 c 0,8,9
 153.4 277.999 153.4 277.999 153.4 532 c 0,10,11
 153.4 786.001 153.4 786.001 279.4 939 c 0,12,13
 380.777 1061.23 380.777 1061.23 535 1085.81 c 1,14,-1
 535 1449 l 1,15,-1
 376.6 1449 l 1,16,-1
 376.6 1556 l 1,17,-1
 857.2 1556 l 1,18,-1
 857.2 1453 l 1,19,-1
 700.6 1453 l 1,20,-1
 700.6 1085.22 l 1,21,22
 852.407 1059.8 852.407 1059.8 952.6 939 c 0,23,24
 1078.6 786.001 1078.6 786.001 1078.6 532 c 0,25,26
 1078.6 277.998 1078.6 277.998 952.6 124 c 0,27,28
 852.407 3.2002 852.407 3.2002 700.6 -22.2227 c 1,29,-1
 700.6 -320 l 1,0,-1
535 82.9648 m 1,30,-1
 535 980.209 l 1,31,32
 460.183 954.314 460.183 954.314 414.4 876 c 0,33,34
 346.9 759.999 346.9 759.999 346.9 532 c 0,35,36
 346.9 304.001 346.9 304.001 415.3 187 c 0,37,38
 460.93 108.947 460.93 108.947 535 82.9648 c 1,30,-1
700.6 978.926 m 1,39,-1
 700.6 84.0742 l 1,40,41
 772.924 110.579 772.924 110.579 817.6 187 c 0,42,43
 885.1 304 885.1 304 885.1 532 c 0,44,45
 885.1 759.999 885.1 759.999 817.6 876 c 0,46,47
 772.924 952.421 772.924 952.421 700.6 978.926 c 1,39,-1
EndSplineSet
EndChar
StartChar: uni0279
Encoding: 633 633 633
Width: 976
Flags: W
Fore
119.25 -2 m 1,0,-1
 119.25 264 l 1,1,-1
 214.65 264 l 1,2,3
 219.15 185 219.15 185 254.25 146 c 128,-1,4
 289.35 107 289.35 107 356.85 107 c 0,5,6
 479.25 107 479.25 107 544.05 201 c 0,7,8
 609.75 295 609.75 295 609.75 471 c 2,9,-1
 609.75 957 l 1,10,-1
 418.05 957 l 1,11,-1
 418.05 1063 l 1,12,-1
 924.75 1063 l 1,13,-1
 924.75 957 l 1,14,-1
 775.35 957 l 1,15,-1
 775.35 105 l 1,16,-1
 933.75 105 l 1,17,-1
 933.75 0 l 1,18,-1
 609.75 0 l 1,19,-1
 609.75 189 l 1,20,21
 561.15 78 561.15 78 484.65 24 c 0,22,23
 408.15 -29 408.15 -29 298.35 -29 c 0,24,25
 257.85 -29 257.85 -29 212.85 -22 c 0,26,27
 168.75 -15 168.75 -15 119.25 -2 c 1,0,-1
EndSplineSet
EndChar
StartChar: uni027A
Encoding: 634 634 634
Width: 976
Flags: W
Fore
119.25 -2 m 1,0,-1
 119.25 264 l 1,1,-1
 214.65 264 l 1,2,3
 219.15 185 219.15 185 254.25 146 c 128,-1,4
 289.35 107 289.35 107 356.85 107 c 0,5,6
 476.55 107 476.55 107 544.05 201 c 0,7,8
 609.75 292 609.75 292 609.75 471 c 2,9,-1
 609.75 1449 l 1,10,-1
 418.05 1449 l 1,11,-1
 418.05 1555 l 1,12,-1
 924.75 1555 l 1,13,-1
 924.75 1449 l 1,14,-1
 775.35 1449 l 1,15,-1
 775.35 105 l 1,16,-1
 933.75 105 l 1,17,-1
 933.75 0 l 1,18,-1
 609.75 0 l 1,19,-1
 609.75 189 l 1,20,21
 561.15 78 561.15 78 484.65 24 c 0,22,23
 408.15 -29 408.15 -29 298.35 -29 c 0,24,25
 257.85 -29 257.85 -29 212.85 -22 c 0,26,27
 168.75 -15 168.75 -15 119.25 -2 c 1,0,-1
EndSplineSet
EndChar
StartChar: uni027B
Encoding: 635 635 635
Width: 1082
Flags: W
Fore
623.4 0 m 1,0,-1
 623.4 189 l 1,1,2
 574.8 78 574.8 78 498.3 24 c 0,3,4
 421.8 -29 421.8 -29 312 -29 c 0,5,6
 271.5 -29 271.5 -29 226.5 -22 c 0,7,8
 182.4 -15 182.4 -15 132.9 -2 c 1,9,-1
 132.9 264 l 1,10,-1
 228.3 264 l 1,11,12
 232.8 185 232.8 185 267.9 146 c 128,-1,13
 303 107 303 107 370.5 107 c 0,14,15
 492.9 107 492.9 107 557.7 201 c 0,16,17
 623.4 295 623.4 295 623.4 471 c 2,18,-1
 623.4 957 l 1,19,-1
 431.7 957 l 1,20,-1
 431.7 1063 l 1,21,-1
 938.4 1063 l 1,22,-1
 938.4 957 l 1,23,-1
 791.7 957 l 1,24,-1
 791.7 128 l 1,25,-1
 791.7 -104 l 2,26,27
 791.7 -234 791.7 -234 830.4 -294 c 0,28,29
 869.1 -356 869.1 -356 951.9 -356 c 0,30,31
 1025.7 -356 1025.7 -356 1063.5 -311 c 128,-1,32
 1101.3 -266 1101.3 -266 1108.5 -170 c 1,33,-1
 1193.1 -170 l 1,34,-1
 1193.1 -389 l 1,35,36
 1137.3 -422 1137.3 -422 1078.8 -438 c 0,37,38
 1020.3 -455 1020.3 -455 955.5 -455 c 0,39,40
 800.7 -455 800.7 -455 713.4 -362 c 0,41,42
 629.7 -272 629.7 -272 626.1 -104 c 2,43,-1
 623.4 0 l 1,0,-1
EndSplineSet
EndChar
StartChar: uni027C
Encoding: 636 636 636
Width: 933
Flags: W
Fore
933.75 1065 m 1,0,-1
 933.75 799 l 1,1,-1
 838.35 799 l 1,2,3
 833.85 878 833.85 878 798.75 917 c 128,-1,4
 763.65 956 763.65 956 696.15 956 c 0,5,6
 573.75 956 573.75 956 508.05 862 c 0,7,8
 443.25 768 443.25 768 443.25 592 c 2,9,-1
 443.25 -318 l 1,10,-1
 634.95 -318 l 1,11,-1
 634.95 -424 l 1,12,-1
 128.25 -424 l 1,13,-1
 128.25 -318 l 1,14,-1
 277.65 -318 l 1,15,-1
 277.65 958 l 1,16,-1
 119.25 958 l 1,17,-1
 119.25 1063 l 1,18,-1
 443.25 1063 l 1,19,-1
 443.25 874 l 1,20,21
 491.85 985 491.85 985 568.35 1038 c 0,22,23
 644.85 1092 644.85 1092 754.65 1092 c 0,24,25
 795.15 1092 795.15 1092 839.25 1085 c 0,26,27
 884.25 1078 884.25 1078 933.75 1065 c 1,0,-1
EndSplineSet
EndChar
StartChar: uni027D
Encoding: 637 637 637
Width: 933
Flags: W
Fore
933.75 1065 m 1,0,-1
 933.75 799 l 1,1,-1
 838.35 799 l 1,2,3
 833.85 878 833.85 878 798.75 917 c 128,-1,4
 763.65 956 763.65 956 696.15 956 c 0,5,6
 573.75 956 573.75 956 508.05 862 c 0,7,8
 443.25 768 443.25 768 443.25 592 c 0,9,10
 444.15 244 444.15 244 441.45 -104 c 2,11,12
 441.45 -234 441.45 -234 479.25 -294 c 0,13,14
 518.85 -356 518.85 -356 600.75 -356 c 0,15,16
 674.55 -356 674.55 -356 713.25 -311 c 0,17,18
 751.05 -266 751.05 -266 757.35 -170 c 1,19,-1
 842.85 -170 l 1,20,-1
 842.85 -389 l 1,21,22
 787.05 -422 787.05 -422 727.65 -438 c 0,23,24
 669.15 -455 669.15 -455 604.35 -455 c 0,25,26
 450.45 -455 450.45 -455 362.25 -362 c 0,27,28
 274.95 -268 274.95 -268 274.95 -104 c 2,29,-1
 274.95 0 l 1,30,31
 275.85 472 275.85 472 274.95 958 c 1,32,-1
 119.25 958 l 1,33,-1
 119.25 1063 l 1,34,-1
 443.25 1063 l 1,35,-1
 443.25 874 l 1,36,37
 491.85 985 491.85 985 568.35 1038 c 0,38,39
 644.85 1092 644.85 1092 754.65 1092 c 0,40,41
 795.15 1092 795.15 1092 839.25 1085 c 0,42,43
 884.25 1078 884.25 1078 933.75 1065 c 1,0,-1
EndSplineSet
EndChar
StartChar: uni027E
Encoding: 638 638 638
Width: 882
Flags: W
Fore
438.8 106 m 1,0,-1
 630.5 106 l 1,1,-1
 630.5 0 l 1,2,-1
 123.8 0 l 1,3,-1
 123.8 106 l 1,4,-1
 272.3 106 l 1,5,-1
 272.3 628 l 1,6,-1
 272.3 734 l 2,7,8
 272.3 898 272.3 898 359.6 992 c 0,9,10
 447.8 1085 447.8 1085 601.7 1085 c 0,11,12
 666.5 1085 666.5 1085 725 1068 c 0,13,14
 784.4 1052 784.4 1052 840.2 1019 c 1,15,-1
 840.2 800 l 1,16,-1
 754.7 800 l 1,17,18
 748.4 896 748.4 896 710.6 941 c 0,19,20
 671.9 986 671.9 986 598.1 986 c 0,21,22
 516.2 986 516.2 986 476.6 924 c 0,23,24
 438.8 864 438.8 864 438.8 734 c 2,25,-1
 438.8 628 l 1,26,-1
 438.8 106 l 1,0,-1
EndSplineSet
EndChar
StartChar: uni027F
Encoding: 639 639 639
Width: 882
Flags: W
Fore
525.2 106 m 1,0,-1
 525.2 628 l 1,1,-1
 525.2 734 l 2,2,3
 525.2 864 525.2 864 487.4 924 c 0,4,5
 447.8 986 447.8 986 365.9 986 c 0,6,7
 292.1 986 292.1 986 253.4 941 c 0,8,9
 215.6 896 215.6 896 209.3 800 c 1,10,-1
 123.8 800 l 1,11,-1
 123.8 1019 l 1,12,13
 179.6 1052 179.6 1052 239 1068 c 0,14,15
 297.5 1085 297.5 1085 362.3 1085 c 0,16,17
 516.2 1085 516.2 1085 604.4 992 c 0,18,19
 691.7 898 691.7 898 691.7 734 c 2,20,-1
 691.7 628 l 1,21,-1
 691.7 106 l 1,22,-1
 840.2 106 l 1,23,-1
 840.2 0 l 1,24,-1
 333.5 0 l 1,25,-1
 333.5 106 l 1,26,-1
 525.2 106 l 1,0,-1
EndSplineSet
EndChar
StartChar: uni0280
Encoding: 640 640 640
Width: 1157
Flags: W
Fore
711.8 528 m 1,0,1
 756.8 514 756.8 514 789.2 482 c 0,2,3
 821.6 449 821.6 449 846.8 391 c 2,4,-1
 986.3 75 l 1,5,-1
 1102.4 75 l 1,6,-1
 1102.4 0 l 1,7,-1
 877.4 0 l 1,8,-1
 728 338 l 2,9,10
 684.8 436 684.8 436 648.8 465 c 128,-1,11
 612.8 494 612.8 494 550.7 494 c 2,12,-1
 407.6 494 l 1,13,-1
 407.6 75 l 1,14,-1
 542.6 75 l 1,15,-1
 542.6 0 l 1,16,-1
 155.6 0 l 1,17,-1
 155.6 75 l 1,18,-1
 277.1 75 l 1,19,-1
 277.1 987 l 1,20,-1
 155.6 987 l 1,21,-1
 155.6 1063 l 1,22,-1
 640.7 1063 l 2,23,24
 780.2 1063 780.2 1063 856.7 989 c 0,25,26
 932.3 915 932.3 915 932.3 779 c 0,27,28
 932.3 669 932.3 669 876.5 606 c 0,29,30
 821.6 543 821.6 543 711.8 528 c 1,0,1
407.6 570 m 1,31,-1
 596.6 570 l 2,32,33
 692.9 570 692.9 570 739.7 621 c 0,34,35
 785.6 672 785.6 672 785.6 779 c 128,-1,36
 785.6 886 785.6 886 739.7 936 c 0,37,38
 692.9 987 692.9 987 596.6 987 c 2,39,-1
 407.6 987 l 1,40,-1
 407.6 570 l 1,31,-1
EndSplineSet
EndChar
StartChar: uni0281
Encoding: 641 641 641
Width: 1157
Flags: W
Fore
711.8 535 m 1,0,1
 821.6 520 821.6 520 876.5 457 c 0,2,3
 932.3 394 932.3 394 932.3 284 c 0,4,5
 932.3 148 932.3 148 856.7 74 c 0,6,7
 780.2 0 780.2 0 640.7 0 c 2,8,-1
 155.6 0 l 1,9,-1
 155.6 76 l 1,10,-1
 277.1 76 l 1,11,-1
 277.1 988 l 1,12,-1
 155.6 988 l 1,13,-1
 155.6 1063 l 1,14,-1
 542.6 1063 l 1,15,-1
 542.6 988 l 1,16,-1
 407.6 988 l 1,17,-1
 407.6 569 l 1,18,-1
 550.7 569 l 2,19,20
 612.8 569 612.8 569 648.8 598 c 128,-1,21
 684.8 627 684.8 627 728 725 c 2,22,-1
 877.4 1063 l 1,23,-1
 1102.4 1063 l 1,24,-1
 1102.4 988 l 1,25,-1
 986.3 988 l 1,26,-1
 846.8 672 l 2,27,28
 821.6 614 821.6 614 789.2 581 c 0,29,30
 756.8 549 756.8 549 711.8 535 c 1,0,1
407.6 493 m 1,31,-1
 407.6 76 l 1,32,-1
 596.6 76 l 2,33,34
 692.9 76 692.9 76 739.7 127 c 0,35,36
 785.6 177 785.6 177 785.6 284 c 128,-1,37
 785.6 391 785.6 391 739.7 442 c 0,38,39
 692.9 493 692.9 493 596.6 493 c 2,40,-1
 407.6 493 l 1,31,-1
EndSplineSet
EndChar
StartChar: uni0282
Encoding: 642 642 642
Width: 998
Flags: W
TeX: 0 0 0 0
Fore
322.1 -4.22363 m 1,0,-1
 322.1 -104 l 2,1,2
 322.1 -233.999 322.1 -233.999 360.8 -294 c 0,3,4
 399.498 -356 399.498 -356 481.4 -356 c 0,5,6
 555.2 -356 555.2 -356 593 -311 c 0,7,8
 631.701 -265.998 631.701 -265.998 638 -170 c 1,9,-1
 723.5 -170 l 1,10,-1
 723.5 -389 l 1,11,12
 667.694 -422.003 667.694 -422.003 609.2 -438 c 0,13,14
 549.804 -455 549.804 -455 485 -455 c 0,15,16
 331.099 -455 331.099 -455 243.8 -362 c 0,17,18
 155.6 -268.002 155.6 -268.002 155.6 -104 c 2,19,-1
 155.6 128 l 1,20,-1
 156.5 128 l 1,21,-1
 156.5 307 l 1,22,-1
 251.9 307 l 1,23,24
 255.499 188.002 255.499 188.002 318.95 129 c 2,25,-1
 320.034 128 l 1,26,-1
 322.1 128 l 1,27,-1
 322.1 126.14 l 1,28,29
 385.446 70 385.446 70 506.6 70 c 0,30,31
 618.199 70 618.199 70 676.7 116.5 c 0,32,33
 735.2 162.999 735.2 162.999 735.2 252 c 0,34,35
 735.2 322 735.2 322 692.45 365 c 0,36,37
 649.698 408.002 649.698 408.002 512 457 c 1,38,-1
 392.3 502 l 1,39,40
 268.999 546.001 268.999 546.001 213.65 612 c 0,41,42
 158.3 678 158.3 678 158.3 780 c 0,43,44
 158.3 926 158.3 926 254.6 1009 c 0,45,46
 350.9 1092 350.9 1092 521 1092 c 0,47,48
 596.597 1092 596.597 1092 680.3 1070 c 0,49,50
 763.995 1048 763.995 1048 853.1 1006 c 1,51,-1
 853.1 774 l 1,52,-1
 757.7 774 l 1,53,54
 754.101 877.001 754.101 877.001 692.9 935 c 0,55,56
 631.698 993 631.698 993 526.4 993 c 0,57,58
 421.998 993 421.998 993 368.45 952 c 0,59,60
 314.9 910.998 314.9 910.998 314.9 829 c 0,61,62
 314.9 762 314.9 762 355.4 721.5 c 0,63,64
 395.9 681 395.9 681 517.4 639 c 2,65,-1
 648.8 594 l 2,66,67
 784.7 546.999 784.7 546.999 844.55 476.5 c 0,68,69
 904.4 406.001 904.4 406.001 904.4 295 c 0,70,71
 904.4 143.999 904.4 143.999 800.45 57.5 c 0,72,73
 696.499 -29 696.499 -29 513.8 -29 c 0,74,75
 421.104 -29 421.104 -29 332.9 -7 c 2,76,-1
 322.1 -4.22363 l 1,0,-1
EndSplineSet
EndChar
StartChar: uni0283
Encoding: 643 643 643
Width: 524
Flags: W
Fore
414.7 -104 m 2,0,1
 435.4 -246 435.4 -246 326.5 -362 c 0,2,3
 239.2 -455 239.2 -455 85.2998 -455 c 0,4,5
 20.5 -455 20.5 -455 -38.9004 -438 c 0,6,7
 -97.4004 -422 -97.4004 -422 -153.2 -389 c 1,8,-1
 -153.2 -170 l 1,9,-1
 -67.7002 -170 l 1,10,11
 -61.4004 -266 -61.4004 -266 -22.7002 -311 c 0,12,13
 15.0996 -356 15.0996 -356 88.9004 -356 c 0,14,15
 169 -356 169 -356 209.5 -294 c 0,16,17
 263.5 -214 263.5 -214 248.2 -104 c 0,18,19
 152.8 546 152.8 546 67.2998 1208 c 2,20,21
 48.4004 1351 48.4004 1351 155.5 1465 c 0,22,23
 242.8 1558 242.8 1558 396.7 1558 c 0,24,25
 461.5 1558 461.5 1558 520.9 1542 c 0,26,27
 579.4 1526 579.4 1526 635.2 1492 c 1,28,-1
 635.2 1274 l 1,29,-1
 549.7 1274 l 1,30,31
 543.4 1370 543.4 1370 504.7 1414 c 0,32,33
 466.9 1460 466.9 1460 393.1 1460 c 0,34,35
 311.2 1460 311.2 1460 272.5 1398 c 0,36,37
 219.4 1317 219.4 1317 233.8 1208 c 0,38,39
 318.4 545 318.4 545 414.7 -104 c 2,0,1
EndSplineSet
EndChar
StartChar: uni0284
Encoding: 644 644 644
Width: 716
Flags: W
Fore
259.2 107 m 1,0,-1
 34.2002 107 l 1,1,-1
 34.2002 0 l 1,2,-1
 259.2 0 l 1,3,-1
 259.2 -104 l 2,4,5
 259.2 -233 259.2 -233 219.6 -294 c 0,6,7
 180.9 -356 180.9 -356 99 -356 c 0,8,9
 25.2002 -356 25.2002 -356 -12.5996 -311 c 0,10,11
 -51.2998 -266 -51.2998 -266 -57.5996 -170 c 1,12,-1
 -143.1 -170 l 1,13,-1
 -143.1 -389 l 1,14,15
 -87.2998 -422 -87.2998 -422 -28.7998 -438 c 0,16,17
 30.5996 -455 30.5996 -455 95.4004 -455 c 0,18,19
 249.3 -455 249.3 -455 336.6 -362 c 0,20,21
 424.8 -269 424.8 -269 424.8 -104 c 0,22,-1
 425.7 0 l 1,23,-1
 572.4 0 l 1,24,-1
 572.4 107 l 1,25,-1
 425.7 107 l 1,26,-1
 425.7 1205 l 2,27,28
 425.7 1336 425.7 1336 464.4 1396 c 0,29,30
 503.1 1457 503.1 1457 585 1457 c 0,31,32
 658.8 1457 658.8 1457 696.6 1412 c 0,33,34
 735.3 1367 735.3 1367 741.6 1271 c 1,35,-1
 827.1 1271 l 1,36,-1
 827.1 1490 l 1,37,38
 771.3 1523 771.3 1523 712.8 1540 c 0,39,40
 653.4 1556 653.4 1556 588.6 1556 c 0,41,42
 434.7 1556 434.7 1556 347.4 1462 c 0,43,44
 259.2 1369 259.2 1369 259.2 1205 c 2,45,-1
 259.2 1063 l 9,46,-1
 102.6 1063 l 1,47,-1
 102.6 956 l 1,48,-1
 259.2 956 l 1,49,-1
 259.2 107 l 1,0,-1
EndSplineSet
EndChar
StartChar: uni0285
Encoding: 645 645 645
Width: 948
Flags: W
Fore
338.3 -104 m 2,0,-1
 519.2 735 l 0,1,2
 533.6 845 533.6 845 480.5 926 c 0,3,4
 441.8 987 441.8 987 359.9 987 c 0,5,6
 286.1 987 286.1 987 248.3 942 c 0,7,8
 209.6 897 209.6 897 203.3 801 c 1,9,-1
 117.8 801 l 1,10,-1
 117.8 1020 l 1,11,12
 173.6 1053 173.6 1053 232.1 1070 c 0,13,14
 291.5 1086 291.5 1086 356.3 1086 c 0,15,16
 510.2 1086 510.2 1086 597.5 992 c 0,17,18
 714.5 868 714.5 868 685.7 735 c 2,19,-1
 504.8 -104 l 0,20,21
 489.5 -214 489.5 -214 543.5 -294 c 0,22,23
 584 -356 584 -356 664.1 -356 c 0,24,25
 737.9 -356 737.9 -356 775.7 -311 c 0,26,27
 814.4 -266 814.4 -266 820.7 -170 c 1,28,-1
 906.2 -170 l 1,29,-1
 906.2 -389 l 1,30,31
 850.4 -422 850.4 -422 791.9 -438 c 0,32,33
 732.5 -455 732.5 -455 667.7 -455 c 0,34,35
 513.8 -455 513.8 -455 426.5 -362 c 0,36,37
 309.5 -237 309.5 -237 338.3 -104 c 2,0,-1
EndSplineSet
EndChar
StartChar: uni0286
Encoding: 646 646 646
Width: 627
Flags: W
TeX: 0 0 0 0
Fore
191.544 -356 m 0,0,1
 271.644 -356 271.644 -356 313.044 -294 c 0,2,3
 360.744 -222 360.744 -222 353.544 -127 c 1,4,5
 340.943 -126 340.943 -126 328.344 -126 c 0,6,7
 48.4434 -126 48.4434 -126 48.4434 -249 c 0,8,9
 48.4434 -356 48.4434 -356 191.544 -356 c 0,0,1
509.244 -230 m 1,10,11
 488.544 -301 488.544 -301 430.044 -362 c 0,12,13
 338.244 -455 338.244 -455 193.344 -455 c 0,14,15
 -144.156 -455 -144.156 -455 -147.756 -256 c 0,16,17
 -152.256 -26 -152.256 -26 331.943 -26 c 0,18,19
 335.544 -26 335.544 -26 340.044 -26 c 1,20,21
 165.443 1194 165.443 1194 169.943 1208 c 1,22,23
 150.144 1350 150.144 1350 258.144 1465 c 0,24,25
 345.443 1558 345.443 1558 499.344 1558 c 0,26,27
 564.144 1558 564.144 1558 623.544 1542 c 0,28,29
 682.044 1526 682.044 1526 737.844 1492 c 1,30,-1
 737.844 1274 l 1,31,-1
 652.344 1274 l 1,32,33
 646.044 1370 646.044 1370 608.244 1414 c 0,34,35
 569.544 1460 569.544 1460 495.744 1460 c 0,36,37
 413.844 1460 413.844 1460 375.144 1398 c 0,38,39
 322.044 1317 322.044 1317 336.443 1208 c 0,40,41
 433.644 460 433.644 460 513.744 -80 c 1,42,43
 623.544 -166 623.544 -166 626.244 -386 c 2,44,-1
 627.144 -450 l 1,45,-1
 537.144 -450 l 1,46,-1
 537.144 -386 l 2,47,48
 537.144 -291 537.144 -291 509.244 -230 c 1,10,11
EndSplineSet
EndChar
StartChar: uni0287
Encoding: 647 647 647
Width: 784
Flags: W
Fore
623.8 107 m 1,0,-1
 769.6 107 l 1,1,-1
 769.6 0 l 1,2,-1
 623.8 0 l 1,3,-1
 623.8 -330 l 1,4,-1
 457.3 -330 l 1,5,-1
 457.3 0 l 1,6,-1
 145.9 0 l 1,7,-1
 145.9 107 l 1,8,-1
 457.3 107 l 1,9,-1
 457.3 782 l 2,10,11
 457.3 917 457.3 917 433.9 955 c 128,-1,12
 410.5 993 410.5 993 347.5 993 c 0,13,14
 282.7 993 282.7 993 253 950 c 0,15,16
 223.3 908 223.3 908 221.5 813 c 1,17,-1
 96.4004 813 l 1,18,19
 103.6 958 103.6 958 167.5 1025 c 128,-1,20
 231.4 1092 231.4 1092 361.9 1092 c 0,21,22
 505 1092 505 1092 564.4 1022 c 0,23,24
 623.8 951 623.8 951 623.8 782 c 2,25,-1
 623.8 107 l 1,0,-1
EndSplineSet
EndChar
StartChar: uni0288
Encoding: 648 648 648
Width: 784
Flags: W
Fore
242.2 956 m 1,0,-1
 96.4004 956 l 1,1,-1
 96.4004 1063 l 1,2,-1
 242.2 1063 l 1,3,-1
 242.2 1393 l 1,4,-1
 408.7 1393 l 1,5,-1
 408.7 1063 l 1,6,-1
 720.1 1063 l 1,7,-1
 720.1 956 l 1,8,-1
 408.7 956 l 1,9,-1
 408.7 -116 l 2,10,11
 408.7 -251 408.7 -251 432.1 -289 c 128,-1,12
 455.5 -327 455.5 -327 518.5 -327 c 0,13,14
 583.3 -327 583.3 -327 613 -284 c 0,15,16
 642.7 -242 642.7 -242 644.5 -147 c 1,17,-1
 769.6 -147 l 1,18,19
 762.4 -292 762.4 -292 698.5 -359 c 128,-1,20
 634.6 -426 634.6 -426 504.1 -426 c 0,21,22
 361 -426 361 -426 301.6 -356 c 0,23,24
 242.2 -285 242.2 -285 242.2 -116 c 2,25,-1
 242.2 956 l 1,0,-1
EndSplineSet
EndChar
StartChar: uni0289
Encoding: 649 649 649
Width: 1252
Flags: W
Fore
717.4 1063 m 1,0,-1
 1027 1063 l 1,1,-1
 1027 570 l 1,2,-1
 1183.6 570 l 1,3,-1
 1183.6 464 l 1,4,-1
 1027 464 l 1,5,-1
 1027 106 l 1,6,-1
 1183.6 106 l 1,7,-1
 1183.6 0 l 1,8,-1
 861.4 0 l 1,9,-1
 861.4 188 l 1,10,11
 815.5 82.001 815.5 82.001 742.6 26 c 0,12,13
 669.699 -29 669.699 -29 573.4 -29 c 0,14,15
 414.099 -29 414.099 -29 338.5 72 c 0,16,17
 263.8 171.998 263.8 171.998 263.8 387 c 2,18,-1
 263.8 464 l 1,19,-1
 114.4 464 l 1,20,-1
 114.4 570 l 1,21,-1
 263.8 570 l 1,22,-1
 263.8 956 l 1,23,-1
 114.4 956 l 1,24,-1
 114.4 1063 l 1,25,-1
 430.3 1063 l 1,26,-1
 430.3 570 l 1,27,-1
 861.4 570 l 1,28,-1
 861.4 956 l 1,29,-1
 717.4 956 l 1,30,-1
 717.4 1063 l 1,0,-1
861.361 464 m 1,31,-1
 430.3 464 l 1,32,-1
 430.3 444 l 2,33,34
 430.3 250 430.3 250 473.5 178 c 0,35,36
 515.801 106 515.801 106 625.6 106 c 0,37,38
 740.8 106 740.8 106 801.1 200 c 0,39,40
 859.875 291.623 859.875 291.623 861.361 464 c 1,31,-1
EndSplineSet
EndChar
